<svg xmlns="http://www.w3.org/2000/svg" xmlns:xlink="http://www.w3.org/1999/xlink" width="2048" zoomAndPan="magnify" viewBox="0 0 1536 1535.999932" height="2048" preserveAspectRatio="xMidYMid meet" version="1.0"><defs><filter x="0%" y="0%" width="100%" height="100%" id="20be03d2f6"><feColorMatrix values="0 0 0 0 1 0 0 0 0 1 0 0 0 0 1 0 0 0 1 0" color-interpolation-filters="sRGB"/></filter><g/><clipPath id="fc57ecbaea"><path d="M 0 0.980469 L 1533.152344 0.980469 L 1533.152344 560 L 0 560 Z M 0 0.980469 " clip-rule="nonzero"/></clipPath><clipPath id="df0d84d304"><path d="M 0 0.980469 L 1533.152344 0.980469 L 1533.152344 560 L 0 560 Z M 0 0.980469 " clip-rule="nonzero"/></clipPath><clipPath id="84d75e1bad"><path d="M 441.3125 0.980469 L 1502.164062 0.980469 L 1502.164062 560 L 441.3125 560 Z M 441.3125 0.980469 " clip-rule="nonzero"/></clipPath><linearGradient x1="129.113007" gradientTransform="matrix(0.794387, 0, 0, 0.794525, 338.747993, 356.198147)" y1="99" x2="1464.543057" gradientUnits="userSpaceOnUse" y2="99" id="f6fd426be6"><stop stop-opacity="1" stop-color="rgb(100%, 87.059021%, 34.899902%)" offset="0"/><stop stop-opacity="1" stop-color="rgb(100%, 87.059021%, 34.899902%)" offset="0.25"/><stop stop-opacity="1" stop-color="rgb(100%, 87.059021%, 34.899902%)" offset="0.3125"/><stop stop-opacity="1" stop-color="rgb(100%, 87.059021%, 34.899902%)" offset="0.328125"/><stop stop-opacity="1" stop-color="rgb(100%, 87.005615%, 34.890747%)" offset="0.335938"/><stop stop-opacity="1" stop-color="rgb(100%, 86.59668%, 34.82666%)" offset="0.339844"/><stop stop-opacity="1" stop-color="rgb(100%, 86.24115%, 34.771729%)" offset="0.34375"/><stop stop-opacity="1" stop-color="rgb(100%, 85.884094%, 34.715271%)" offset="0.347656"/><stop stop-opacity="1" stop-color="rgb(100%, 85.527039%, 34.660339%)" offset="0.351562"/><stop stop-opacity="1" stop-color="rgb(100%, 85.169983%, 34.603882%)" offset="0.355469"/><stop stop-opacity="1" stop-color="rgb(100%, 84.812927%, 34.54895%)" offset="0.359375"/><stop stop-opacity="1" stop-color="rgb(100%, 84.455872%, 34.494019%)" offset="0.363281"/><stop stop-opacity="1" stop-color="rgb(100%, 84.098816%, 34.439087%)" offset="0.367187"/><stop stop-opacity="1" stop-color="rgb(100%, 83.74176%, 34.382629%)" offset="0.371094"/><stop stop-opacity="1" stop-color="rgb(100%, 83.384705%, 34.327698%)" offset="0.375"/><stop stop-opacity="1" stop-color="rgb(100%, 83.027649%, 34.27124%)" offset="0.378906"/><stop stop-opacity="1" stop-color="rgb(100%, 82.670593%, 34.216309%)" offset="0.382812"/><stop stop-opacity="1" stop-color="rgb(100%, 82.313538%, 34.159851%)" offset="0.386719"/><stop stop-opacity="1" stop-color="rgb(100%, 81.956482%, 34.104919%)" offset="0.390625"/><stop stop-opacity="1" stop-color="rgb(100%, 81.599426%, 34.048462%)" offset="0.394531"/><stop stop-opacity="1" stop-color="rgb(100%, 81.242371%, 33.99353%)" offset="0.398438"/><stop stop-opacity="1" stop-color="rgb(100%, 80.885315%, 33.937073%)" offset="0.402344"/><stop stop-opacity="1" stop-color="rgb(100%, 80.528259%, 33.882141%)" offset="0.40625"/><stop stop-opacity="1" stop-color="rgb(100%, 80.171204%, 33.827209%)" offset="0.410156"/><stop stop-opacity="1" stop-color="rgb(100%, 79.814148%, 33.772278%)" offset="0.414062"/><stop stop-opacity="1" stop-color="rgb(100%, 79.457092%, 33.71582%)" offset="0.417969"/><stop stop-opacity="1" stop-color="rgb(100%, 79.100037%, 33.660889%)" offset="0.421875"/><stop stop-opacity="1" stop-color="rgb(100%, 78.742981%, 33.604431%)" offset="0.425781"/><stop stop-opacity="1" stop-color="rgb(100%, 78.385925%, 33.5495%)" offset="0.429688"/><stop stop-opacity="1" stop-color="rgb(100%, 78.02887%, 33.493042%)" offset="0.433594"/><stop stop-opacity="1" stop-color="rgb(100%, 77.671814%, 33.43811%)" offset="0.4375"/><stop stop-opacity="1" stop-color="rgb(100%, 77.314758%, 33.381653%)" offset="0.441406"/><stop stop-opacity="1" stop-color="rgb(100%, 76.957703%, 33.326721%)" offset="0.445312"/><stop stop-opacity="1" stop-color="rgb(100%, 76.600647%, 33.270264%)" offset="0.449219"/><stop stop-opacity="1" stop-color="rgb(100%, 76.243591%, 33.215332%)" offset="0.453125"/><stop stop-opacity="1" stop-color="rgb(100%, 75.886536%, 33.1604%)" offset="0.457031"/><stop stop-opacity="1" stop-color="rgb(100%, 75.52948%, 33.105469%)" offset="0.460937"/><stop stop-opacity="1" stop-color="rgb(100%, 75.172424%, 33.049011%)" offset="0.464844"/><stop stop-opacity="1" stop-color="rgb(100%, 74.815369%, 32.99408%)" offset="0.46875"/><stop stop-opacity="1" stop-color="rgb(100%, 74.458313%, 32.937622%)" offset="0.472656"/><stop stop-opacity="1" stop-color="rgb(100%, 74.101257%, 32.88269%)" offset="0.476562"/><stop stop-opacity="1" stop-color="rgb(100%, 73.744202%, 32.826233%)" offset="0.480469"/><stop stop-opacity="1" stop-color="rgb(100%, 73.387146%, 32.771301%)" offset="0.484375"/><stop stop-opacity="1" stop-color="rgb(100%, 73.03009%, 32.714844%)" offset="0.488281"/><stop stop-opacity="1" stop-color="rgb(100%, 72.673035%, 32.659912%)" offset="0.492187"/><stop stop-opacity="1" stop-color="rgb(100%, 72.315979%, 32.603455%)" offset="0.496094"/><stop stop-opacity="1" stop-color="rgb(100%, 71.958923%, 32.548523%)" offset="0.5"/><stop stop-opacity="1" stop-color="rgb(100%, 71.601868%, 32.493591%)" offset="0.503906"/><stop stop-opacity="1" stop-color="rgb(100%, 71.244812%, 32.43866%)" offset="0.507812"/><stop stop-opacity="1" stop-color="rgb(100%, 70.887756%, 32.382202%)" offset="0.511719"/><stop stop-opacity="1" stop-color="rgb(100%, 70.530701%, 32.327271%)" offset="0.515625"/><stop stop-opacity="1" stop-color="rgb(100%, 70.173645%, 32.270813%)" offset="0.519531"/><stop stop-opacity="1" stop-color="rgb(100%, 69.816589%, 32.215881%)" offset="0.523438"/><stop stop-opacity="1" stop-color="rgb(100%, 69.459534%, 32.159424%)" offset="0.527344"/><stop stop-opacity="1" stop-color="rgb(100%, 69.102478%, 32.104492%)" offset="0.53125"/><stop stop-opacity="1" stop-color="rgb(100%, 68.745422%, 32.048035%)" offset="0.535156"/><stop stop-opacity="1" stop-color="rgb(100%, 68.388367%, 31.993103%)" offset="0.539062"/><stop stop-opacity="1" stop-color="rgb(100%, 68.031311%, 31.936646%)" offset="0.542969"/><stop stop-opacity="1" stop-color="rgb(100%, 67.674255%, 31.881714%)" offset="0.546875"/><stop stop-opacity="1" stop-color="rgb(100%, 67.3172%, 31.826782%)" offset="0.550781"/><stop stop-opacity="1" stop-color="rgb(100%, 66.960144%, 31.771851%)" offset="0.554688"/><stop stop-opacity="1" stop-color="rgb(100%, 66.603088%, 31.715393%)" offset="0.558594"/><stop stop-opacity="1" stop-color="rgb(100%, 66.246033%, 31.660461%)" offset="0.5625"/><stop stop-opacity="1" stop-color="rgb(100%, 65.888977%, 31.604004%)" offset="0.566406"/><stop stop-opacity="1" stop-color="rgb(100%, 65.533447%, 31.549072%)" offset="0.570312"/><stop stop-opacity="1" stop-color="rgb(100%, 65.176392%, 31.492615%)" offset="0.574219"/><stop stop-opacity="1" stop-color="rgb(100%, 64.819336%, 31.437683%)" offset="0.578125"/><stop stop-opacity="1" stop-color="rgb(100%, 64.46228%, 31.381226%)" offset="0.582031"/><stop stop-opacity="1" stop-color="rgb(100%, 64.105225%, 31.326294%)" offset="0.585938"/><stop stop-opacity="1" stop-color="rgb(100%, 63.748169%, 31.271362%)" offset="0.589844"/><stop stop-opacity="1" stop-color="rgb(100%, 63.391113%, 31.216431%)" offset="0.59375"/><stop stop-opacity="1" stop-color="rgb(100%, 63.034058%, 31.159973%)" offset="0.597656"/><stop stop-opacity="1" stop-color="rgb(100%, 62.677002%, 31.105042%)" offset="0.601562"/><stop stop-opacity="1" stop-color="rgb(100%, 62.319946%, 31.048584%)" offset="0.605469"/><stop stop-opacity="1" stop-color="rgb(100%, 61.962891%, 30.993652%)" offset="0.609375"/><stop stop-opacity="1" stop-color="rgb(100%, 61.605835%, 30.937195%)" offset="0.613281"/><stop stop-opacity="1" stop-color="rgb(100%, 61.248779%, 30.882263%)" offset="0.617188"/><stop stop-opacity="1" stop-color="rgb(100%, 60.891724%, 30.825806%)" offset="0.621094"/><stop stop-opacity="1" stop-color="rgb(100%, 60.534668%, 30.770874%)" offset="0.625"/><stop stop-opacity="1" stop-color="rgb(100%, 60.177612%, 30.714417%)" offset="0.628906"/><stop stop-opacity="1" stop-color="rgb(100%, 59.820557%, 30.659485%)" offset="0.632812"/><stop stop-opacity="1" stop-color="rgb(100%, 59.463501%, 30.604553%)" offset="0.636719"/><stop stop-opacity="1" stop-color="rgb(100%, 59.106445%, 30.549622%)" offset="0.640625"/><stop stop-opacity="1" stop-color="rgb(100%, 58.74939%, 30.493164%)" offset="0.644531"/><stop stop-opacity="1" stop-color="rgb(100%, 58.392334%, 30.438232%)" offset="0.648438"/><stop stop-opacity="1" stop-color="rgb(100%, 58.035278%, 30.381775%)" offset="0.652344"/><stop stop-opacity="1" stop-color="rgb(100%, 57.678223%, 30.326843%)" offset="0.65625"/><stop stop-opacity="1" stop-color="rgb(100%, 57.321167%, 30.270386%)" offset="0.660156"/><stop stop-opacity="1" stop-color="rgb(100%, 56.964111%, 30.215454%)" offset="0.664062"/><stop stop-opacity="1" stop-color="rgb(100%, 56.910706%, 30.206299%)" offset="0.671875"/><stop stop-opacity="1" stop-color="rgb(100%, 56.858826%, 30.198669%)" offset="0.6875"/><stop stop-opacity="1" stop-color="rgb(100%, 56.858826%, 30.198669%)" offset="0.75"/><stop stop-opacity="1" stop-color="rgb(100%, 56.858826%, 30.198669%)" offset="1"/></linearGradient><clipPath id="b6cdc4b983"><rect x="0" width="1534" y="0" height="560"/></clipPath><clipPath id="b6b214a41c"><path d="M 0 0.980469 L 1533.152344 0.980469 L 1533.152344 560 L 0 560 Z M 0 0.980469 " clip-rule="nonzero"/></clipPath><clipPath id="c7366173fb"><rect x="0" width="1534" y="0" height="560"/></clipPath><clipPath id="6ef6386995"><rect x="0" width="1534" y="0" height="560"/></clipPath><mask id="5287ed1d86"><g filter="url(#20be03d2f6)"><g><g clip-path="url(#6ef6386995)"><g clip-path="url(#b6b214a41c)"><g><g clip-path="url(#c7366173fb)"><g fill="#000000" fill-opacity="1"><g transform="translate(796.68066, 500.812545)"><g><path d="M 87.929688 -80.289062 L 44.410156 -80.289062 L 44.410156 -126.476562 L 8.882812 -126.476562 L 8.882812 0 L 44.410156 0 L 44.410156 -48.671875 L 87.929688 -48.671875 L 87.929688 0 L 123.457031 0 L 123.457031 -126.476562 L 87.929688 -126.476562 Z M 87.929688 -80.289062 "/></g></g></g><g fill="#000000" fill-opacity="1"><g transform="translate(916.578613, 500.812545)"><g><path d="M 64.125 -126.476562 L 8.882812 -126.476562 L 8.882812 0 L 64.125 0 C 109.421875 0 129.671875 -25.933594 129.671875 -63.238281 C 129.671875 -100.542969 109.421875 -126.476562 64.125 -126.476562 Z M 44.410156 -29.84375 L 44.410156 -96.632812 L 63.414062 -96.632812 C 80.289062 -96.632812 92.726562 -87.929688 92.726562 -63.238281 C 92.726562 -38.546875 80.289062 -29.84375 63.414062 -29.84375 Z M 44.410156 -29.84375 "/></g></g></g><g fill="#000000" fill-opacity="1"><g transform="translate(1037.364719, 500.812545)"><g><path d="M 115.816406 -29.664062 C 115.285156 -43.164062 113.152344 -53.824219 98.410156 -59.328125 C 111.910156 -65.371094 118.128906 -76.738281 118.128906 -88.996094 C 118.128906 -108.710938 105.515625 -126.476562 71.054688 -126.476562 L 8.882812 -126.476562 L 8.882812 0 L 44.410156 0 L 44.410156 -43.699219 L 62.882812 -43.699219 C 72.832031 -43.699219 79.582031 -41.566406 80.113281 -27.179688 L 80.644531 -12.789062 C 80.824219 -7.28125 81.535156 -3.375 83.132812 0 L 119.726562 0 C 117.949219 -3.019531 116.707031 -7.460938 116.527344 -12.789062 Z M 44.410156 -98.765625 L 65.726562 -98.765625 C 76.207031 -98.765625 81.535156 -93.257812 81.535156 -84.199219 C 81.535156 -74.960938 76.207031 -69.632812 65.726562 -69.632812 L 44.410156 -69.632812 Z M 44.410156 -98.765625 "/></g></g></g></g></g></g></g></g></g></mask><clipPath id="aec2146cef"><path d="M 441.3125 0.980469 L 1502.164062 0.980469 L 1502.164062 560 L 441.3125 560 Z M 441.3125 0.980469 " clip-rule="nonzero"/></clipPath><clipPath id="b4239a1380"><rect x="0" width="1534" y="0" height="560"/></clipPath><clipPath id="f9a3944865"><rect x="0" width="1534" y="0" height="560"/></clipPath><clipPath id="39635c4046"><rect x="0" width="1535" y="0" height="560"/></clipPath></defs><path fill="#fcc25e" d="M -1.0625 298.699219 C -1.214844 297.566406 -1.441406 295.988281 -1.449219 294.855469 C -1.558594 268.617188 -2.511719 243.898438 1.25 217.914062 C 2.25 211.226562 3.507812 204.589844 5.015625 198 C 6.527344 191.414062 8.289062 184.890625 10.304688 178.4375 C 12.316406 171.984375 14.574219 165.617188 17.078125 159.335938 C 19.582031 153.058594 22.320312 146.882812 25.300781 140.816406 C 28.277344 134.746094 31.484375 128.800781 34.917969 122.980469 C 38.355469 117.15625 42.007812 111.476562 45.882812 105.933594 C 49.753906 100.394531 53.832031 95.007812 58.121094 89.78125 C 62.40625 84.554688 66.890625 79.5 71.566406 74.617188 C 79.921875 65.816406 88.855469 57.644531 98.367188 50.105469 C 107.878906 42.570312 117.875 35.742188 128.355469 29.621094 C 138.835938 23.5 149.695312 18.148438 160.933594 13.566406 C 172.175781 8.984375 183.679688 5.214844 195.453125 2.265625 C 235.851562 -7.679688 264.492188 -5.542969 305.5625 -5.414062 L 393.878906 -5.320312 L 636.601562 -5.136719 C 676.90625 -4.867188 717.214844 -4.878906 757.523438 -5.167969 L 757.523438 143.066406 L 757.699219 184.441406 C 757.722656 191.097656 758.019531 204.1875 756.871094 210.320312 L 756.632812 220.054688 C 757.578125 231.019531 756.910156 251.886719 756.894531 263.425781 L 756.757812 350.390625 C 756.773438 355.109375 755.964844 376.59375 756.648438 379.394531 C 756.710938 385.09375 756.949219 391.808594 756.632812 397.402344 C 755.765625 425.972656 756.570312 454.878906 756.554688 483.46875 C 756.554688 487.90625 756.863281 491.988281 756.523438 496.464844 L 756.167969 498.707031 L 755.980469 755 L 615.546875 891.539062 C 609.195312 897.625 586.953125 922.027344 581.828125 925.316406 C 577.667969 929.808594 574.800781 932.671875 570.242188 936.746094 C 557.808594 949.085938 531.003906 977.667969 517.984375 987.640625 C 513.121094 992.964844 508.042969 997.550781 503.210938 1002.675781 C 483.402344 1023.839844 460.652344 1045.160156 439.976562 1065.613281 C 433.550781 1071.964844 418.378906 1087.175781 411.445312 1092.015625 C 405.21875 1097.921875 399.382812 1104.78125 393.609375 1110.167969 C 383.5 1122.121094 364.925781 1139.160156 353.429688 1150.332031 L 287.28125 1214.882812 C 273.695312 1228.054688 260.457031 1242.042969 246.988281 1255.40625 C 208.308594 1293.246094 169.894531 1331.34375 131.746094 1369.71875 C 116.261719 1385.070312 99.953125 1399.84375 84.558594 1415.328125 C 76.472656 1423.457031 66.910156 1432.085938 59.796875 1441.015625 C 52.394531 1431.289062 43.699219 1420.1875 37.488281 1409.699219 C 19.746094 1379.761719 5.328125 1339.511719 1.585938 1304.859375 C -0.726562 1283.476562 -0.480469 1256.371094 -0.667969 1234.742188 C -0.9375 1196.21875 -1 1157.695312 -0.851562 1119.164062 L -1.15625 1033.710938 C -1.207031 1025.628906 -2.046875 1001.117188 -1.222656 994.40625 L -0.941406 993.214844 C -0.539062 952.035156 -1.441406 910.726562 -1.332031 869.539062 C -1.308594 861.59375 -1.695312 853.25 -0.941406 845.359375 L -0.910156 833.121094 C -1.742188 825.527344 -1.265625 802.238281 -1.230469 793.539062 C -1.132812 769.183594 -1.847656 743.136719 -0.984375 718.902344 L -1.148438 705.765625 C -2.121094 694.253906 -1.164062 665.785156 -1.101562 652.949219 C -1.027344 637.859375 -2.292969 608.578125 -0.980469 594.847656 C -0.757812 590.253906 -0.925781 585.300781 -0.980469 580.675781 C -1.867188 575.601562 -1.375 553.011719 -1.371094 546.769531 L -1.40625 472.480469 L -1.359375 368.664062 C -1.386719 353.617188 -2.234375 326.929688 -1.109375 312.746094 Z M -1.0625 298.699219 " fill-opacity="1" fill-rule="nonzero"/><path fill="#20253b" d="M -1.0625 298.699219 C 8.089844 303.335938 27.847656 317.835938 37.09375 324.292969 L 91.125 361.476562 C 121.453125 382.554688 151.609375 403.875 181.597656 425.4375 C 198.246094 437.238281 215.074219 448.894531 231.355469 461.183594 C 235.285156 464.148438 239.648438 468.984375 238.890625 474.234375 C 237.238281 476.765625 237.050781 476.675781 234.550781 478.207031 C 230.445312 478.492188 227.371094 475.6875 224.070312 473.273438 C 149.753906 418.917969 73.1875 367.039062 -1.109375 312.746094 Z M -0.941406 993.214844 C 21.242188 978.636719 48.996094 955.75 71.125 939.089844 L 176.269531 861.527344 L 216.066406 831.535156 C 222.945312 826.386719 237.539062 811.613281 245.214844 818.867188 C 247.113281 824.820312 242.609375 829.960938 238.101562 833.5 C 222.652344 845.632812 206.375 856.796875 190.535156 868.394531 L 107.558594 928.769531 L 41.242188 975.285156 C 28.539062 984.179688 12.355469 996.496094 -1.019531 1003.417969 L -1.21875 994.40625 Z M -0.910156 833.121094 C 14.640625 825.976562 32.140625 819.402344 48.082031 812.984375 L 118.242188 784.441406 L 165.933594 765.117188 C 174.695312 761.539062 200.675781 747.738281 207.261719 756.113281 C 210.863281 767.546875 196.402344 769.351562 188.191406 772.519531 L 155.605469 785.269531 C 124.46875 797.476562 93.210938 809.539062 62.054688 821.703125 C 41.585938 829.707031 19.144531 836.652344 -0.941406 845.359375 Z M 756.632812 220.054688 C 736.632812 255.671875 714.628906 289.40625 693.59375 324.371094 L 663.707031 373.316406 C 659.101562 380.890625 646.722656 408.324219 636.449219 403.859375 C 629.339844 394.410156 649.660156 367.234375 655.410156 357.851562 C 668.707031 336.222656 682.203125 314.714844 695.894531 293.328125 C 707.988281 275.109375 720.191406 256.964844 732.5 238.894531 C 738.132812 230.613281 744.1875 220.964844 750.546875 213.339844 C 752.171875 211.394531 754.472656 210.832031 756.871094 210.320312 Z M -1.148438 705.765625 C 22.117188 703.761719 43.234375 699.921875 66.273438 696.238281 C 89.464844 692.550781 112.6875 689.078125 135.9375 685.808594 C 150.363281 683.746094 164.867188 681.617188 179.328125 679.824219 C 183.535156 679.300781 186.976562 682.644531 188.472656 686.292969 C 186.699219 696.632812 160.746094 697.21875 151.644531 698.339844 C 139.050781 699.921875 126.472656 701.613281 113.910156 703.414062 L 47.828125 712.394531 C 31.453125 714.667969 15.496094 717.289062 -0.984375 718.902344 Z M -0.980469 580.675781 C 14.425781 583.847656 32.792969 585.480469 48.652344 587.328125 C 91.507812 592.316406 134.085938 598.335938 176.828125 604.007812 C 182.867188 604.808594 188.546875 614.164062 180.128906 617.617188 C 164.789062 619.269531 138.882812 613.113281 124.3125 611.363281 C 82.253906 606.3125 40.894531 599.335938 -0.980469 594.847656 C -0.757812 590.253906 -0.925781 585.300781 -0.980469 580.675781 M 393.609375 1110.167969 C 394.136719 1102.683594 396.773438 1088.878906 398.171875 1081.066406 C 400.8125 1066.652344 403.339844 1052.214844 405.746094 1037.761719 L 417.363281 969.347656 C 418.917969 960.597656 419.609375 933.828125 430.433594 933.84375 C 441.792969 933.851562 434.621094 960.527344 433.472656 967.671875 C 430.902344 984.144531 428.023438 1000.566406 424.835938 1016.933594 C 420.144531 1041.902344 416.300781 1067.054688 411.445312 1092.015625 C 405.21875 1097.921875 399.382812 1104.78125 393.609375 1110.167969 M 756.632812 397.402344 C 748.125 405.777344 703.355469 447.539062 694.800781 447.953125 C 692.988281 447.261719 691.949219 446.652344 690.890625 444.957031 C 689.667969 443 689.390625 439.871094 690.171875 437.660156 C 692.105469 432.183594 748.566406 384.355469 756.648438 379.394531 C 756.710938 385.09375 756.949219 391.808594 756.632812 397.402344 M 503.210938 1002.675781 C 502.140625 992.027344 495.074219 947.660156 498.507812 940.269531 C 499.371094 938.417969 500.972656 936.832031 502.964844 936.234375 C 504.769531 935.691406 506.4375 935.886719 507.996094 936.96875 C 514.890625 941.753906 516.589844 978.1875 517.984375 987.640625 C 513.121094 992.964844 508.042969 997.550781 503.210938 1002.675781 M 756.167969 498.707031 C 750.988281 502.988281 744.6875 508.3125 737.753906 503.472656 C 732.511719 494.59375 750.5625 486.609375 756.445312 483.566406 C 756.339844 487.898438 756.445312 492.136719 756.523438 496.464844 Z M 570.242188 936.746094 C 568.96875 925.324219 571.410156 923.972656 581.828125 925.316406 C 577.667969 929.808594 574.800781 932.671875 570.242188 936.746094 M 474.519531 389.746094 C 617.234375 384.753906 736.964844 496.425781 741.914062 639.140625 C 746.855469 781.855469 635.148438 901.550781 492.429688 906.453125 C 349.777344 911.351562 230.148438 799.707031 225.203125 657.050781 C 220.261719 514.398438 331.871094 394.738281 474.519531 389.746094 " fill-opacity="1" fill-rule="nonzero"/><path fill="#fcc25e" d="M 472.582031 404.488281 C 606.855469 398.617188 720.535156 502.566406 726.671875 636.824219 C 732.808594 771.085938 629.085938 884.96875 494.835938 891.371094 C 360.210938 897.789062 245.941406 793.714844 239.789062 659.078125 C 233.636719 524.441406 337.9375 410.378906 472.582031 404.488281 " fill-opacity="1" fill-rule="nonzero"/><path fill="#20253b" d="M 466.75 436.304688 C 478.914062 434.878906 501.132812 436.242188 513.378906 437.28125 C 471.824219 442.96875 435.960938 449.683594 398.910156 471.96875 C 342.089844 506.144531 304.820312 567.15625 289.546875 630.886719 C 286.921875 642.578125 284.304688 656.953125 282.484375 668.808594 C 280.480469 661.515625 279.488281 655.046875 278.609375 647.550781 C 265.28125 533.894531 359.820312 447.300781 466.75 436.304688 M 291.015625 875.839844 C 301.105469 875.066406 305.238281 881.578125 298.734375 888.839844 C 279.59375 910.214844 260.429688 931.675781 241.808594 953.507812 L 98.921875 1122.035156 C 96.027344 1124.21875 95.386719 1124.691406 92.160156 1123.40625 C 90.484375 1120.433594 90.621094 1117.703125 92.679688 1114.820312 C 97.867188 1107.550781 103.5625 1100.539062 109.09375 1093.515625 C 121.242188 1077.917969 133.53125 1062.433594 145.957031 1047.058594 C 177.246094 1007.800781 209.164062 969.0625 241.710938 930.839844 C 254.800781 915.394531 276.734375 888.035156 291.015625 875.839844 M 356.882812 912.140625 C 365.296875 912.25 368.058594 917.058594 364.9375 924.675781 C 355.601562 947.4375 344.71875 969.246094 333.972656 991.339844 L 299.445312 1063.523438 C 286.601562 1090.765625 273.59375 1117.929688 260.421875 1145.015625 C 251.734375 1163.277344 240.246094 1188.65625 229.964844 1205.863281 C 227.78125 1207.203125 226.585938 1207.460938 224.117188 1206.808594 C 220.160156 1201.5 225.597656 1192.867188 228 1187.339844 C 247.71875 1141.980469 269.332031 1097.535156 290.085938 1052.671875 L 333.5 959.003906 C 337.757812 949.820312 351.007812 917.273438 356.882812 912.140625 M 87.558594 180.105469 C 94.578125 180.84375 102.058594 192.3125 106.992188 197.839844 L 148.351562 244.65625 C 183.507812 284.125 217.984375 324.175781 251.789062 364.808594 C 264.175781 379.472656 277.625 393.355469 289.628906 408.347656 C 294.105469 413.945312 296.660156 418.539062 291.273438 424.238281 C 287.332031 424.273438 284.53125 424.324219 281.703125 421.261719 C 275.960938 415.042969 270.574219 408.492188 265.132812 402.015625 L 223.847656 352.726562 L 151.277344 267.058594 C 130.375 242.835938 109.695312 218.457031 88.828125 194.210938 C 83.9375 188.527344 82.792969 185.964844 87.558594 180.105469 M 214.496094 95.113281 C 216.074219 95.09375 219.933594 94.929688 220.582031 95.894531 C 229.578125 109.300781 245.046875 144.003906 251.304688 156.863281 C 280.332031 216.484375 310.351562 273.402344 339.570312 332.683594 C 346.019531 345.773438 353.933594 360.597656 359.800781 374.066406 C 361.066406 376.972656 359.21875 379.835938 357.699219 382.332031 C 354.941406 383.214844 354.96875 383.117188 352.214844 383.011719 C 348.207031 380.769531 343.757812 372.167969 341.703125 368.027344 C 307.617188 299.203125 273.476562 229.910156 240.722656 160.480469 C 234.371094 147.015625 228.097656 133.519531 221.898438 119.984375 C 218.605469 112.777344 212.050781 102.472656 214.496094 95.113281 M 664.796875 74.386719 C 667.402344 74.648438 667.703125 74.453125 669.804688 76.058594 C 671.925781 80.542969 669.472656 86.882812 668.050781 91.414062 C 655.792969 130.546875 642.417969 169.578125 630.011719 208.621094 L 596.160156 314.929688 C 590.886719 331.191406 585.617188 347.597656 580.109375 363.789062 C 578.613281 368.195312 576.226562 369.367188 572.191406 371.171875 C 567.734375 370.230469 566.808594 370.304688 564.902344 366.082031 C 565.347656 361.253906 566.757812 356.242188 568.238281 351.632812 C 596.304688 264.355469 629.6875 178.863281 657.738281 91.59375 C 659.613281 85.757812 661.148438 79.355469 664.796875 74.386719 M 513.894531 44.597656 L 518.015625 45.0625 C 518.949219 45.765625 519.945312 46.238281 520.429688 47.355469 C 522.214844 51.460938 509.113281 347.621094 506.234375 353.878906 C 504.886719 356.808594 502.601562 357.800781 499.820312 359.011719 C 497.261719 358.117188 494.1875 357.222656 493.195312 354.359375 C 490.578125 346.792969 505.554688 155.570312 507.132812 131.867188 C 508.914062 105.167969 509.613281 78.078125 512.136719 51.472656 C 512.367188 49.011719 512.976562 46.882812 513.894531 44.597656 M 361.289062 48.539062 C 362.765625 48.722656 365.40625 48.636719 366.527344 49.597656 C 369.867188 52.441406 377.820312 101.304688 379.609375 110.445312 C 389.882812 162.875 401.113281 215.167969 412.226562 267.425781 C 416.234375 285.941406 420.105469 304.484375 423.835938 323.058594 C 425.757812 332.609375 427.777344 342.324219 429.261719 351.957031 C 429.957031 356.484375 429.351562 357.527344 426.601562 361.113281 C 418.28125 363.496094 415.894531 357.507812 414.429688 350.53125 C 410.789062 333.15625 407.742188 315.613281 404.507812 298.148438 L 385.5625 197.082031 C 379.101562 163.96875 372.90625 130.804688 366.972656 97.59375 C 364.386719 83.257812 361.617188 68.175781 359.378906 53.710938 C 359.101562 51.910156 360.375 50.042969 361.289062 48.539062 M -0.945312 455.3125 C 8.933594 459.378906 20.8125 462.796875 31.070312 466.460938 C 87.347656 486.578125 142.949219 508.609375 198.792969 529.867188 C 205.875 532.558594 205.976562 537.554688 203.921875 543.695312 C 201.972656 544.597656 199.074219 545.320312 196.980469 544.542969 C 130.859375 519.984375 65.667969 492.007812 -0.964844 468.769531 Z M 1467.195312 86.421875 C 1471.113281 88.269531 1481.566406 103.023438 1484.515625 107.117188 C 1490.53125 115.421875 1496.050781 124.042969 1501.078125 132.980469 C 1506.105469 141.917969 1510.609375 151.113281 1514.582031 160.566406 C 1518.558594 170.019531 1521.980469 179.667969 1524.851562 189.515625 C 1527.722656 199.359375 1530.023438 209.335938 1531.753906 219.441406 C 1536.980469 251.601562 1534.757812 296.570312 1534.589844 330.242188 L 1534.386719 496.082031 L 1533.652344 1219.550781 C 1508.621094 1209.378906 1473.730469 1195.113281 1446.992188 1196.867188 C 1406.648438 1199.515625 1357.503906 1224.375 1319.226562 1239.71875 L 1188.375 1292.804688 C 1170.65625 1300.027344 1151.664062 1308.460938 1133.953125 1315.1875 C 1109.742188 1309.078125 1090.023438 1300.585938 1063.703125 1294.949219 C 1063.074219 1284.3125 1062.742188 1273.660156 1062.703125 1263.007812 C 1067.867188 1259.632812 1082.59375 1250.667969 1085.308594 1246.261719 C 1085.765625 1242.707031 1086.207031 1244.140625 1084.808594 1241.570312 C 1078.367188 1239.410156 1068.601562 1247.949219 1062.609375 1247.285156 L 1061.820312 1245.828125 C 1064.546875 1231.714844 1095.730469 1222.167969 1092.324219 1211.554688 C 1084.652344 1206.175781 1068.828125 1220.371094 1062.828125 1225.078125 C 1062.820312 1220.425781 1062.480469 1216.238281 1062.125 1211.601562 C 1068.550781 1207.777344 1081.964844 1198.503906 1080.363281 1190.03125 C 1075.019531 1185.140625 1065.257812 1195.328125 1061.457031 1198.953125 C 1061.636719 1192.867188 1063.539062 1172.367188 1056.796875 1170.46875 C 1051.703125 1173.96875 1052.066406 1190.984375 1051.804688 1197.132812 C 1047.886719 1193.972656 1034.601562 1181.75 1030.089844 1186.496094 C 1029.972656 1192.976562 1046.59375 1207.925781 1051.828125 1213.597656 C 1051.601562 1217.554688 1051.113281 1221.8125 1050.734375 1225.792969 C 1045.046875 1220.667969 1027.316406 1204.535156 1019.464844 1208.621094 C 1017.53125 1212.878906 1020.117188 1215.582031 1023.214844 1218.570312 C 1031.132812 1226.195312 1040.855469 1233.054688 1049.597656 1239.640625 L 1049.574219 1253.53125 C 1041.484375 1249.328125 1014.875 1236.910156 1006.554688 1238.171875 L 1005.933594 1239.332031 C 1009.671875 1247.871094 1039.90625 1263.101562 1049.707031 1268.527344 C 1049.730469 1276.199219 1049.769531 1283.136719 1049.296875 1290.816406 C 1007.9375 1280.960938 958.988281 1279.257812 917.183594 1287.277344 C 916.414062 1269.632812 917.097656 1247.144531 917.28125 1229.152344 C 927.5625 1220.566406 978.984375 1179.085938 977.140625 1169.316406 C 976.160156 1168.542969 975.609375 1167.730469 974.710938 1168.0625 C 963.507812 1172.179688 922.957031 1199.546875 916.765625 1206.097656 C 916.59375 1198.261719 916.554688 1190.421875 916.65625 1182.585938 C 929.722656 1168.378906 942.320312 1152.855469 953.925781 1137.382812 C 957.050781 1133.214844 963.371094 1126.0625 959.761719 1121.308594 L 957.453125 1121.125 C 948.273438 1128.121094 920.851562 1155.738281 913.015625 1165.113281 C 912.753906 1151.957031 914.449219 1089.832031 909.949219 1081.421875 L 908.710938 1081.429688 C 901.472656 1089.613281 900.738281 1128.53125 899.546875 1141.476562 C 891.121094 1132.582031 877.929688 1113.746094 867.371094 1106.160156 C 866.652344 1105.640625 865.777344 1106.414062 864.714844 1106.957031 C 861.417969 1115.199219 892.59375 1153.769531 898.847656 1162.164062 C 898.902344 1175.269531 898.066406 1189.964844 897.964844 1203.503906 C 890.117188 1197.078125 845.78125 1162.039062 838.355469 1169.050781 C 838.496094 1178.226562 888.753906 1220.667969 897.671875 1230.523438 L 898.445312 1231.390625 C 898.199219 1239.488281 898.105469 1247.59375 898.160156 1255.691406 C 885.617188 1242.683594 865.125 1218.28125 852.011719 1205.160156 C 851.398438 1204.546875 850.933594 1205.035156 849.859375 1205.609375 C 848.007812 1211.941406 863.324219 1235.191406 867.285156 1241.554688 C 860.023438 1238.722656 830.535156 1226.117188 824.480469 1227.222656 C 822.113281 1229.925781 822.59375 1228.488281 822.066406 1231.4375 C 828.042969 1239.179688 884.96875 1262.898438 897.988281 1269.160156 L 897.996094 1290.683594 C 855.433594 1300.121094 812.085938 1314.714844 773.671875 1335.414062 C 772.085938 1311.617188 772.945312 1273.226562 772.976562 1248.382812 L 773.03125 1096.070312 C 772.976562 1012.484375 772.480469 928.777344 773.109375 845.214844 C 773.308594 819.488281 772.859375 791.285156 773.90625 765.800781 C 778.363281 760.070312 790.371094 748.667969 795.898438 743.210938 L 836.914062 702.734375 C 885.3125 654.851562 933.960938 607.222656 982.855469 559.84375 L 1299.503906 250.492188 C 1355.21875 195.925781 1412.285156 141.730469 1467.195312 86.421875 " fill-opacity="1" fill-rule="nonzero"/><path fill="#fbf8f1" d="M 1212.160156 592.417969 L 1213.320312 592.730469 L 1213.523438 593.773438 C 1210.207031 598.261719 1204.160156 603.082031 1200.082031 607.238281 C 1120.636719 688.273438 1123.320312 818.390625 1219.171875 885.890625 C 1270.828125 922.261719 1319.265625 925.953125 1379.839844 915.339844 C 1374.644531 922.507812 1366.242188 930.25 1359.476562 935.917969 C 1352.699219 941.625 1345.59375 946.886719 1338.15625 951.699219 C 1330.71875 956.515625 1323.011719 960.84375 1315.03125 964.691406 C 1307.050781 968.535156 1298.859375 971.863281 1290.457031 974.679688 C 1282.058594 977.496094 1273.515625 979.773438 1264.828125 981.515625 C 1258.269531 982.539062 1251.664062 983.289062 1245.039062 983.738281 C 1238.203125 984.257812 1231.355469 984.4375 1224.503906 984.28125 C 1217.648438 984.121094 1210.816406 983.625 1204.011719 982.792969 C 1197.207031 981.957031 1190.457031 980.789062 1183.765625 979.289062 C 1177.078125 977.789062 1170.476562 975.960938 1163.96875 973.804688 C 1157.457031 971.652344 1151.070312 969.183594 1144.804688 966.398438 C 1138.539062 963.609375 1132.425781 960.523438 1126.464844 957.132812 C 1120.507812 953.742188 1114.730469 950.066406 1109.132812 946.105469 C 1103.535156 942.140625 1098.148438 937.914062 1092.972656 933.417969 C 1051.835938 897.703125 1027.53125 850.789062 1023.578125 796.214844 C 1020.078125 747.859375 1037.875 693.03125 1069.835938 656.609375 C 1095.652344 627.191406 1131.839844 604.578125 1170.445312 597.042969 C 1184.800781 594.238281 1197.621094 593.328125 1212.160156 592.417969 " fill-opacity="1" fill-rule="nonzero"/><path fill="#fff1c4" d="M 972.921875 1222.023438 C 975.957031 1222.601562 976.257812 1223.105469 976.390625 1225.832031 C 972.023438 1235.113281 944.214844 1251.238281 934.980469 1256.9375 C 933.75 1257.371094 934.082031 1257.199219 932.648438 1257.054688 C 932.742188 1253.988281 935.390625 1250.574219 936.953125 1247.917969 C 945.066406 1234.144531 958.460938 1227.71875 972.921875 1222.023438 " fill-opacity="1" fill-rule="nonzero"/><path fill="#fcc25e" d="M 1316.519531 756.5 C 1317.519531 756.207031 1318.535156 756.050781 1319.574219 756.027344 C 1320.613281 756.007812 1321.636719 756.125 1322.648438 756.375 C 1323.65625 756.628906 1324.613281 757.007812 1325.519531 757.515625 C 1326.425781 758.023438 1327.25 758.640625 1327.992188 759.367188 C 1331.011719 762.332031 1332.195312 766.703125 1331.074219 770.777344 C 1330.800781 771.78125 1330.398438 772.730469 1329.871094 773.625 C 1329.34375 774.519531 1328.707031 775.332031 1327.964844 776.054688 C 1327.21875 776.78125 1326.394531 777.398438 1325.484375 777.902344 C 1324.574219 778.40625 1323.617188 778.785156 1322.609375 779.03125 C 1316.441406 780.546875 1310.207031 776.863281 1308.550781 770.738281 C 1306.894531 764.621094 1310.433594 758.296875 1316.519531 756.5 M 1001.425781 605.699219 C 1007.519531 604.40625 1013.542969 608.203125 1015.007812 614.261719 C 1016.476562 620.316406 1012.855469 626.445312 1006.847656 628.089844 C 1005.855469 628.359375 1004.84375 628.496094 1003.8125 628.496094 C 1002.78125 628.496094 1001.769531 628.363281 1000.773438 628.089844 C 999.78125 627.820312 998.839844 627.421875 997.953125 626.898438 C 997.0625 626.375 996.261719 625.742188 995.542969 625.003906 C 994.824219 624.265625 994.214844 623.445312 993.71875 622.542969 C 993.21875 621.640625 992.851562 620.6875 992.605469 619.6875 C 992.363281 618.683594 992.257812 617.667969 992.289062 616.640625 C 992.316406 615.609375 992.480469 614.601562 992.78125 613.613281 C 993.082031 612.628906 993.507812 611.699219 994.058594 610.828125 C 994.605469 609.957031 995.261719 609.171875 996.023438 608.476562 C 996.78125 607.78125 997.621094 607.195312 998.535156 606.726562 C 999.453125 606.253906 1000.414062 605.910156 1001.425781 605.699219 M 1423.089844 872.324219 C 1429.246094 871.457031 1434.953125 875.671875 1435.925781 881.808594 C 1436.902344 887.941406 1432.777344 893.730469 1426.660156 894.808594 C 1422.605469 895.527344 1418.484375 893.996094 1415.875 890.8125 C 1415.234375 890.03125 1414.707031 889.179688 1414.292969 888.257812 C 1413.878906 887.335938 1413.59375 886.375 1413.433594 885.378906 C 1413.277344 884.382812 1413.25 883.378906 1413.359375 882.375 C 1413.464844 881.371094 1413.703125 880.398438 1414.066406 879.457031 C 1414.433594 878.515625 1414.917969 877.640625 1415.519531 876.828125 C 1416.121094 876.015625 1416.816406 875.292969 1417.609375 874.667969 C 1418.402344 874.039062 1419.265625 873.527344 1420.191406 873.128906 C 1421.121094 872.730469 1422.085938 872.464844 1423.089844 872.324219 M 1242.082031 508.09375 C 1248.121094 506.574219 1254.257812 510.21875 1255.816406 516.253906 C 1257.371094 522.285156 1253.769531 528.445312 1247.746094 530.039062 C 1241.664062 531.648438 1235.445312 528.003906 1233.867188 521.917969 C 1232.296875 515.828125 1235.980469 509.625 1242.082031 508.09375 M 892.160156 833.640625 C 895.992188 832.246094 900.28125 833.050781 903.347656 835.738281 C 904.101562 836.398438 904.757812 837.144531 905.308594 837.980469 C 905.863281 838.816406 906.292969 839.710938 906.605469 840.664062 C 906.917969 841.617188 907.097656 842.59375 907.144531 843.59375 C 907.191406 844.597656 907.105469 845.585938 906.886719 846.5625 C 906.671875 847.542969 906.328125 848.472656 905.863281 849.359375 C 905.394531 850.246094 904.816406 851.054688 904.128906 851.785156 C 903.445312 852.511719 902.671875 853.140625 901.816406 853.660156 C 900.960938 854.183594 900.054688 854.582031 899.089844 854.859375 C 893.3125 856.539062 887.242188 853.328125 885.371094 847.605469 C 883.503906 841.878906 886.507812 835.707031 892.160156 833.640625 M 999.964844 989.054688 C 1005.925781 988.21875 1011.445312 992.332031 1012.351562 998.285156 C 1013.25 1004.230469 1009.199219 1009.796875 1003.261719 1010.765625 C 999.359375 1011.40625 995.414062 1009.898438 992.941406 1006.816406 C 990.457031 1003.742188 989.824219 999.570312 991.277344 995.890625 C 992.734375 992.214844 996.046875 989.605469 999.964844 989.054688 M 1405.488281 224.222656 C 1406.339844 223.898438 1407.21875 223.695312 1408.125 223.605469 C 1409.03125 223.515625 1409.933594 223.546875 1410.832031 223.699219 C 1411.730469 223.851562 1412.589844 224.117188 1413.417969 224.496094 C 1414.246094 224.875 1415.007812 225.359375 1415.707031 225.941406 C 1416.40625 226.523438 1417.015625 227.1875 1417.539062 227.933594 C 1418.0625 228.679688 1418.476562 229.480469 1418.789062 230.335938 C 1419.097656 231.191406 1419.289062 232.074219 1419.367188 232.980469 C 1419.441406 233.886719 1419.398438 234.789062 1419.234375 235.683594 C 1419.070312 236.578125 1418.789062 237.4375 1418.398438 238.257812 C 1418.003906 239.082031 1417.511719 239.835938 1416.917969 240.527344 C 1416.324219 241.214844 1415.652344 241.816406 1414.898438 242.328125 C 1414.144531 242.839844 1413.335938 243.242188 1412.476562 243.539062 C 1407.167969 245.367188 1401.375 242.597656 1399.464844 237.320312 C 1397.558594 232.039062 1400.246094 226.207031 1405.488281 224.222656 M 1338.226562 324.675781 C 1343.289062 322.875 1348.863281 325.449219 1350.769531 330.46875 C 1352.6875 335.492188 1350.242188 341.121094 1345.269531 343.148438 C 1344.453125 343.480469 1343.605469 343.699219 1342.734375 343.808594 C 1341.859375 343.914062 1340.984375 343.902344 1340.113281 343.777344 C 1339.242188 343.652344 1338.402344 343.410156 1337.59375 343.0625 C 1336.785156 342.710938 1336.039062 342.257812 1335.347656 341.707031 C 1334.664062 341.15625 1334.058594 340.527344 1333.539062 339.816406 C 1333.023438 339.101562 1332.605469 338.335938 1332.292969 337.511719 C 1331.980469 336.691406 1331.78125 335.839844 1331.695312 334.964844 C 1331.609375 334.085938 1331.636719 333.214844 1331.785156 332.347656 C 1331.929688 331.476562 1332.1875 330.644531 1332.558594 329.84375 C 1332.925781 329.042969 1333.394531 328.308594 1333.960938 327.632812 C 1334.527344 326.957031 1335.171875 326.371094 1335.894531 325.867188 C 1336.621094 325.367188 1337.398438 324.96875 1338.226562 324.675781 M 1362.1875 570.523438 C 1365.5625 569.894531 1369.023438 571.140625 1371.222656 573.777344 C 1371.765625 574.425781 1372.214844 575.132812 1372.566406 575.902344 C 1372.917969 576.667969 1373.164062 577.46875 1373.304688 578.300781 C 1373.445312 579.132812 1373.472656 579.96875 1373.386719 580.808594 C 1373.304688 581.652344 1373.109375 582.464844 1372.808594 583.253906 C 1372.507812 584.042969 1372.109375 584.777344 1371.613281 585.460938 C 1371.117188 586.144531 1370.542969 586.75 1369.882812 587.28125 C 1369.226562 587.808594 1368.511719 588.242188 1367.738281 588.582031 C 1366.964844 588.917969 1366.160156 589.152344 1365.328125 589.273438 C 1360.203125 590.039062 1355.40625 586.554688 1354.546875 581.441406 C 1353.695312 576.328125 1357.085938 571.472656 1362.1875 570.523438 " fill-opacity="1" fill-rule="nonzero"/><path fill="#fff1c4" d="M 1445.402344 1044.171875 C 1448.679688 1043.804688 1451.667969 1046.105469 1452.132812 1049.371094 C 1452.609375 1052.640625 1450.398438 1055.691406 1447.144531 1056.269531 C 1444.953125 1056.65625 1442.71875 1055.8125 1441.324219 1054.078125 C 1440.980469 1053.648438 1440.699219 1053.1875 1440.480469 1052.683594 C 1440.265625 1052.183594 1440.117188 1051.660156 1440.035156 1051.121094 C 1439.957031 1050.578125 1439.953125 1050.035156 1440.019531 1049.492188 C 1440.085938 1048.949219 1440.226562 1048.425781 1440.433594 1047.917969 C 1440.640625 1047.414062 1440.914062 1046.941406 1441.246094 1046.507812 C 1441.582031 1046.074219 1441.964844 1045.695312 1442.402344 1045.363281 C 1442.839844 1045.035156 1443.3125 1044.769531 1443.824219 1044.566406 C 1444.332031 1044.363281 1444.855469 1044.234375 1445.402344 1044.171875 " fill-opacity="1" fill-rule="nonzero"/><path fill="#fcc25e" d="M 1446.054688 426.75 C 1446.375 426.570312 1446.707031 426.425781 1447.054688 426.3125 C 1447.402344 426.199219 1447.757812 426.121094 1448.121094 426.074219 C 1448.484375 426.03125 1448.847656 426.023438 1449.210938 426.046875 C 1449.578125 426.074219 1449.933594 426.136719 1450.289062 426.230469 C 1450.640625 426.328125 1450.980469 426.457031 1451.308594 426.617188 C 1451.636719 426.777344 1451.945312 426.972656 1452.234375 427.191406 C 1452.527344 427.414062 1452.792969 427.664062 1453.035156 427.9375 C 1453.277344 428.210938 1453.492188 428.503906 1453.675781 428.820312 C 1453.859375 429.132812 1454.015625 429.464844 1454.136719 429.808594 C 1454.257812 430.152344 1454.34375 430.507812 1454.394531 430.867188 C 1454.449219 431.230469 1454.464844 431.59375 1454.449219 431.957031 C 1454.429688 432.324219 1454.378906 432.683594 1454.289062 433.039062 C 1454.203125 433.390625 1454.082031 433.734375 1453.925781 434.066406 C 1453.773438 434.398438 1453.589844 434.710938 1453.371094 435.007812 C 1453.15625 435.300781 1452.917969 435.574219 1452.648438 435.824219 C 1452.378906 436.070312 1452.089844 436.292969 1451.78125 436.484375 C 1451.351562 436.746094 1450.898438 436.949219 1450.417969 437.09375 C 1449.9375 437.234375 1449.445312 437.3125 1448.941406 437.324219 C 1448.441406 437.335938 1447.945312 437.277344 1447.460938 437.15625 C 1446.972656 437.035156 1446.507812 436.855469 1446.070312 436.609375 C 1445.632812 436.367188 1445.234375 436.066406 1444.871094 435.71875 C 1444.511719 435.367188 1444.207031 434.972656 1443.949219 434.542969 C 1443.695312 434.109375 1443.5 433.648438 1443.367188 433.164062 C 1443.234375 432.679688 1443.167969 432.1875 1443.167969 431.683594 C 1443.167969 431.183594 1443.234375 430.6875 1443.363281 430.203125 C 1443.496094 429.71875 1443.6875 429.257812 1443.941406 428.824219 C 1444.195312 428.390625 1444.5 427.996094 1444.859375 427.644531 C 1445.21875 427.292969 1445.617188 426.996094 1446.054688 426.75 " fill-opacity="1" fill-rule="nonzero"/><path fill="#fff1c4" d="M 913.101562 707.628906 C 913.429688 707.5 913.769531 707.402344 914.117188 707.339844 C 914.464844 707.277344 914.8125 707.246094 915.167969 707.25 C 915.519531 707.253906 915.871094 707.289062 916.214844 707.359375 C 916.5625 707.429688 916.898438 707.535156 917.222656 707.667969 C 917.550781 707.804688 917.859375 707.96875 918.15625 708.164062 C 918.449219 708.355469 918.726562 708.578125 918.976562 708.824219 C 919.230469 709.070312 919.457031 709.339844 919.660156 709.628906 C 919.859375 709.917969 920.03125 710.226562 920.171875 710.550781 C 920.417969 711.101562 920.566406 711.683594 920.621094 712.285156 C 920.675781 712.886719 920.632812 713.484375 920.492188 714.070312 C 920.351562 714.660156 920.117188 715.210938 919.796875 715.722656 C 919.472656 716.234375 919.078125 716.683594 918.609375 717.066406 C 918.140625 717.449219 917.621094 717.746094 917.054688 717.957031 C 916.488281 718.171875 915.902344 718.285156 915.296875 718.304688 C 914.691406 718.324219 914.097656 718.25 913.519531 718.074219 C 912.941406 717.898438 912.402344 717.636719 911.910156 717.285156 C 911.503906 716.996094 911.144531 716.660156 910.828125 716.273438 C 910.511719 715.886719 910.253906 715.464844 910.050781 715.007812 C 909.851562 714.550781 909.714844 714.078125 909.640625 713.582031 C 909.570312 713.089844 909.5625 712.59375 909.625 712.101562 C 909.6875 711.605469 909.8125 711.128906 910.003906 710.667969 C 910.191406 710.207031 910.441406 709.777344 910.746094 709.386719 C 911.054688 708.992188 911.40625 708.644531 911.804688 708.347656 C 912.203125 708.050781 912.636719 707.808594 913.101562 707.628906 " fill-opacity="1" fill-rule="nonzero"/><path fill="#fcc25e" d="M 1087.609375 526.3125 C 1087.933594 526.164062 1088.269531 526.046875 1088.617188 525.964844 C 1088.964844 525.882812 1089.320312 525.832031 1089.675781 525.820312 C 1090.03125 525.804688 1090.386719 525.824219 1090.742188 525.878906 C 1091.09375 525.933594 1091.4375 526.023438 1091.773438 526.144531 C 1092.109375 526.265625 1092.433594 526.417969 1092.738281 526.605469 C 1093.042969 526.789062 1093.328125 527 1093.59375 527.242188 C 1093.859375 527.480469 1094.097656 527.746094 1094.3125 528.03125 C 1094.523438 528.316406 1094.710938 528.621094 1094.863281 528.945312 C 1095.019531 529.265625 1095.140625 529.601562 1095.230469 529.949219 C 1095.320312 530.292969 1095.375 530.644531 1095.394531 531.003906 C 1095.417969 531.359375 1095.402344 531.714844 1095.355469 532.070312 C 1095.308594 532.421875 1095.226562 532.769531 1095.109375 533.109375 C 1094.992188 533.445312 1094.84375 533.769531 1094.667969 534.078125 C 1094.488281 534.390625 1094.28125 534.679688 1094.046875 534.949219 C 1093.808594 535.21875 1093.550781 535.460938 1093.269531 535.679688 C 1092.984375 535.898438 1092.683594 536.089844 1092.363281 536.246094 C 1091.472656 536.695312 1090.53125 536.886719 1089.539062 536.820312 C 1088.546875 536.757812 1087.636719 536.445312 1086.8125 535.886719 C 1086.40625 535.613281 1086.042969 535.292969 1085.722656 534.921875 C 1085.40625 534.550781 1085.140625 534.144531 1084.929688 533.703125 C 1084.714844 533.261719 1084.566406 532.800781 1084.476562 532.320312 C 1084.390625 531.839844 1084.367188 531.355469 1084.410156 530.867188 C 1084.449219 530.378906 1084.550781 529.90625 1084.71875 529.445312 C 1084.886719 528.984375 1085.109375 528.554688 1085.390625 528.15625 C 1085.671875 527.753906 1086 527.398438 1086.378906 527.085938 C 1086.753906 526.773438 1087.164062 526.515625 1087.609375 526.3125 " fill-opacity="1" fill-rule="nonzero"/><path fill="#fff1c4" d="M 1212.367188 692.042969 C 1212.703125 691.929688 1213.042969 691.84375 1213.394531 691.796875 C 1213.746094 691.746094 1214.097656 691.734375 1214.453125 691.753906 C 1214.808594 691.773438 1215.15625 691.824219 1215.5 691.914062 C 1215.84375 692 1216.175781 692.121094 1216.496094 692.273438 C 1216.816406 692.425781 1217.117188 692.605469 1217.402344 692.816406 C 1217.6875 693.027344 1217.949219 693.265625 1218.1875 693.527344 C 1218.425781 693.789062 1218.636719 694.070312 1218.824219 694.375 C 1219.007812 694.679688 1219.160156 694.996094 1219.28125 695.328125 C 1219.402344 695.664062 1219.492188 696.003906 1219.546875 696.355469 C 1219.601562 696.703125 1219.621094 697.058594 1219.609375 697.410156 C 1219.59375 697.765625 1219.546875 698.117188 1219.464844 698.460938 C 1219.382812 698.804688 1219.269531 699.140625 1219.125 699.460938 C 1218.976562 699.785156 1218.800781 700.089844 1218.59375 700.378906 C 1218.386719 700.667969 1218.15625 700.933594 1217.894531 701.175781 C 1217.636719 701.417969 1217.359375 701.636719 1217.058594 701.824219 C 1216.757812 702.011719 1216.441406 702.167969 1216.113281 702.296875 C 1215.191406 702.652344 1214.246094 702.75 1213.269531 702.589844 C 1212.296875 702.429688 1211.429688 702.039062 1210.671875 701.410156 C 1209.914062 700.777344 1209.363281 700 1209.027344 699.074219 C 1208.6875 698.148438 1208.605469 697.199219 1208.777344 696.230469 C 1208.957031 695.261719 1209.363281 694.402344 1210.007812 693.652344 C 1210.648438 692.902344 1211.433594 692.367188 1212.367188 692.042969 " fill-opacity="1" fill-rule="nonzero"/><path fill="#fcc25e" d="M 1235.324219 378.015625 C 1235.777344 377.808594 1236.246094 377.667969 1236.734375 377.59375 C 1237.222656 377.519531 1237.714844 377.511719 1238.203125 377.570312 C 1238.695312 377.628906 1239.167969 377.753906 1239.625 377.945312 C 1240.082031 378.136719 1240.503906 378.382812 1240.894531 378.691406 C 1241.28125 378.996094 1241.617188 379.351562 1241.90625 379.75 C 1242.199219 380.152344 1242.429688 380.582031 1242.597656 381.046875 C 1242.769531 381.511719 1242.875 381.988281 1242.914062 382.480469 C 1242.953125 382.972656 1242.925781 383.464844 1242.832031 383.949219 C 1242.734375 384.433594 1242.578125 384.894531 1242.351562 385.335938 C 1242.128906 385.777344 1241.851562 386.179688 1241.515625 386.542969 C 1241.179688 386.910156 1240.804688 387.222656 1240.382812 387.480469 C 1239.960938 387.742188 1239.515625 387.941406 1239.039062 388.078125 C 1238.714844 388.167969 1238.386719 388.230469 1238.054688 388.261719 C 1237.71875 388.292969 1237.382812 388.292969 1237.050781 388.257812 C 1236.714844 388.226562 1236.386719 388.164062 1236.0625 388.070312 C 1235.738281 387.976562 1235.429688 387.855469 1235.128906 387.703125 C 1234.828125 387.550781 1234.546875 387.371094 1234.28125 387.167969 C 1234.015625 386.960938 1233.769531 386.734375 1233.546875 386.480469 C 1233.320312 386.230469 1233.125 385.960938 1232.949219 385.671875 C 1232.777344 385.386719 1232.632812 385.082031 1232.515625 384.769531 C 1232.398438 384.453125 1232.3125 384.128906 1232.257812 383.796875 C 1232.203125 383.464844 1232.179688 383.132812 1232.183594 382.796875 C 1232.191406 382.460938 1232.230469 382.128906 1232.300781 381.796875 C 1232.367188 381.46875 1232.46875 381.148438 1232.597656 380.839844 C 1232.726562 380.53125 1232.882812 380.234375 1233.066406 379.953125 C 1233.25 379.671875 1233.460938 379.410156 1233.695312 379.167969 C 1233.925781 378.925781 1234.183594 378.710938 1234.457031 378.515625 C 1234.730469 378.320312 1235.019531 378.152344 1235.324219 378.015625 " fill-opacity="1" fill-rule="nonzero"/><path fill="#fff1c4" d="M 1459.484375 679.902344 C 1467.003906 682.304688 1467.691406 687.03125 1462.597656 692.648438 C 1461.429688 692.308594 1459.4375 691.707031 1458.464844 690.984375 C 1457.730469 690.453125 1457.164062 689.777344 1456.757812 688.96875 C 1456.351562 688.15625 1456.152344 687.296875 1456.164062 686.390625 C 1456.210938 683.75 1457.90625 681.8125 1459.484375 679.902344 M 1308.179688 1103.503906 C 1308.476562 1103.359375 1308.78125 1103.246094 1309.097656 1103.160156 C 1309.417969 1103.074219 1309.738281 1103.019531 1310.066406 1102.996094 C 1310.394531 1102.972656 1310.722656 1102.980469 1311.050781 1103.019531 C 1311.375 1103.058594 1311.695312 1103.125 1312.007812 1103.226562 C 1312.324219 1103.324219 1312.625 1103.453125 1312.914062 1103.609375 C 1313.203125 1103.769531 1313.472656 1103.953125 1313.726562 1104.160156 C 1313.980469 1104.371094 1314.214844 1104.601562 1314.421875 1104.851562 C 1314.632812 1105.105469 1314.816406 1105.375 1314.976562 1105.664062 C 1316.300781 1108.085938 1315.496094 1111.121094 1313.144531 1112.554688 C 1312.746094 1112.800781 1312.324219 1112.988281 1311.875 1113.117188 C 1311.421875 1113.246094 1310.964844 1113.316406 1310.496094 1113.320312 C 1310.027344 1113.324219 1309.570312 1113.265625 1309.117188 1113.148438 C 1308.664062 1113.027344 1308.234375 1112.847656 1307.832031 1112.609375 C 1307.429688 1112.375 1307.0625 1112.089844 1306.738281 1111.753906 C 1306.410156 1111.417969 1306.132812 1111.046875 1305.910156 1110.636719 C 1305.683594 1110.226562 1305.519531 1109.792969 1305.410156 1109.335938 C 1305.304688 1108.878906 1305.257812 1108.417969 1305.277344 1107.953125 C 1305.296875 1107.484375 1305.375 1107.027344 1305.519531 1106.582031 C 1305.660156 1106.136719 1305.859375 1105.71875 1306.113281 1105.328125 C 1306.371094 1104.9375 1306.671875 1104.585938 1307.023438 1104.277344 C 1307.375 1103.964844 1307.757812 1103.710938 1308.179688 1103.503906 " fill-opacity="1" fill-rule="nonzero"/><path fill="#fbf8f1" d="M 831.03125 1016.027344 C 832.835938 1015.65625 834.707031 1016.292969 835.917969 1017.691406 C 836.523438 1018.386719 836.910156 1019.191406 837.078125 1020.097656 C 837.25 1021.003906 837.183594 1021.890625 836.875 1022.757812 C 836.5625 1023.628906 836.050781 1024.363281 835.34375 1024.957031 C 834.636719 1025.550781 833.828125 1025.929688 832.914062 1026.085938 C 830.164062 1026.558594 827.53125 1024.738281 827.019531 1021.988281 C 826.957031 1021.660156 826.925781 1021.328125 826.929688 1020.996094 C 826.929688 1020.664062 826.964844 1020.332031 827.03125 1020.007812 C 827.101562 1019.679688 827.199219 1019.363281 827.328125 1019.058594 C 827.457031 1018.75 827.613281 1018.457031 827.800781 1018.179688 C 827.984375 1017.90625 828.195312 1017.648438 828.433594 1017.414062 C 828.667969 1017.179688 828.925781 1016.96875 829.203125 1016.785156 C 829.480469 1016.601562 829.773438 1016.445312 830.078125 1016.316406 C 830.386719 1016.1875 830.703125 1016.089844 831.03125 1016.027344 M 1123.167969 1101.816406 C 1124.878906 1101.117188 1126.851562 1101.421875 1128.261719 1102.628906 C 1128.605469 1102.925781 1128.90625 1103.261719 1129.15625 1103.640625 C 1129.410156 1104.015625 1129.605469 1104.421875 1129.746094 1104.855469 C 1129.890625 1105.285156 1129.96875 1105.726562 1129.988281 1106.183594 C 1130.007812 1106.636719 1129.964844 1107.082031 1129.863281 1107.527344 C 1129.757812 1107.96875 1129.59375 1108.390625 1129.371094 1108.785156 C 1129.152344 1109.183594 1128.878906 1109.546875 1128.558594 1109.867188 C 1128.238281 1110.191406 1127.878906 1110.464844 1127.484375 1110.691406 C 1127.089844 1110.914062 1126.667969 1111.082031 1126.226562 1111.191406 C 1125.925781 1111.265625 1125.625 1111.308594 1125.316406 1111.328125 C 1125.007812 1111.34375 1124.699219 1111.332031 1124.394531 1111.289062 C 1124.085938 1111.246094 1123.785156 1111.179688 1123.492188 1111.082031 C 1123.199219 1110.984375 1122.917969 1110.859375 1122.648438 1110.707031 C 1122.378906 1110.558594 1122.125 1110.382812 1121.886719 1110.1875 C 1121.652344 1109.988281 1121.433594 1109.769531 1121.238281 1109.53125 C 1121.042969 1109.292969 1120.867188 1109.039062 1120.71875 1108.765625 C 1120.570312 1108.496094 1120.449219 1108.214844 1120.355469 1107.921875 C 1120.160156 1107.328125 1120.082031 1106.71875 1120.117188 1106.097656 C 1120.15625 1105.476562 1120.304688 1104.882812 1120.566406 1104.316406 C 1120.824219 1103.75 1121.179688 1103.253906 1121.628906 1102.820312 C 1122.078125 1102.390625 1122.59375 1102.054688 1123.167969 1101.816406 " fill-opacity="1" fill-rule="nonzero"/><path fill="#fcc25e" d="M 756.371094 780.957031 L 757.359375 1112.414062 L 756.871094 1257.585938 C 756.910156 1281.347656 756.554688 1306.183594 757.59375 1329.820312 C 757.5625 1334.527344 757.738281 1341.371094 757.003906 1345.835938 C 757.011719 1349.289062 756.8125 1359.011719 757.5 1361.824219 C 757.554688 1368.007812 757.714844 1374.457031 757.546875 1380.613281 C 757.40625 1431.667969 756.300781 1484.351562 756.878906 1535.085938 L 411.714844 1534.984375 L 306.0625 1535.070312 C 284.898438 1535.085938 257.691406 1535.796875 237.0625 1533.683594 C 223.03125 1532.117188 209.1875 1529.535156 195.535156 1525.9375 C 181.878906 1522.34375 168.5625 1517.769531 155.578125 1512.222656 C 152.496094 1510.921875 145.234375 1508.042969 143.074219 1506.285156 C 134.613281 1501.910156 128.164062 1499.394531 119.726562 1494.261719 C 105.699219 1485.644531 83.144531 1465.765625 71.367188 1453.902344 L 77.621094 1449.714844 C 89.121094 1439.046875 108.1875 1418.316406 119.921875 1409.542969 C 123.929688 1403.085938 148.183594 1380.78125 154.886719 1373.96875 C 199.570312 1328.492188 244.777344 1283.542969 290.511719 1239.117188 L 554.148438 980.363281 L 685.039062 851.40625 C 708.664062 828.058594 733.324219 804.785156 756.371094 780.957031 " fill-opacity="1" fill-rule="nonzero"/><path fill="#fcc25e" d="M 756.371094 780.957031 L 757.359375 1112.414062 L 756.871094 1257.585938 C 756.910156 1281.347656 756.554688 1306.183594 757.59375 1329.820312 C 737.804688 1319.808594 715.203125 1310.125 694.855469 1300.839844 L 613.507812 1263.433594 C 595.347656 1255.171875 577.117188 1247.066406 558.8125 1239.125 C 521.671875 1222.890625 493.058594 1208.433594 451.71875 1222.890625 C 412.308594 1236.675781 379.695312 1262.257812 343.960938 1283.207031 C 291.300781 1315.726562 239.5 1349.398438 184.5 1377.949219 C 166.066406 1387.519531 139.117188 1401.871094 119.921875 1409.542969 C 123.929688 1403.085938 148.183594 1380.78125 154.886719 1373.96875 C 199.570312 1328.492188 244.777344 1283.542969 290.511719 1239.117188 L 554.148438 980.363281 L 685.039062 851.40625 C 708.664062 828.058594 733.324219 804.785156 756.371094 780.957031 M 143.074219 1506.285156 C 161.5 1499.75 174.363281 1494.191406 193.691406 1488.253906 C 263.097656 1466.917969 325.925781 1468.402344 397.492188 1469.132812 C 424.667969 1469.492188 451.777344 1468.347656 478.828125 1465.699219 C 505.875 1463.054688 532.695312 1458.921875 559.289062 1453.300781 C 585.878906 1447.683594 612.078125 1440.613281 637.886719 1432.09375 C 663.691406 1423.570312 688.949219 1413.648438 713.660156 1402.328125 C 721.488281 1398.804688 752.644531 1385.40625 757.546875 1380.613281 C 757.40625 1431.667969 756.300781 1484.351562 756.878906 1535.085938 L 411.714844 1534.984375 L 306.0625 1535.070312 C 284.898438 1535.085938 257.691406 1535.796875 237.0625 1533.683594 C 223.03125 1532.117188 209.1875 1529.535156 195.535156 1525.941406 C 181.878906 1522.34375 168.5625 1517.769531 155.578125 1512.222656 C 152.496094 1510.921875 145.234375 1508.042969 143.074219 1506.285156 " fill-opacity="1" fill-rule="nonzero"/><path fill="#20253b" d="M 119.921875 1409.542969 C 139.117188 1401.871094 166.066406 1387.519531 184.5 1377.949219 C 239.5 1349.398438 291.300781 1315.722656 343.960938 1283.207031 C 379.695312 1262.257812 412.308594 1236.675781 451.71875 1222.890625 C 493.058594 1208.433594 521.671875 1222.890625 558.8125 1239.125 C 577.117188 1247.066406 595.347656 1255.171875 613.507812 1263.433594 L 694.855469 1300.839844 C 715.203125 1310.125 737.804688 1319.808594 757.59375 1329.820312 C 757.5625 1334.527344 757.738281 1341.371094 757.003906 1345.835938 C 754.21875 1347.316406 753.527344 1348.28125 750.214844 1347.160156 C 735.515625 1342.199219 721.066406 1334.625 706.917969 1328.261719 L 574.316406 1268.132812 C 554.765625 1259.460938 535.464844 1250.25 515.484375 1242.691406 C 485.890625 1231.484375 460.238281 1238.304688 433.316406 1252.6875 C 406.238281 1267.15625 381.171875 1283.460938 355.390625 1299.933594 L 273.503906 1351.464844 C 222.835938 1382.335938 170.429688 1409.902344 116.28125 1434.164062 C 110.601562 1436.6875 81.972656 1449.390625 77.621094 1449.714844 C 89.121094 1439.046875 108.1875 1418.316406 119.921875 1409.542969 M 119.726562 1494.261719 C 128.535156 1489.160156 153.507812 1479.894531 163.515625 1476.316406 C 184.472656 1468.800781 205.855469 1462.824219 227.671875 1458.386719 C 249.484375 1453.945312 271.507812 1451.089844 293.730469 1449.816406 C 340.265625 1447.160156 388.273438 1449.902344 434.757812 1448.238281 C 466.214844 1447.113281 504.316406 1442.933594 535.265625 1437.390625 C 586.839844 1427.964844 636.835938 1413.199219 685.253906 1393.09375 C 705.335938 1384.792969 737.179688 1368.667969 756.414062 1362.179688 L 757.5 1361.824219 C 757.554688 1368.007812 757.714844 1374.457031 757.546875 1380.613281 C 752.644531 1385.40625 721.488281 1398.804688 713.660156 1402.328125 C 688.949219 1413.648438 663.691406 1423.570312 637.886719 1432.09375 C 612.078125 1440.613281 585.878906 1447.683594 559.289062 1453.300781 C 532.695312 1458.921875 505.875 1463.054688 478.828125 1465.699219 C 451.777344 1468.347656 424.667969 1469.492188 397.492188 1469.132812 C 325.925781 1468.398438 263.097656 1466.917969 193.691406 1488.253906 C 174.363281 1494.191406 161.5 1499.75 143.078125 1506.285156 C 134.613281 1501.910156 128.164062 1499.394531 119.726562 1494.261719 M 773.433594 -4.675781 L 1139.261719 -4.351562 L 1225.335938 -4.230469 C 1263.070312 -4.449219 1288.089844 -6.519531 1325.777344 1.242188 C 1368.347656 10.003906 1420.824219 36.519531 1451.621094 67.507812 C 1453.445312 69.34375 1455.226562 71.203125 1456.992188 73.089844 C 1295.792969 228.65625 1135.484375 385.136719 976.066406 542.519531 C 909.742188 607.976562 838.324219 672.902344 773.449219 739.222656 L 773.074219 667.570312 L 773.347656 655.132812 C 772.75 621.441406 773.191406 587.597656 772.859375 553.894531 C 772.78125 545.945312 772.679688 537.414062 773.144531 529.519531 C 773.136719 524.921875 773.339844 520.019531 773.457031 515.394531 C 773.105469 509.023438 773.039062 502.441406 773.097656 496.058594 C 773.347656 466.277344 772.070312 436.039062 773.167969 406.3125 C 772.984375 402.320312 773.316406 396.957031 773.449219 392.859375 L 773.363281 226.667969 L 773.394531 221.449219 Z M 773.433594 -4.675781 " fill-opacity="1" fill-rule="nonzero"/><path fill="#fcc25e" d="M 773.347656 655.132812 C 781.871094 645.292969 791.789062 636.101562 801.171875 627.019531 L 844.789062 585.035156 L 966.378906 466.496094 L 1233.03125 205.457031 C 1245.796875 192.914062 1341.8125 95.804688 1351.339844 91.375 C 1354.429688 91.71875 1353.105469 91.113281 1355.398438 93.375 C 1355.839844 94.953125 1356.597656 96.832031 1355.359375 98.203125 C 1331.675781 124.453125 1295.847656 158.152344 1271.5 181.855469 L 1140.355469 309.988281 L 929.667969 516.988281 C 890.875 555.65625 851.847656 594.085938 812.582031 632.273438 C 802.789062 641.613281 783.730469 660.554688 773.074219 667.570312 Z M 773.457031 515.394531 C 865.652344 426.328125 957.152344 336.554688 1047.957031 246.078125 C 1082.445312 211.261719 1117.273438 176.785156 1152.4375 142.652344 C 1173.410156 121.886719 1194.554688 101.113281 1215.734375 80.523438 C 1217.53125 78.773438 1219.066406 77.585938 1221.574219 77.363281 C 1224.691406 78.328125 1223.648438 77.398438 1225.140625 79.839844 C 1224.816406 84.050781 1221.859375 87.800781 1218.964844 90.761719 C 1197.558594 112.636719 1175.386719 134.144531 1153.609375 155.628906 L 1024.109375 283.824219 L 862.695312 443.472656 C 850.902344 455.085938 783.023438 524.585938 773.144531 529.519531 C 773.136719 524.921875 773.339844 520.019531 773.457031 515.394531 M 773.449219 392.859375 L 971.824219 196.726562 C 1003.136719 165.929688 1033.84375 134.550781 1065.597656 104.183594 C 1068.679688 101.234375 1072.007812 100.882812 1074.292969 104.886719 C 1074 108.382812 1072.273438 110.472656 1069.839844 112.96875 C 1050.160156 133.113281 1029.964844 152.855469 1009.875 172.574219 L 919.472656 262.371094 L 831.171875 350.253906 C 816.429688 365.035156 793.792969 389.292969 778.828125 402.105469 C 777.042969 403.640625 775.152344 405.046875 773.167969 406.3125 C 772.984375 402.320312 773.316406 396.957031 773.449219 392.859375 M 773.394531 221.449219 C 797.363281 195.695312 827.285156 167.222656 852.429688 142.015625 C 861.101562 133.273438 869.714844 124.460938 878.242188 115.578125 C 884.054688 109.511719 895.0625 95.804688 903.175781 94.800781 C 906.328125 96.1875 906.46875 100.957031 904.839844 102.605469 C 863.546875 144.234375 822.351562 186.15625 780.222656 226.972656 C 779.015625 228.140625 778.449219 228.367188 776.914062 228.84375 C 774.769531 228.382812 774.925781 228.28125 773.363281 226.667969 Z M 773.394531 221.449219 " fill-opacity="1" fill-rule="nonzero"/><path fill="#20253b" d="M 964.019531 1301.265625 C 1038.742188 1296.691406 1110.640625 1326.839844 1179.265625 1351.503906 C 1276.394531 1386.410156 1374.707031 1418.679688 1477.460938 1432.164062 C 1472.804688 1439.058594 1467.710938 1445.613281 1462.179688 1451.828125 C 1416.96875 1502.644531 1352.828125 1530.804688 1285.34375 1534.710938 C 1273.792969 1535.355469 1258.222656 1534.464844 1246.050781 1534.417969 L 1161.472656 1534.308594 L 915.734375 1534.324219 C 869.753906 1534.339844 818.753906 1533.289062 773.253906 1535.015625 L 773.503906 1354.554688 C 835.050781 1325.375 895.3125 1304.613281 964.019531 1301.265625 M 1443.066406 1216.867188 C 1471.175781 1212.042969 1508.53125 1229.332031 1533.574219 1241.230469 C 1533.714844 1255.0625 1534.109375 1272.539062 1533.21875 1286.195312 C 1532.464844 1297.78125 1530.957031 1309.265625 1528.695312 1320.652344 C 1526.433594 1332.039062 1523.4375 1343.226562 1519.707031 1354.222656 C 1515.976562 1365.214844 1511.546875 1375.914062 1506.410156 1386.328125 C 1501.273438 1396.738281 1495.480469 1406.769531 1489.027344 1416.417969 C 1469.15625 1412.515625 1448.359375 1410.21875 1427.9375 1406.089844 C 1382.832031 1396.605469 1338.253906 1385.070312 1294.207031 1371.492188 C 1247.277344 1356.636719 1201.746094 1339.734375 1155.320312 1323.6875 C 1174.394531 1318.941406 1194.871094 1308.792969 1213.382812 1301.234375 L 1309.242188 1262.789062 L 1361.832031 1241.507812 C 1389.894531 1230.199219 1412.421875 1219.902344 1443.066406 1216.867188 " fill-opacity="1" fill-rule="nonzero"/><g transform="matrix(1, 0, 0, 1, 0, 976)"><g clip-path="url(#39635c4046)"><g fill="#000000" fill-opacity="1"><g transform="translate(369.472676, 500.812545)"><g><path d="M 108.710938 -119.8125 L 8.882812 -119.8125 L 8.882812 -126.476562 L 15.542969 -126.476562 L 15.542969 0 L 8.882812 0 L 8.882812 -6.660156 L 108.710938 -6.660156 L 108.710938 0 L 102.050781 0 L 102.050781 -31.617188 L 108.710938 -31.617188 L 108.710938 -24.957031 L 37.746094 -24.957031 L 37.746094 -55.15625 L 103.027344 -55.15625 L 103.027344 -48.496094 L 96.367188 -48.496094 L 96.367188 -78.335938 L 103.027344 -78.335938 L 103.027344 -71.675781 L 37.746094 -71.675781 L 37.746094 -101.519531 L 108.710938 -101.519531 L 108.710938 -94.855469 L 102.050781 -94.855469 L 102.050781 -126.476562 L 108.710938 -126.476562 Z M 115.375 -133.136719 L 115.375 -88.195312 L 44.410156 -88.195312 L 44.410156 -94.855469 L 51.070312 -94.855469 L 51.070312 -78.335938 L 44.410156 -78.335938 L 44.410156 -85 L 109.691406 -85 L 109.691406 -41.832031 L 44.410156 -41.832031 L 44.410156 -48.496094 L 51.070312 -48.496094 L 51.070312 -31.617188 L 44.410156 -31.617188 L 44.410156 -38.28125 L 115.375 -38.28125 L 115.375 6.660156 L 2.21875 6.660156 L 2.21875 -133.136719 Z M 115.375 -133.136719 "/></g></g></g><g fill="#000000" fill-opacity="1"><g transform="translate(470.186836, 500.812545)"><g><path d="M 95.355469 3.953125 C 92.003906 -0.597656 90.328125 -7.421875 90.328125 -16.519531 L 90.328125 -65.015625 C 90.328125 -71.984375 87.8125 -77.222656 82.785156 -80.734375 C 76.675781 -85 67.023438 -87.128906 53.824219 -87.128906 C 40.105469 -87.128906 30.03125 -84.824219 23.601562 -80.207031 C 17.925781 -76.136719 14.761719 -69.71875 14.101562 -60.964844 L 7.460938 -61.460938 L 7.460938 -68.125 L 39.789062 -68.125 L 39.789062 -61.460938 L 33.171875 -62.214844 C 33.835938 -68.058594 36.058594 -72.253906 39.84375 -74.804688 C 41.65625 -76.023438 43.847656 -76.875 46.414062 -77.351562 C 48.34375 -77.710938 50.695312 -77.894531 53.46875 -77.894531 C 59.339844 -77.894531 63.792969 -76.730469 66.824219 -74.410156 C 70.058594 -71.929688 71.675781 -68.445312 71.675781 -63.949219 C 71.675781 -55.515625 65.996094 -50.761719 54.632812 -49.679688 L 39.816406 -48.429688 C 28.207031 -47.429688 19.988281 -44.921875 15.160156 -40.90625 C 13.175781 -39.257812 11.714844 -37.285156 10.777344 -34.984375 C 9.808594 -32.621094 9.324219 -29.78125 9.324219 -26.46875 C 9.324219 -19.578125 11.738281 -14.21875 16.558594 -10.386719 C 18.902344 -8.523438 21.730469 -7.09375 25.046875 -6.089844 C 28.496094 -5.050781 32.285156 -4.53125 36.414062 -4.53125 C 42.203125 -4.53125 47.214844 -5.398438 51.445312 -7.136719 C 55.167969 -8.667969 58.136719 -10.8125 60.34375 -13.574219 L 71.324219 -27.296875 L 72.199219 -9.746094 C 72.324219 -7.308594 72.890625 -4.988281 73.90625 -2.792969 L 67.855469 0 L 67.855469 -6.660156 L 100.71875 -6.660156 L 100.71875 0 Z M 113.902344 6.660156 L 63.59375 6.660156 L 61.808594 2.792969 C 60.074219 -0.96875 59.101562 -4.925781 58.894531 -9.082031 L 65.546875 -9.414062 L 70.75 -5.253906 C 67.105469 -0.699219 62.359375 2.78125 56.511719 5.183594 C 50.65625 7.589844 43.957031 8.792969 36.414062 8.792969 C 30.976562 8.792969 25.902344 8.082031 21.199219 6.664062 C 16.253906 5.171875 11.945312 2.964844 8.265625 0.0429688 C 4.34375 -3.078125 1.335938 -6.851562 -0.757812 -11.285156 C -2.917969 -15.855469 -3.996094 -20.917969 -3.996094 -26.46875 C -3.996094 -37.027344 -0.449219 -45.253906 6.644531 -51.152344 C 13.613281 -56.949219 24.300781 -60.464844 38.699219 -61.703125 L 53.371094 -62.941406 C 56.113281 -63.203125 57.871094 -63.585938 58.640625 -64.09375 C 58.566406 -64.042969 58.480469 -63.929688 58.390625 -63.75 C 58.355469 -63.679688 58.335938 -63.628906 58.328125 -63.59375 C 58.34375 -63.671875 58.351562 -63.789062 58.351562 -63.949219 C 58.351562 -64.128906 58.34375 -64.273438 58.328125 -64.378906 L 58.34375 -64.351562 C 58.429688 -64.132812 58.554688 -63.960938 58.71875 -63.835938 C 58.582031 -63.941406 58.238281 -64.058594 57.699219 -64.1875 C 56.632812 -64.441406 55.222656 -64.570312 53.46875 -64.570312 C 50.15625 -64.570312 48.09375 -64.296875 47.285156 -63.753906 C 47.203125 -63.695312 47.117188 -63.578125 47.03125 -63.398438 C 46.753906 -62.824219 46.546875 -61.925781 46.410156 -60.710938 L 45.738281 -54.800781 L 0.28125 -54.800781 L 0.816406 -61.960938 C 2.742188 -87.621094 20.410156 -100.453125 53.824219 -100.453125 C 69.816406 -100.453125 82.011719 -97.523438 90.410156 -91.660156 C 94.855469 -88.558594 98.195312 -84.6875 100.4375 -80.054688 C 102.578125 -75.625 103.648438 -70.613281 103.648438 -65.015625 L 103.648438 -16.519531 C 103.648438 -13.382812 103.910156 -10.644531 104.425781 -8.296875 C 104.867188 -6.300781 105.417969 -4.851562 106.082031 -3.953125 Z M 47.605469 -12.167969 C 42.472656 -12.167969 38.265625 -13.410156 34.988281 -15.898438 C 33.125 -17.3125 31.691406 -19.042969 30.699219 -21.089844 C 29.714844 -23.117188 29.222656 -25.324219 29.222656 -27.710938 C 29.222656 -32.492188 30.886719 -36.296875 34.214844 -39.121094 C 36.988281 -41.472656 40.8125 -42.898438 45.683594 -43.398438 L 56.167969 -44.464844 L 56.84375 -37.835938 L 55.980469 -44.441406 C 57.523438 -44.644531 58.628906 -44.882812 59.300781 -45.160156 C 59.511719 -45.25 59.640625 -45.324219 59.683594 -45.386719 L 71.675781 -61.375 L 71.675781 -36.058594 C 71.675781 -27.925781 69.191406 -21.742188 64.226562 -17.511719 C 60.046875 -13.949219 54.507812 -12.167969 47.605469 -12.167969 Z M 47.605469 -25.492188 C 51.234375 -25.492188 53.894531 -26.210938 55.585938 -27.652344 C 57.429688 -29.222656 58.351562 -32.027344 58.351562 -36.058594 L 58.351562 -41.390625 L 65.015625 -41.390625 L 70.34375 -37.390625 C 68.84375 -35.394531 66.871094 -33.882812 64.421875 -32.863281 C 62.660156 -32.128906 60.421875 -31.585938 57.703125 -31.230469 L 57.609375 -31.21875 L 47.042969 -30.144531 C 44.910156 -29.925781 43.507812 -29.53125 42.832031 -28.957031 C 42.640625 -28.796875 42.542969 -28.378906 42.542969 -27.710938 C 42.542969 -26.230469 44.230469 -25.492188 47.605469 -25.492188 Z M 47.605469 -25.492188 "/></g></g></g><g fill="#000000" fill-opacity="1"><g transform="translate(562.019672, 500.812545)"><g><path d="M 47.960938 -3.820312 C 61.277344 -3.820312 71.40625 -6.078125 78.339844 -10.597656 C 84.4375 -14.570312 87.484375 -20.214844 87.484375 -27.535156 C 87.484375 -33.972656 85.53125 -38.917969 81.628906 -42.371094 C 77.34375 -46.164062 70.429688 -48.726562 60.890625 -50.070312 L 45.285156 -52.195312 C 40.328125 -52.871094 36.601562 -53.96875 34.113281 -55.480469 C 32.183594 -56.648438 30.710938 -58.140625 29.691406 -59.949219 C 28.667969 -61.765625 28.15625 -63.808594 28.15625 -66.082031 C 28.15625 -68.199219 28.597656 -70.136719 29.484375 -71.890625 C 30.464844 -73.832031 31.917969 -75.425781 33.839844 -76.667969 C 36.929688 -78.667969 41.28125 -79.667969 46.894531 -79.667969 C 52.769531 -79.667969 57.433594 -78.535156 60.894531 -76.269531 C 65.578125 -73.199219 67.988281 -68.488281 68.121094 -62.132812 L 61.460938 -61.996094 L 61.460938 -68.65625 L 91.480469 -68.65625 L 91.480469 -61.996094 L 84.832031 -61.582031 C 84.351562 -69.363281 81.742188 -75.257812 77.003906 -79.273438 C 70.824219 -84.511719 60.789062 -87.128906 46.894531 -87.128906 C 33.902344 -87.128906 24.203125 -84.917969 17.796875 -80.492188 C 12.269531 -76.675781 9.503906 -71.101562 9.503906 -63.769531 C 9.503906 -57.542969 11.589844 -52.679688 15.761719 -49.179688 C 20.097656 -45.539062 26.710938 -43.066406 35.605469 -41.761719 L 48.761719 -39.808594 C 55.035156 -38.898438 59.585938 -37.535156 62.425781 -35.722656 C 66.34375 -33.222656 68.300781 -29.605469 68.300781 -24.867188 C 68.300781 -22.632812 67.800781 -20.601562 66.800781 -18.78125 C 65.734375 -16.839844 64.175781 -15.265625 62.125 -14.0625 C 58.964844 -12.207031 54.480469 -11.28125 48.671875 -11.28125 C 45.65625 -11.28125 43.050781 -11.511719 40.863281 -11.972656 C 38.132812 -12.550781 35.792969 -13.527344 33.851562 -14.90625 C 29.90625 -17.699219 27.550781 -22.167969 26.785156 -28.304688 L 33.394531 -29.132812 L 33.394531 -22.46875 L 1.777344 -22.46875 L 1.777344 -29.132812 L 8.417969 -29.640625 C 8.796875 -24.699219 9.8125 -20.597656 11.464844 -17.324219 C 12.992188 -14.304688 15.167969 -11.84375 17.992188 -9.949219 C 24.074219 -5.863281 34.066406 -3.820312 47.960938 -3.820312 Z M 47.960938 9.503906 C 39.863281 9.503906 32.863281 8.882812 26.957031 7.636719 C 20.472656 6.269531 15.007812 4.09375 10.5625 1.113281 C 1.316406 -5.097656 -3.828125 -15.011719 -4.867188 -28.625 L -5.414062 -35.792969 L 39.277344 -35.792969 L 40.003906 -29.957031 C 40.289062 -27.703125 40.804688 -26.304688 41.554688 -25.773438 C 42.65625 -24.992188 45.027344 -24.601562 48.671875 -24.601562 C 52.066406 -24.601562 54.304688 -24.917969 55.378906 -25.550781 L 55.367188 -25.527344 C 55.277344 -25.433594 55.195312 -25.324219 55.121094 -25.195312 C 55.054688 -25.074219 55.011719 -24.957031 54.984375 -24.847656 L 54.976562 -24.867188 C 54.976562 -24.996094 54.972656 -25.078125 54.964844 -25.117188 C 54.984375 -25.027344 55.023438 -24.925781 55.082031 -24.8125 C 55.148438 -24.675781 55.230469 -24.554688 55.324219 -24.460938 C 55.339844 -24.441406 55.355469 -24.425781 55.363281 -24.421875 C 55.339844 -24.441406 55.304688 -24.464844 55.257812 -24.492188 C 54.03125 -25.277344 51.210938 -25.988281 46.804688 -26.628906 L 33.671875 -28.582031 C 22.285156 -30.253906 13.460938 -33.714844 7.195312 -38.972656 C -0.148438 -45.136719 -3.820312 -53.402344 -3.820312 -63.769531 C -3.820312 -69.621094 -2.644531 -74.878906 -0.296875 -79.546875 C 2.085938 -84.289062 5.59375 -88.257812 10.226562 -91.457031 C 18.910156 -97.453125 31.132812 -100.453125 46.894531 -100.453125 C 64.042969 -100.453125 76.953125 -96.78125 85.617188 -89.4375 C 93.246094 -82.972656 97.414062 -73.964844 98.128906 -62.40625 L 98.566406 -55.332031 L 54.9375 -55.332031 L 54.800781 -61.855469 C 54.765625 -63.53125 54.363281 -64.621094 53.59375 -65.125 C 52.351562 -65.941406 50.117188 -66.347656 46.894531 -66.347656 C 45.152344 -66.347656 43.710938 -66.226562 42.570312 -65.984375 C 41.855469 -65.832031 41.359375 -65.664062 41.078125 -65.484375 C 41.171875 -65.546875 41.273438 -65.679688 41.375 -65.882812 C 41.425781 -65.984375 41.460938 -66.074219 41.476562 -66.15625 C 41.476562 -66.15625 41.476562 -66.132812 41.476562 -66.082031 L 41.46875 -66.066406 C 41.433594 -66.203125 41.378906 -66.34375 41.296875 -66.488281 C 41.214844 -66.632812 41.125 -66.757812 41.023438 -66.855469 L 41.027344 -66.867188 C 41.9375 -66.3125 43.957031 -65.824219 47.085938 -65.398438 L 62.742188 -63.261719 C 74.933594 -61.550781 84.171875 -57.914062 90.457031 -52.351562 C 97.355469 -46.246094 100.808594 -37.972656 100.808594 -27.535156 C 100.808594 -21.550781 99.496094 -16.160156 96.875 -11.351562 C 94.289062 -6.617188 90.535156 -2.644531 85.617188 0.5625 C 76.46875 6.523438 63.917969 9.503906 47.960938 9.503906 Z M 47.960938 9.503906 "/></g></g></g><g fill="#000000" fill-opacity="1"><g transform="translate(642.839422, 500.812545)"><g><path d="M 74.644531 -86.023438 C 74.464844 -85.351562 74.195312 -84.355469 73.84375 -83.035156 C 70.523438 -70.683594 68.027344 -61.214844 66.347656 -54.621094 C 63.539062 -43.582031 61.058594 -33.132812 58.910156 -23.273438 L 45.90625 -23.214844 C 41.824219 -41.183594 36.402344 -62.152344 29.648438 -86.121094 L 28.589844 -89.828125 L 34.992188 -91.660156 L 34.992188 -84.996094 L 0 -84.996094 L 0 -91.660156 L 6.285156 -93.871094 L 32.21875 -20.152344 C 33.6875 -15.984375 34.710938 -12.863281 35.285156 -10.792969 C 36.335938 -7.003906 36.859375 -3.703125 36.859375 -0.886719 C 36.859375 4.367188 35.28125 8.539062 32.125 11.625 C 28.722656 14.949219 23.820312 16.609375 17.40625 16.609375 L 8.347656 16.609375 L 8.347656 9.949219 L 15.011719 9.949219 L 15.011719 34.816406 L 8.347656 34.816406 L 8.792969 28.167969 C 12.195312 28.398438 15.898438 28.511719 19.894531 28.511719 C 27.367188 28.511719 33.597656 27.925781 38.59375 26.761719 C 43.265625 25.671875 47.171875 23.988281 50.320312 21.710938 C 53.339844 19.53125 56.007812 16.539062 58.320312 12.742188 C 60.605469 8.996094 62.808594 4.03125 64.929688 -2.160156 L 96.371094 -93.820312 L 102.671875 -91.660156 L 102.671875 -84.996094 L 69.277344 -84.996094 L 69.277344 -91.660156 L 75.703125 -89.90625 L 74.636719 -86 Z M 61.785156 -89.503906 L 64.191406 -98.320312 L 112 -98.320312 L 77.535156 2.160156 C 75.097656 9.265625 72.484375 15.105469 69.695312 19.679688 C 66.449219 25.003906 62.59375 29.28125 58.125 32.511719 C 53.53125 35.832031 48.03125 38.238281 41.621094 39.734375 C 35.628906 41.132812 28.386719 41.832031 19.894531 41.832031 C 15.601562 41.832031 11.605469 41.710938 7.90625 41.464844 L 1.6875 41.046875 L 1.6875 3.285156 L 17.40625 3.285156 C 20.199219 3.285156 22 2.890625 22.808594 2.097656 C 23.292969 1.625 23.535156 0.628906 23.535156 -0.886719 C 23.535156 -2.496094 23.171875 -4.613281 22.445312 -7.238281 C 21.953125 -9.011719 21.023438 -11.84375 19.652344 -15.730469 L -9.40625 -98.320312 L 40.019531 -98.320312 L 42.472656 -89.734375 C 49.289062 -65.546875 54.765625 -44.359375 58.898438 -26.167969 L 52.402344 -24.691406 L 45.894531 -26.109375 C 48.074219 -36.117188 50.589844 -46.71875 53.4375 -57.90625 C 55.128906 -64.558594 57.640625 -74.085938 60.976562 -86.492188 C 61.332031 -87.824219 61.601562 -88.820312 61.777344 -89.480469 Z M 61.785156 -89.503906 "/></g></g></g><g fill="#000000" fill-opacity="1"><g transform="translate(733.08432, 500.812545)"><g/></g></g><g fill="#000000" fill-opacity="1"><g transform="translate(764.878926, 500.812545)"><g/></g></g><g fill="#000000" fill-opacity="1"><g transform="translate(796.68066, 500.812545)"><g><path d="M 87.929688 -73.628906 L 37.746094 -73.628906 L 37.746094 -126.476562 L 44.410156 -126.476562 L 44.410156 -119.8125 L 8.882812 -119.8125 L 8.882812 -126.476562 L 15.542969 -126.476562 L 15.542969 0 L 8.882812 0 L 8.882812 -6.660156 L 44.410156 -6.660156 L 44.410156 0 L 37.746094 0 L 37.746094 -55.332031 L 94.589844 -55.332031 L 94.589844 0 L 87.929688 0 L 87.929688 -6.660156 L 123.457031 -6.660156 L 123.457031 0 L 116.792969 0 L 116.792969 -126.476562 L 123.457031 -126.476562 L 123.457031 -119.8125 L 87.929688 -119.8125 L 87.929688 -126.476562 L 94.589844 -126.476562 L 94.589844 -73.628906 Z M 87.929688 -86.953125 L 87.929688 -80.289062 L 81.269531 -80.289062 L 81.269531 -133.136719 L 130.117188 -133.136719 L 130.117188 6.660156 L 81.269531 6.660156 L 81.269531 -48.671875 L 87.929688 -48.671875 L 87.929688 -42.011719 L 44.410156 -42.011719 L 44.410156 -48.671875 L 51.070312 -48.671875 L 51.070312 6.660156 L 2.21875 6.660156 L 2.21875 -133.136719 L 51.070312 -133.136719 L 51.070312 -80.289062 L 44.410156 -80.289062 L 44.410156 -86.953125 Z M 87.929688 -86.953125 "/></g></g></g><g fill="#000000" fill-opacity="1"><g transform="translate(916.578613, 500.812545)"><g><path d="M 64.125 -119.8125 L 8.882812 -119.8125 L 8.882812 -126.476562 L 15.542969 -126.476562 L 15.542969 0 L 8.882812 0 L 8.882812 -6.660156 L 64.125 -6.660156 C 84.101562 -6.660156 99.085938 -11.855469 109.085938 -22.25 C 118.371094 -31.898438 123.011719 -45.5625 123.011719 -63.238281 C 123.011719 -80.914062 118.371094 -94.578125 109.085938 -104.226562 C 99.085938 -114.617188 84.101562 -119.8125 64.125 -119.8125 Z M 64.125 -133.136719 C 76 -133.136719 86.546875 -131.457031 95.757812 -128.097656 C 104.84375 -124.789062 112.484375 -119.910156 118.6875 -113.464844 C 124.65625 -107.257812 129.132812 -99.769531 132.109375 -90.996094 C 134.925781 -82.699219 136.335938 -73.445312 136.335938 -63.238281 C 136.335938 -53.03125 134.925781 -43.777344 132.109375 -35.476562 C 129.132812 -26.707031 124.65625 -19.21875 118.6875 -13.011719 C 112.484375 -6.566406 104.84375 -1.6875 95.757812 1.625 C 86.546875 4.980469 76 6.660156 64.125 6.660156 L 2.21875 6.660156 L 2.21875 -133.136719 Z M 37.746094 -29.84375 L 37.746094 -103.292969 L 63.414062 -103.292969 C 74.335938 -103.292969 82.910156 -100.160156 89.128906 -93.886719 C 95.96875 -86.988281 99.386719 -76.773438 99.386719 -63.238281 C 99.386719 -49.703125 95.96875 -39.488281 89.128906 -32.589844 C 82.910156 -26.316406 74.335938 -23.179688 63.414062 -23.179688 L 37.746094 -23.179688 Z M 51.070312 -29.84375 L 44.410156 -29.84375 L 44.410156 -36.503906 L 63.414062 -36.503906 C 70.636719 -36.503906 76.054688 -38.328125 79.667969 -41.972656 C 83.933594 -46.269531 86.0625 -53.359375 86.0625 -63.238281 C 86.0625 -73.117188 83.933594 -80.203125 79.667969 -84.503906 C 76.054688 -88.148438 70.636719 -89.972656 63.414062 -89.972656 L 44.410156 -89.972656 L 44.410156 -96.632812 L 51.070312 -96.632812 Z M 51.070312 -29.84375 "/></g></g></g><g fill="#000000" fill-opacity="1"><g transform="translate(1037.364719, 500.812545)"><g><path d="M 109.160156 -29.402344 C 109.023438 -32.949219 108.761719 -35.851562 108.378906 -38.109375 C 107.945312 -40.667969 107.300781 -42.828125 106.449219 -44.589844 C 105.570312 -46.398438 104.390625 -47.949219 102.902344 -49.242188 C 101.160156 -50.757812 98.886719 -52.042969 96.078125 -53.089844 L 80.855469 -58.773438 L 95.6875 -65.410156 C 100.992188 -67.78125 104.992188 -71.109375 107.699219 -75.390625 C 110.210938 -79.363281 111.464844 -83.898438 111.464844 -88.996094 C 111.464844 -97.929688 108.640625 -105.011719 102.988281 -110.242188 C 96.09375 -116.625 85.449219 -119.8125 71.054688 -119.8125 L 8.882812 -119.8125 L 8.882812 -126.476562 L 15.542969 -126.476562 L 15.542969 0 L 8.882812 0 L 8.882812 -6.660156 L 44.410156 -6.660156 L 44.410156 0 L 37.746094 0 L 37.746094 -50.359375 L 62.882812 -50.359375 C 66.097656 -50.359375 68.820312 -50.128906 71.054688 -49.660156 C 74.214844 -49.003906 76.90625 -47.8125 79.117188 -46.09375 C 83.894531 -42.375 86.445312 -36.152344 86.769531 -27.425781 L 87.304688 -13.035156 C 87.449219 -8.542969 88.066406 -5.148438 89.152344 -2.851562 L 83.132812 0 L 83.132812 -6.660156 L 119.726562 -6.660156 L 119.726562 0 L 113.984375 3.378906 C 111.453125 -0.925781 110.082031 -6.242188 109.871094 -12.566406 L 109.164062 -29.382812 Z M 122.472656 -29.945312 L 123.1875 -13.011719 C 123.320312 -8.945312 124.082031 -5.734375 125.46875 -3.378906 L 131.371094 6.660156 L 78.917969 6.660156 L 77.113281 2.851562 C 75.234375 -1.117188 74.191406 -6.246094 73.988281 -12.542969 L 73.457031 -26.929688 C 73.285156 -31.519531 72.445312 -34.402344 70.9375 -35.574219 C 69.6875 -36.550781 67 -37.035156 62.882812 -37.035156 L 44.410156 -37.035156 L 44.410156 -43.699219 L 51.070312 -43.699219 L 51.070312 6.660156 L 2.21875 6.660156 L 2.21875 -133.136719 L 71.054688 -133.136719 C 88.925781 -133.136719 102.589844 -128.765625 112.039062 -120.019531 C 116.398438 -115.984375 119.660156 -111.171875 121.828125 -105.578125 C 123.800781 -100.488281 124.789062 -94.960938 124.789062 -88.996094 C 124.789062 -81.324219 122.847656 -74.417969 118.960938 -68.273438 C 114.824219 -61.722656 108.878906 -56.714844 101.128906 -53.25 L 98.410156 -59.328125 L 100.742188 -65.570312 C 109.160156 -62.425781 115.0625 -57.367188 118.4375 -50.398438 C 119.84375 -47.496094 120.871094 -44.140625 121.515625 -40.332031 C 121.992188 -37.515625 122.3125 -34.046875 122.472656 -29.929688 Z M 44.410156 -105.425781 L 65.726562 -105.425781 C 72.660156 -105.425781 78.132812 -103.519531 82.148438 -99.710938 C 86.179688 -95.878906 88.195312 -90.710938 88.195312 -84.199219 C 88.195312 -77.609375 86.171875 -72.410156 82.125 -68.601562 C 78.136719 -64.847656 72.671875 -62.972656 65.726562 -62.972656 L 37.746094 -62.972656 L 37.746094 -105.425781 Z M 44.410156 -92.101562 L 44.410156 -98.765625 L 51.070312 -98.765625 L 51.070312 -69.632812 L 44.410156 -69.632812 L 44.410156 -76.292969 L 65.726562 -76.292969 C 69.148438 -76.292969 71.570312 -76.964844 72.996094 -78.304688 C 74.246094 -79.480469 74.871094 -81.445312 74.871094 -84.199219 C 74.871094 -86.894531 74.238281 -88.84375 72.972656 -90.046875 C 71.53125 -91.417969 69.113281 -92.101562 65.726562 -92.101562 Z M 44.410156 -92.101562 "/></g></g></g><g fill="#ffffff" fill-opacity="1"><g transform="translate(369.472676, 500.812545)"><g><path d="M 108.710938 -126.476562 L 8.882812 -126.476562 L 8.882812 0 L 108.710938 0 L 108.710938 -31.617188 L 44.410156 -31.617188 L 44.410156 -48.496094 L 103.027344 -48.496094 L 103.027344 -78.335938 L 44.410156 -78.335938 L 44.410156 -94.855469 L 108.710938 -94.855469 Z M 108.710938 -126.476562 "/></g></g></g><g fill="#ffffff" fill-opacity="1"><g transform="translate(470.186836, 500.812545)"><g><path d="M 100.71875 0 C 98.230469 -3.375 96.988281 -9.414062 96.988281 -16.519531 L 96.988281 -65.015625 C 96.988281 -83.132812 83.664062 -93.792969 53.824219 -93.792969 C 23.09375 -93.792969 9.058594 -82.777344 7.460938 -61.460938 L 39.789062 -61.460938 C 40.679688 -69.277344 44.410156 -71.230469 53.46875 -71.230469 C 62.882812 -71.230469 65.015625 -68.035156 65.015625 -63.949219 C 65.015625 -58.976562 61.460938 -57.019531 54 -56.308594 L 39.257812 -55.066406 C 12.433594 -52.757812 2.664062 -42.808594 2.664062 -26.46875 C 2.664062 -7.816406 17.40625 2.132812 36.414062 2.132812 C 50.09375 2.132812 59.863281 -2.308594 65.546875 -9.414062 C 65.726562 -5.863281 66.789062 -2.308594 67.855469 0 Z M 47.605469 -18.828125 C 40.324219 -18.828125 35.882812 -22.203125 35.882812 -27.710938 C 35.882812 -33.21875 39.433594 -36.058594 46.363281 -36.769531 L 56.84375 -37.835938 C 60.929688 -38.367188 63.414062 -39.257812 65.015625 -41.390625 L 65.015625 -36.058594 C 65.015625 -23.09375 57.199219 -18.828125 47.605469 -18.828125 Z M 47.605469 -18.828125 "/></g></g></g><g fill="#ffffff" fill-opacity="1"><g transform="translate(562.019672, 500.812545)"><g><path d="M 47.960938 2.84375 C 77.09375 2.84375 94.144531 -7.992188 94.144531 -27.535156 C 94.144531 -44.585938 83.3125 -53.644531 61.816406 -56.664062 L 46.183594 -58.796875 C 38.367188 -59.863281 34.816406 -61.640625 34.816406 -66.082031 C 34.816406 -70.164062 37.835938 -73.007812 46.894531 -73.007812 C 55.246094 -73.007812 61.285156 -70.519531 61.460938 -61.996094 L 91.480469 -61.996094 C 90.417969 -79.226562 80.289062 -93.792969 46.894531 -93.792969 C 17.941406 -93.792969 2.84375 -82.957031 2.84375 -63.769531 C 2.84375 -46.539062 15.277344 -38.015625 34.640625 -35.171875 L 47.785156 -33.21875 C 58.796875 -31.617188 61.640625 -29.308594 61.640625 -24.867188 C 61.640625 -20.605469 58.265625 -17.941406 48.671875 -17.941406 C 38.722656 -17.941406 34.460938 -20.605469 33.394531 -29.132812 L 1.777344 -29.132812 C 3.550781 -5.863281 17.941406 2.84375 47.960938 2.84375 Z M 47.960938 2.84375 "/></g></g></g><g fill="#ffffff" fill-opacity="1"><g transform="translate(642.839422, 500.812545)"><g><path d="M 68.210938 -87.75 C 63.058594 -68.566406 57.554688 -48.316406 52.402344 -24.691406 C 47.074219 -48.140625 41.566406 -68.390625 36.058594 -87.929688 L 34.992188 -91.660156 L 0 -91.660156 L 25.933594 -17.941406 C 28.066406 -11.902344 30.199219 -5.863281 30.199219 -0.886719 C 30.199219 5.328125 27.179688 9.949219 17.40625 9.949219 L 8.347656 9.949219 L 8.347656 34.816406 C 11.011719 34.992188 13.679688 35.171875 19.894531 35.171875 C 51.691406 35.171875 62.527344 25.402344 71.230469 0 L 102.671875 -91.660156 L 69.277344 -91.660156 Z M 68.210938 -87.75 "/></g></g></g><g fill="#b9b9c3" fill-opacity="1"><g transform="translate(733.08432, 500.812545)"><g/></g></g><g fill="#b9b9c3" fill-opacity="1"><g transform="translate(764.878926, 500.812545)"><g/></g></g><g clip-path="url(#fc57ecbaea)"><g><g clip-path="url(#f9a3944865)"><g clip-path="url(#df0d84d304)"><g mask="url(#5287ed1d86)"><g><g clip-path="url(#b4239a1380)"><g clip-path="url(#aec2146cef)"><path fill="url(#f6fd426be6)" d="M 441.3125 0.980469 L 441.3125 560 L 1502.164062 560 L 1502.164062 0.980469 Z M 441.3125 0.980469 " fill-rule="nonzero"/></g></g></g></g></g></g></g></g></g></g></svg>
