<svg xmlns="http://www.w3.org/2000/svg" xmlns:xlink="http://www.w3.org/1999/xlink" width="2048" zoomAndPan="magnify" viewBox="0 0 1536 1535.999932" height="2048" preserveAspectRatio="xMidYMid meet" version="1.0"><defs><filter x="0%" y="0%" width="100%" height="100%" id="e618642ca3"><feColorMatrix values="0 0 0 0 1 0 0 0 0 1 0 0 0 0 1 0 0 0 1 0" color-interpolation-filters="sRGB"/></filter><g/><clipPath id="8e062310be"><path d="M 153.601562 55.105469 L 1380.601562 55.105469 L 1380.601562 1282.101562 L 153.601562 1282.101562 Z M 153.601562 55.105469 " clip-rule="nonzero"/></clipPath><clipPath id="5349e77c92"><path d="M 57.671875 972.898438 L 1466.921875 972.898438 L 1466.921875 1536 L 57.671875 1536 Z M 57.671875 972.898438 " clip-rule="nonzero"/></clipPath><clipPath id="fb5cb316e2"><path d="M 0.671875 0.898438 L 1409.921875 0.898438 L 1409.921875 564 L 0.671875 564 Z M 0.671875 0.898438 " clip-rule="nonzero"/></clipPath><clipPath id="4c829309bf"><path d="M 405.671875 0.898438 L 1406.921875 0.898438 L 1406.921875 564 L 405.671875 564 Z M 405.671875 0.898438 " clip-rule="nonzero"/></clipPath><linearGradient x1="93.362999" gradientTransform="matrix(0.749758, 0, 0, 0.749888, 335.67211, 336.159945)" y1="99" x2="1428.793049" gradientUnits="userSpaceOnUse" y2="99" id="a35e2d9d43"><stop stop-opacity="1" stop-color="rgb(100%, 87.059021%, 34.899902%)" offset="0"/><stop stop-opacity="1" stop-color="rgb(100%, 87.059021%, 34.899902%)" offset="0.25"/><stop stop-opacity="1" stop-color="rgb(100%, 87.059021%, 34.899902%)" offset="0.3125"/><stop stop-opacity="1" stop-color="rgb(100%, 87.059021%, 34.899902%)" offset="0.328125"/><stop stop-opacity="1" stop-color="rgb(100%, 87.005615%, 34.890747%)" offset="0.335938"/><stop stop-opacity="1" stop-color="rgb(100%, 86.59668%, 34.82666%)" offset="0.339844"/><stop stop-opacity="1" stop-color="rgb(100%, 86.24115%, 34.771729%)" offset="0.34375"/><stop stop-opacity="1" stop-color="rgb(100%, 85.884094%, 34.715271%)" offset="0.347656"/><stop stop-opacity="1" stop-color="rgb(100%, 85.527039%, 34.660339%)" offset="0.351562"/><stop stop-opacity="1" stop-color="rgb(100%, 85.169983%, 34.603882%)" offset="0.355469"/><stop stop-opacity="1" stop-color="rgb(100%, 84.812927%, 34.54895%)" offset="0.359375"/><stop stop-opacity="1" stop-color="rgb(100%, 84.455872%, 34.494019%)" offset="0.363281"/><stop stop-opacity="1" stop-color="rgb(100%, 84.098816%, 34.439087%)" offset="0.367187"/><stop stop-opacity="1" stop-color="rgb(100%, 83.74176%, 34.382629%)" offset="0.371094"/><stop stop-opacity="1" stop-color="rgb(100%, 83.384705%, 34.327698%)" offset="0.375"/><stop stop-opacity="1" stop-color="rgb(100%, 83.027649%, 34.27124%)" offset="0.378906"/><stop stop-opacity="1" stop-color="rgb(100%, 82.670593%, 34.216309%)" offset="0.382812"/><stop stop-opacity="1" stop-color="rgb(100%, 82.313538%, 34.159851%)" offset="0.386719"/><stop stop-opacity="1" stop-color="rgb(100%, 81.956482%, 34.104919%)" offset="0.390625"/><stop stop-opacity="1" stop-color="rgb(100%, 81.599426%, 34.048462%)" offset="0.394531"/><stop stop-opacity="1" stop-color="rgb(100%, 81.242371%, 33.99353%)" offset="0.398438"/><stop stop-opacity="1" stop-color="rgb(100%, 80.885315%, 33.937073%)" offset="0.402344"/><stop stop-opacity="1" stop-color="rgb(100%, 80.528259%, 33.882141%)" offset="0.40625"/><stop stop-opacity="1" stop-color="rgb(100%, 80.171204%, 33.827209%)" offset="0.410156"/><stop stop-opacity="1" stop-color="rgb(100%, 79.814148%, 33.772278%)" offset="0.414063"/><stop stop-opacity="1" stop-color="rgb(100%, 79.457092%, 33.71582%)" offset="0.417969"/><stop stop-opacity="1" stop-color="rgb(100%, 79.100037%, 33.660889%)" offset="0.421875"/><stop stop-opacity="1" stop-color="rgb(100%, 78.742981%, 33.604431%)" offset="0.425781"/><stop stop-opacity="1" stop-color="rgb(100%, 78.385925%, 33.5495%)" offset="0.429688"/><stop stop-opacity="1" stop-color="rgb(100%, 78.02887%, 33.493042%)" offset="0.433594"/><stop stop-opacity="1" stop-color="rgb(100%, 77.671814%, 33.43811%)" offset="0.4375"/><stop stop-opacity="1" stop-color="rgb(100%, 77.314758%, 33.381653%)" offset="0.441406"/><stop stop-opacity="1" stop-color="rgb(100%, 76.957703%, 33.326721%)" offset="0.445312"/><stop stop-opacity="1" stop-color="rgb(100%, 76.600647%, 33.270264%)" offset="0.449219"/><stop stop-opacity="1" stop-color="rgb(100%, 76.243591%, 33.215332%)" offset="0.453125"/><stop stop-opacity="1" stop-color="rgb(100%, 75.886536%, 33.1604%)" offset="0.457031"/><stop stop-opacity="1" stop-color="rgb(100%, 75.52948%, 33.105469%)" offset="0.460937"/><stop stop-opacity="1" stop-color="rgb(100%, 75.172424%, 33.049011%)" offset="0.464844"/><stop stop-opacity="1" stop-color="rgb(100%, 74.815369%, 32.99408%)" offset="0.46875"/><stop stop-opacity="1" stop-color="rgb(100%, 74.458313%, 32.937622%)" offset="0.472656"/><stop stop-opacity="1" stop-color="rgb(100%, 74.101257%, 32.88269%)" offset="0.476562"/><stop stop-opacity="1" stop-color="rgb(100%, 73.744202%, 32.826233%)" offset="0.480469"/><stop stop-opacity="1" stop-color="rgb(100%, 73.387146%, 32.771301%)" offset="0.484375"/><stop stop-opacity="1" stop-color="rgb(100%, 73.03009%, 32.714844%)" offset="0.488281"/><stop stop-opacity="1" stop-color="rgb(100%, 72.673035%, 32.659912%)" offset="0.492188"/><stop stop-opacity="1" stop-color="rgb(100%, 72.315979%, 32.603455%)" offset="0.496094"/><stop stop-opacity="1" stop-color="rgb(100%, 71.958923%, 32.548523%)" offset="0.5"/><stop stop-opacity="1" stop-color="rgb(100%, 71.601868%, 32.493591%)" offset="0.503906"/><stop stop-opacity="1" stop-color="rgb(100%, 71.244812%, 32.43866%)" offset="0.507812"/><stop stop-opacity="1" stop-color="rgb(100%, 70.887756%, 32.382202%)" offset="0.511719"/><stop stop-opacity="1" stop-color="rgb(100%, 70.530701%, 32.327271%)" offset="0.515625"/><stop stop-opacity="1" stop-color="rgb(100%, 70.173645%, 32.270813%)" offset="0.519531"/><stop stop-opacity="1" stop-color="rgb(100%, 69.816589%, 32.215881%)" offset="0.523438"/><stop stop-opacity="1" stop-color="rgb(100%, 69.459534%, 32.159424%)" offset="0.527344"/><stop stop-opacity="1" stop-color="rgb(100%, 69.102478%, 32.104492%)" offset="0.53125"/><stop stop-opacity="1" stop-color="rgb(100%, 68.745422%, 32.048035%)" offset="0.535156"/><stop stop-opacity="1" stop-color="rgb(100%, 68.388367%, 31.993103%)" offset="0.539062"/><stop stop-opacity="1" stop-color="rgb(100%, 68.031311%, 31.936646%)" offset="0.542969"/><stop stop-opacity="1" stop-color="rgb(100%, 67.674255%, 31.881714%)" offset="0.546875"/><stop stop-opacity="1" stop-color="rgb(100%, 67.3172%, 31.826782%)" offset="0.550781"/><stop stop-opacity="1" stop-color="rgb(100%, 66.960144%, 31.771851%)" offset="0.554688"/><stop stop-opacity="1" stop-color="rgb(100%, 66.603088%, 31.715393%)" offset="0.558594"/><stop stop-opacity="1" stop-color="rgb(100%, 66.246033%, 31.660461%)" offset="0.5625"/><stop stop-opacity="1" stop-color="rgb(100%, 65.888977%, 31.604004%)" offset="0.566406"/><stop stop-opacity="1" stop-color="rgb(100%, 65.533447%, 31.549072%)" offset="0.570312"/><stop stop-opacity="1" stop-color="rgb(100%, 65.176392%, 31.492615%)" offset="0.574219"/><stop stop-opacity="1" stop-color="rgb(100%, 64.819336%, 31.437683%)" offset="0.578125"/><stop stop-opacity="1" stop-color="rgb(100%, 64.46228%, 31.381226%)" offset="0.582031"/><stop stop-opacity="1" stop-color="rgb(100%, 64.105225%, 31.326294%)" offset="0.585938"/><stop stop-opacity="1" stop-color="rgb(100%, 63.748169%, 31.271362%)" offset="0.589844"/><stop stop-opacity="1" stop-color="rgb(100%, 63.391113%, 31.216431%)" offset="0.59375"/><stop stop-opacity="1" stop-color="rgb(100%, 63.034058%, 31.159973%)" offset="0.597656"/><stop stop-opacity="1" stop-color="rgb(100%, 62.677002%, 31.105042%)" offset="0.601562"/><stop stop-opacity="1" stop-color="rgb(100%, 62.319946%, 31.048584%)" offset="0.605469"/><stop stop-opacity="1" stop-color="rgb(100%, 61.962891%, 30.993652%)" offset="0.609375"/><stop stop-opacity="1" stop-color="rgb(100%, 61.605835%, 30.937195%)" offset="0.613281"/><stop stop-opacity="1" stop-color="rgb(100%, 61.248779%, 30.882263%)" offset="0.617188"/><stop stop-opacity="1" stop-color="rgb(100%, 60.891724%, 30.825806%)" offset="0.621094"/><stop stop-opacity="1" stop-color="rgb(100%, 60.534668%, 30.770874%)" offset="0.625"/><stop stop-opacity="1" stop-color="rgb(100%, 60.177612%, 30.714417%)" offset="0.628906"/><stop stop-opacity="1" stop-color="rgb(100%, 59.820557%, 30.659485%)" offset="0.632812"/><stop stop-opacity="1" stop-color="rgb(100%, 59.463501%, 30.604553%)" offset="0.636719"/><stop stop-opacity="1" stop-color="rgb(100%, 59.106445%, 30.549622%)" offset="0.640625"/><stop stop-opacity="1" stop-color="rgb(100%, 58.74939%, 30.493164%)" offset="0.644531"/><stop stop-opacity="1" stop-color="rgb(100%, 58.392334%, 30.438232%)" offset="0.648438"/><stop stop-opacity="1" stop-color="rgb(100%, 58.035278%, 30.381775%)" offset="0.652344"/><stop stop-opacity="1" stop-color="rgb(100%, 57.678223%, 30.326843%)" offset="0.65625"/><stop stop-opacity="1" stop-color="rgb(100%, 57.321167%, 30.270386%)" offset="0.660156"/><stop stop-opacity="1" stop-color="rgb(100%, 56.964111%, 30.215454%)" offset="0.664062"/><stop stop-opacity="1" stop-color="rgb(100%, 56.910706%, 30.206299%)" offset="0.671875"/><stop stop-opacity="1" stop-color="rgb(100%, 56.858826%, 30.198669%)" offset="0.6875"/><stop stop-opacity="1" stop-color="rgb(100%, 56.858826%, 30.198669%)" offset="0.75"/><stop stop-opacity="1" stop-color="rgb(100%, 56.858826%, 30.198669%)" offset="1"/></linearGradient><clipPath id="90636d8f8f"><rect x="0" width="1410" y="0" height="564"/></clipPath><clipPath id="dbd06bf668"><path d="M 0.671875 0.898438 L 1409.921875 0.898438 L 1409.921875 564 L 0.671875 564 Z M 0.671875 0.898438 " clip-rule="nonzero"/></clipPath><clipPath id="cad86745c9"><rect x="0" width="1410" y="0" height="564"/></clipPath><clipPath id="4944a000b7"><rect x="0" width="1410" y="0" height="564"/></clipPath><mask id="5a554de575"><g filter="url(#e618642ca3)"><g transform="matrix(1, 0, 0, 1, 0, -0.000000000000113687)"><g clip-path="url(#4944a000b7)"><g clip-path="url(#dbd06bf668)"><g transform="matrix(1, 0, 0, 1, 0, -0.000000000000113687)"><g clip-path="url(#cad86745c9)"><g fill="#000000" fill-opacity="1"><g transform="translate(741.261297, 472.649856)"><g><path d="M 82.988281 -75.78125 L 41.914062 -75.78125 L 41.914062 -119.371094 L 8.382812 -119.371094 L 8.382812 0 L 41.914062 0 L 41.914062 -45.9375 L 82.988281 -45.9375 L 82.988281 0 L 116.519531 0 L 116.519531 -119.371094 L 82.988281 -119.371094 Z M 82.988281 -75.78125 "/></g></g></g><g fill="#000000" fill-opacity="1"><g transform="translate(854.423259, 472.649856)"><g><path d="M 60.523438 -119.371094 L 8.382812 -119.371094 L 8.382812 0 L 60.523438 0 C 103.277344 0 122.386719 -24.476562 122.386719 -59.683594 C 122.386719 -94.894531 103.277344 -119.371094 60.523438 -119.371094 Z M 41.914062 -28.167969 L 41.914062 -91.203125 L 59.851562 -91.203125 C 75.78125 -91.203125 87.515625 -82.988281 87.515625 -59.683594 C 87.515625 -36.382812 75.78125 -28.167969 59.851562 -28.167969 Z M 41.914062 -28.167969 "/></g></g></g><g fill="#000000" fill-opacity="1"><g transform="translate(968.423478, 472.649856)"><g><path d="M 109.3125 -28 C 108.808594 -40.738281 106.796875 -50.800781 92.882812 -55.996094 C 105.621094 -61.695312 111.492188 -72.425781 111.492188 -83.996094 C 111.492188 -102.605469 99.585938 -119.371094 67.0625 -119.371094 L 8.382812 -119.371094 L 8.382812 0 L 41.914062 0 L 41.914062 -41.242188 L 59.351562 -41.242188 C 68.738281 -41.242188 75.109375 -39.230469 75.613281 -25.652344 L 76.117188 -12.070312 C 76.28125 -6.875 76.953125 -3.183594 78.460938 0 L 113 0 C 111.324219 -2.851562 110.148438 -7.042969 109.980469 -12.070312 Z M 41.914062 -93.214844 L 62.03125 -93.214844 C 71.925781 -93.214844 76.953125 -88.019531 76.953125 -79.46875 C 76.953125 -70.75 71.925781 -65.722656 62.03125 -65.722656 L 41.914062 -65.722656 Z M 41.914062 -93.214844 "/></g></g></g></g></g></g></g></g></g></mask><clipPath id="2bbbd24d0c"><path d="M 405.671875 0.898438 L 1406.921875 0.898438 L 1406.921875 564 L 405.671875 564 Z M 405.671875 0.898438 " clip-rule="nonzero"/></clipPath><clipPath id="2958aec9b9"><rect x="0" width="1410" y="0" height="564"/></clipPath><clipPath id="b7d9eb90b9"><rect x="0" width="1410" y="0" height="564"/></clipPath></defs><path fill="#fcc25e" d="M 39.515625 324.660156 C 39.375 323.582031 39.15625 322.082031 39.148438 321.003906 C 39.042969 296.046875 38.140625 272.53125 41.714844 247.8125 C 42.667969 241.453125 43.863281 235.140625 45.300781 228.871094 C 46.738281 222.605469 48.414062 216.402344 50.328125 210.261719 C 52.242188 204.125 54.390625 198.066406 56.773438 192.09375 C 59.152344 186.121094 61.757812 180.246094 64.59375 174.476562 C 67.425781 168.703125 70.476562 163.046875 73.742188 157.507812 C 77.011719 151.96875 80.488281 146.566406 84.171875 141.296875 C 87.855469 136.023438 91.734375 130.902344 95.8125 125.929688 C 99.890625 120.960938 104.15625 116.152344 108.601562 111.507812 C 116.550781 103.132812 125.046875 95.359375 134.097656 88.191406 C 143.144531 81.019531 152.65625 74.523438 162.625 68.703125 C 172.59375 62.878906 182.921875 57.789062 193.613281 53.429688 C 204.304688 49.070312 215.25 45.488281 226.449219 42.679688 C 264.875 33.222656 292.121094 35.253906 331.191406 35.375 L 415.199219 35.46875 L 646.082031 35.640625 C 684.421875 35.898438 722.765625 35.886719 761.109375 35.609375 L 761.109375 176.613281 L 761.273438 215.972656 C 761.296875 222.304688 761.578125 234.757812 760.484375 240.589844 L 760.261719 249.847656 C 761.160156 260.28125 760.523438 280.128906 760.507812 291.105469 L 760.378906 373.828125 C 760.394531 378.316406 759.621094 398.757812 760.273438 401.421875 C 760.335938 406.839844 760.558594 413.226562 760.261719 418.546875 C 759.433594 445.726562 760.199219 473.222656 760.183594 500.417969 C 760.183594 504.640625 760.476562 508.519531 760.15625 512.78125 L 759.816406 514.910156 L 759.636719 758.707031 L 626.054688 888.585938 C 620.011719 894.375 598.855469 917.585938 593.980469 920.714844 C 590.019531 924.988281 587.296875 927.710938 582.960938 931.589844 C 571.128906 943.328125 545.632812 970.515625 533.25 980.003906 C 528.621094 985.066406 523.792969 989.429688 519.199219 994.304688 C 500.355469 1014.433594 478.714844 1034.714844 459.046875 1054.167969 C 452.933594 1060.214844 438.503906 1074.683594 431.90625 1079.289062 C 425.984375 1084.90625 420.433594 1091.429688 414.941406 1096.550781 C 405.324219 1107.921875 387.65625 1124.128906 376.71875 1134.757812 L 313.796875 1196.160156 C 300.875 1208.691406 288.28125 1221.996094 275.46875 1234.710938 C 238.675781 1270.703125 202.136719 1306.941406 165.847656 1343.445312 C 151.117188 1358.046875 135.605469 1372.101562 120.960938 1386.832031 C 113.269531 1394.566406 104.175781 1402.769531 97.40625 1411.265625 C 90.367188 1402.011719 82.09375 1391.453125 76.1875 1381.476562 C 59.3125 1353 45.597656 1314.710938 42.035156 1281.75 C 39.835938 1261.410156 40.070312 1235.625 39.894531 1215.050781 C 39.632812 1178.40625 39.574219 1141.761719 39.71875 1105.109375 L 39.425781 1023.824219 C 39.378906 1016.136719 38.578125 992.820312 39.367188 986.4375 L 39.632812 985.304688 C 40.015625 946.132812 39.15625 906.839844 39.261719 867.660156 C 39.28125 860.101562 38.914062 852.164062 39.632812 844.65625 L 39.664062 833.015625 C 38.871094 825.792969 39.324219 803.640625 39.355469 795.367188 C 39.449219 772.199219 38.769531 747.421875 39.59375 724.371094 L 39.4375 711.875 C 38.511719 700.921875 39.417969 673.84375 39.480469 661.632812 C 39.550781 647.277344 38.34375 619.425781 39.59375 606.363281 C 39.808594 601.996094 39.648438 597.28125 39.59375 592.886719 C 38.75 588.058594 39.21875 566.570312 39.222656 560.632812 L 39.191406 489.964844 L 39.234375 391.210938 C 39.210938 376.898438 38.402344 351.511719 39.472656 338.019531 Z M 39.515625 324.660156 " fill-opacity="1" fill-rule="nonzero"/><path fill="#20253b" d="M 39.515625 324.660156 C 48.222656 329.070312 67.019531 342.863281 75.8125 349.003906 L 127.207031 384.375 C 156.054688 404.425781 184.742188 424.707031 213.265625 445.21875 C 229.105469 456.441406 245.113281 467.53125 260.601562 479.21875 C 264.335938 482.039062 268.488281 486.640625 267.765625 491.632812 C 266.195312 494.042969 266.015625 493.957031 263.640625 495.414062 C 259.734375 495.683594 256.808594 493.015625 253.667969 490.71875 C 182.980469 439.015625 110.148438 389.664062 39.472656 338.019531 Z M 39.632812 985.304688 C 60.734375 971.4375 87.132812 949.664062 108.183594 933.816406 L 208.199219 860.039062 L 246.058594 831.511719 C 252.601562 826.613281 266.484375 812.558594 273.785156 819.457031 C 275.585938 825.121094 271.304688 830.011719 267.015625 833.378906 C 252.320312 844.921875 236.839844 855.539062 221.769531 866.574219 L 142.839844 924 L 79.757812 968.25 C 67.671875 976.710938 52.28125 988.425781 39.558594 995.011719 L 39.367188 986.4375 Z M 39.664062 833.015625 C 54.453125 826.222656 71.097656 819.96875 86.265625 813.863281 L 153 786.710938 L 198.367188 768.328125 C 206.703125 764.925781 231.414062 751.800781 237.683594 759.765625 C 241.109375 770.640625 227.351562 772.355469 219.542969 775.371094 L 188.542969 787.5 C 158.925781 799.109375 129.191406 810.585938 99.558594 822.15625 C 80.082031 829.769531 58.738281 836.378906 39.632812 844.65625 Z M 760.261719 249.847656 C 741.234375 283.730469 720.304688 315.820312 700.296875 349.082031 L 671.867188 395.636719 C 667.484375 402.84375 655.710938 428.9375 645.9375 424.691406 C 639.175781 415.703125 658.503906 389.851562 663.972656 380.925781 C 676.625 360.351562 689.460938 339.894531 702.484375 319.550781 C 713.988281 302.222656 725.59375 284.960938 737.304688 267.773438 C 742.660156 259.894531 748.417969 250.714844 754.46875 243.464844 C 756.015625 241.613281 758.203125 241.078125 760.484375 240.589844 Z M 39.4375 711.875 C 61.566406 709.964844 81.652344 706.316406 103.566406 702.808594 C 125.628906 699.304688 147.71875 695.996094 169.835938 692.890625 C 183.558594 690.925781 197.355469 688.902344 211.109375 687.195312 C 215.109375 686.699219 218.386719 689.878906 219.808594 693.347656 C 218.121094 703.183594 193.433594 703.742188 184.777344 704.808594 C 172.796875 706.3125 160.832031 707.921875 148.882812 709.636719 L 86.023438 718.179688 C 70.445312 720.339844 55.269531 722.835938 39.59375 724.371094 Z M 39.597656 592.886719 C 54.25 595.902344 71.722656 597.457031 86.808594 599.210938 C 127.574219 603.957031 168.074219 609.683594 208.730469 615.078125 C 214.476562 615.839844 219.878906 624.738281 211.871094 628.023438 C 197.28125 629.59375 172.636719 623.742188 158.777344 622.078125 C 118.769531 617.269531 79.429688 610.632812 39.59375 606.363281 C 39.808594 601.996094 39.648438 597.28125 39.59375 592.886719 M 414.941406 1096.550781 C 415.441406 1089.433594 417.949219 1076.300781 419.28125 1068.871094 C 421.792969 1055.160156 424.195312 1041.425781 426.484375 1027.679688 L 437.535156 962.601562 C 439.015625 954.277344 439.671875 928.816406 449.96875 928.828125 C 460.777344 928.835938 453.953125 954.210938 452.859375 961.003906 C 450.414062 976.675781 447.675781 992.296875 444.644531 1007.863281 C 440.183594 1031.617188 436.527344 1055.542969 431.90625 1079.289062 C 425.984375 1084.90625 420.433594 1091.429688 414.941406 1096.550781 M 760.261719 418.546875 C 752.167969 426.515625 709.578125 466.242188 701.441406 466.632812 C 699.71875 465.976562 698.730469 465.394531 697.722656 463.785156 C 696.5625 461.921875 696.296875 458.945312 697.039062 456.84375 C 698.878906 451.632812 752.585938 406.136719 760.273438 401.421875 C 760.335938 406.839844 760.558594 413.226562 760.261719 418.546875 M 519.199219 994.304688 C 518.179688 984.171875 511.457031 941.96875 514.722656 934.941406 C 515.542969 933.179688 517.066406 931.671875 518.960938 931.101562 C 520.679688 930.585938 522.269531 930.773438 523.75 931.800781 C 530.308594 936.351562 531.921875 971.011719 533.25 980.003906 C 528.621094 985.066406 523.792969 989.429688 519.199219 994.304688 M 759.816406 514.910156 C 754.890625 518.984375 748.894531 524.046875 742.300781 519.445312 C 737.3125 511 754.484375 503.40625 760.078125 500.507812 C 759.984375 504.628906 760.078125 508.664062 760.15625 512.78125 Z M 582.960938 931.589844 C 581.75 920.722656 584.070312 919.441406 593.980469 920.714844 C 590.019531 924.988281 587.296875 927.710938 582.960938 931.589844 M 491.90625 411.265625 C 627.660156 406.515625 741.550781 512.742188 746.257812 648.5 C 750.960938 784.253906 644.703125 898.109375 508.941406 902.773438 C 373.246094 907.433594 259.453125 801.234375 254.75 665.535156 C 250.046875 529.839844 356.210938 416.011719 491.90625 411.265625 " fill-opacity="1" fill-rule="nonzero"/><path fill="#fcc25e" d="M 490.0625 425.289062 C 617.789062 419.703125 725.921875 518.582031 731.761719 646.296875 C 737.597656 774.007812 638.933594 882.335938 511.230469 888.425781 C 383.171875 894.53125 274.476562 795.53125 268.625 667.464844 C 262.769531 539.394531 361.980469 430.890625 490.0625 425.289062 " fill-opacity="1" fill-rule="nonzero"/><path fill="#20253b" d="M 484.511719 455.554688 C 496.085938 454.195312 517.222656 455.496094 528.867188 456.484375 C 489.34375 461.894531 455.226562 468.28125 419.984375 489.476562 C 365.933594 521.988281 330.480469 580.023438 315.953125 640.644531 C 313.453125 651.765625 310.964844 665.441406 309.234375 676.71875 C 307.328125 669.78125 306.386719 663.628906 305.550781 656.496094 C 292.871094 548.386719 382.796875 466.011719 484.511719 455.554688 M 317.351562 873.652344 C 326.949219 872.917969 330.878906 879.113281 324.691406 886.019531 C 306.484375 906.351562 288.257812 926.765625 270.542969 947.535156 L 134.625 1107.839844 C 131.871094 1109.917969 131.261719 1110.367188 128.191406 1109.144531 C 126.601562 1106.316406 126.730469 1103.722656 128.6875 1100.976562 C 133.621094 1094.0625 139.042969 1087.394531 144.300781 1080.710938 C 155.855469 1065.875 167.546875 1051.144531 179.367188 1036.523438 C 209.128906 999.179688 239.492188 962.328125 270.449219 925.972656 C 282.898438 911.28125 303.765625 885.253906 317.351562 873.652344 M 380.007812 908.183594 C 388.007812 908.289062 390.636719 912.863281 387.664062 920.105469 C 378.789062 941.761719 368.433594 962.503906 358.210938 983.519531 L 325.367188 1052.183594 C 313.152344 1078.097656 300.777344 1103.9375 288.246094 1129.703125 C 279.984375 1147.074219 269.058594 1171.214844 259.277344 1187.578125 C 257.199219 1188.855469 256.0625 1189.101562 253.714844 1188.480469 C 249.949219 1183.433594 255.125 1175.21875 257.410156 1169.960938 C 276.164062 1126.816406 296.722656 1084.539062 316.46875 1041.863281 L 357.765625 952.761719 C 361.8125 944.023438 374.417969 913.066406 380.007812 908.183594 M 123.816406 211.847656 C 130.496094 212.550781 137.609375 223.460938 142.300781 228.71875 L 181.640625 273.25 C 215.085938 310.796875 247.882812 348.894531 280.035156 387.546875 C 291.820312 401.492188 304.613281 414.699219 316.03125 428.960938 C 320.292969 434.285156 322.722656 438.652344 317.597656 444.078125 C 313.84375 444.109375 311.183594 444.15625 308.492188 441.242188 C 303.03125 435.328125 297.90625 429.097656 292.726562 422.933594 L 253.457031 376.050781 L 184.425781 294.558594 C 164.546875 271.519531 144.875 248.332031 125.023438 225.265625 C 120.371094 219.859375 119.285156 217.421875 123.816406 211.847656 M 244.5625 131 C 246.0625 130.984375 249.734375 130.828125 250.351562 131.746094 C 258.910156 144.5 273.621094 177.511719 279.578125 189.738281 C 307.191406 246.453125 335.742188 300.59375 363.535156 356.988281 C 369.671875 369.4375 377.199219 383.539062 382.78125 396.351562 C 383.984375 399.117188 382.226562 401.839844 380.785156 404.214844 C 378.160156 405.054688 378.183594 404.960938 375.566406 404.859375 C 371.75 402.726562 367.519531 394.546875 365.566406 390.605469 C 333.140625 325.140625 300.664062 259.222656 269.507812 193.179688 C 263.46875 180.375 257.5 167.535156 251.605469 154.660156 C 248.46875 147.804688 242.234375 138.003906 244.5625 131 M 672.902344 111.285156 C 675.378906 111.535156 675.667969 111.347656 677.667969 112.875 C 679.683594 117.140625 677.347656 123.171875 676 127.484375 C 664.339844 164.707031 651.613281 201.835938 639.8125 238.976562 L 607.613281 340.097656 C 602.597656 355.566406 597.582031 371.171875 592.34375 386.574219 C 590.921875 390.765625 588.652344 391.878906 584.8125 393.597656 C 580.574219 392.703125 579.695312 392.773438 577.882812 388.757812 C 578.304688 384.164062 579.644531 379.394531 581.054688 375.007812 C 607.75 291.992188 639.503906 210.667969 666.1875 127.652344 C 667.972656 122.101562 669.433594 116.011719 672.902344 111.285156 M 529.359375 82.949219 L 533.277344 83.390625 C 534.167969 84.058594 535.113281 84.511719 535.574219 85.570312 C 537.273438 89.480469 524.8125 371.195312 522.074219 377.148438 C 520.792969 379.933594 518.617188 380.875 515.96875 382.027344 C 513.535156 381.179688 510.613281 380.332031 509.671875 377.605469 C 507.179688 370.40625 521.425781 188.511719 522.929688 165.960938 C 524.621094 140.566406 525.285156 114.796875 527.6875 89.488281 C 527.90625 87.148438 528.484375 85.125 529.359375 82.949219 M 384.195312 86.699219 C 385.601562 86.875 388.113281 86.792969 389.179688 87.703125 C 392.359375 90.414062 399.921875 136.890625 401.625 145.585938 C 411.398438 195.460938 422.078125 245.203125 432.648438 294.910156 C 436.464844 312.523438 440.144531 330.164062 443.695312 347.828125 C 445.519531 356.914062 447.441406 366.15625 448.855469 375.320312 C 449.515625 379.625 448.941406 380.617188 446.324219 384.027344 C 438.410156 386.292969 436.136719 380.597656 434.746094 373.964844 C 431.28125 357.433594 428.382812 340.746094 425.308594 324.136719 L 407.285156 227.996094 C 401.140625 196.5 395.246094 164.953125 389.605469 133.363281 C 387.140625 119.726562 384.507812 105.378906 382.378906 91.621094 C 382.117188 89.90625 383.328125 88.128906 384.195312 86.699219 M 39.628906 473.636719 C 49.023438 477.503906 60.324219 480.753906 70.082031 484.242188 C 123.617188 503.375 176.503906 524.332031 229.625 544.550781 C 236.359375 547.113281 236.457031 551.867188 234.503906 557.707031 C 232.648438 558.566406 229.890625 559.253906 227.902344 558.515625 C 165.003906 535.152344 102.992188 508.539062 39.609375 486.433594 Z M 1436.167969 122.734375 C 1439.894531 124.488281 1449.839844 138.527344 1452.644531 142.417969 C 1458.367188 150.320312 1463.617188 158.523438 1468.398438 167.023438 C 1473.183594 175.527344 1477.464844 184.273438 1481.246094 193.265625 C 1485.027344 202.257812 1488.28125 211.433594 1491.015625 220.800781 C 1493.746094 230.164062 1495.933594 239.652344 1497.578125 249.269531 C 1502.550781 279.859375 1500.433594 322.632812 1500.277344 354.664062 L 1500.082031 512.414062 L 1499.386719 1200.601562 C 1475.574219 1190.925781 1442.386719 1177.359375 1416.953125 1179.023438 C 1378.574219 1181.542969 1331.828125 1205.191406 1295.414062 1219.785156 L 1170.945312 1270.28125 C 1154.09375 1277.152344 1136.023438 1285.175781 1119.179688 1291.574219 C 1096.148438 1285.761719 1077.390625 1277.683594 1052.355469 1272.324219 C 1051.753906 1262.203125 1051.441406 1252.074219 1051.402344 1241.941406 C 1056.316406 1238.730469 1070.324219 1230.203125 1072.90625 1226.011719 C 1073.339844 1222.628906 1073.761719 1223.992188 1072.433594 1221.546875 C 1066.304688 1219.492188 1057.011719 1227.613281 1051.3125 1226.984375 L 1050.5625 1225.597656 C 1053.15625 1212.171875 1082.820312 1203.089844 1079.578125 1192.996094 C 1072.28125 1187.878906 1057.230469 1201.378906 1051.523438 1205.855469 C 1051.515625 1201.433594 1051.191406 1197.449219 1050.855469 1193.039062 C 1056.96875 1189.402344 1069.726562 1180.582031 1068.203125 1172.519531 C 1063.117188 1167.871094 1053.832031 1177.558594 1050.21875 1181.011719 C 1050.390625 1175.21875 1052.199219 1155.71875 1045.785156 1153.914062 C 1040.941406 1157.242188 1041.285156 1173.425781 1041.039062 1179.277344 C 1037.308594 1176.269531 1024.671875 1164.644531 1020.382812 1169.160156 C 1020.269531 1175.324219 1036.078125 1189.546875 1041.058594 1194.9375 C 1040.84375 1198.703125 1040.378906 1202.753906 1040.015625 1206.539062 C 1034.609375 1201.664062 1017.742188 1186.320312 1010.273438 1190.203125 C 1008.433594 1194.253906 1010.894531 1196.828125 1013.84375 1199.667969 C 1021.371094 1206.921875 1030.621094 1213.449219 1038.9375 1219.710938 L 1038.914062 1232.925781 C 1031.21875 1228.925781 1005.90625 1217.113281 997.996094 1218.316406 L 997.402344 1219.417969 C 1000.957031 1227.539062 1029.71875 1242.03125 1039.042969 1247.191406 C 1039.066406 1254.488281 1039.101562 1261.085938 1038.652344 1268.390625 C 999.308594 1259.015625 952.746094 1257.398438 912.980469 1265.023438 C 912.246094 1248.238281 912.898438 1226.851562 913.070312 1209.734375 C 922.851562 1201.566406 971.765625 1162.109375 970.011719 1152.816406 C 969.082031 1152.082031 968.558594 1151.308594 967.703125 1151.625 C 957.042969 1155.539062 918.472656 1181.574219 912.585938 1187.804688 C 912.417969 1180.351562 912.382812 1172.894531 912.480469 1165.441406 C 924.90625 1151.925781 936.890625 1137.15625 947.933594 1122.441406 C 950.902344 1118.476562 956.917969 1111.671875 953.480469 1107.148438 L 951.285156 1106.976562 C 942.554688 1113.628906 916.46875 1139.902344 909.015625 1148.820312 C 908.765625 1136.300781 910.378906 1077.210938 906.097656 1069.207031 L 904.917969 1069.214844 C 898.035156 1077 897.335938 1114.019531 896.203125 1126.335938 C 888.1875 1117.875 875.640625 1099.957031 865.597656 1092.742188 C 864.914062 1092.246094 864.082031 1092.984375 863.070312 1093.5 C 859.933594 1101.335938 889.589844 1138.027344 895.539062 1146.015625 C 895.589844 1158.480469 894.792969 1172.460938 894.695312 1185.335938 C 887.234375 1179.226562 845.0625 1145.894531 837.996094 1152.5625 C 838.132812 1161.292969 885.9375 1201.664062 894.417969 1211.039062 L 895.15625 1211.863281 C 894.921875 1219.566406 894.832031 1227.277344 894.882812 1234.980469 C 882.953125 1222.605469 863.460938 1199.390625 850.988281 1186.914062 C 850.402344 1186.328125 849.960938 1186.792969 848.941406 1187.339844 C 847.175781 1193.363281 861.75 1215.480469 865.515625 1221.53125 C 858.605469 1218.839844 830.558594 1206.847656 824.796875 1207.898438 C 822.546875 1210.46875 823.003906 1209.105469 822.503906 1211.910156 C 828.1875 1219.273438 882.335938 1241.835938 894.71875 1247.789062 L 894.726562 1268.265625 C 854.242188 1277.242188 813.007812 1291.125 776.46875 1310.8125 C 774.960938 1288.175781 775.777344 1251.660156 775.808594 1228.027344 L 775.859375 1083.140625 C 775.808594 1003.636719 775.335938 924.007812 775.933594 844.523438 C 776.121094 820.050781 775.695312 793.222656 776.691406 768.980469 C 780.929688 763.53125 792.351562 752.683594 797.609375 747.492188 L 836.625 708.992188 C 882.664062 663.445312 928.9375 618.136719 975.449219 573.066406 L 1276.65625 278.804688 C 1329.652344 226.898438 1383.9375 175.347656 1436.167969 122.734375 " fill-opacity="1" fill-rule="nonzero"/><path fill="#fbf8f1" d="M 1193.574219 604.054688 L 1194.675781 604.347656 L 1194.871094 605.34375 C 1191.710938 609.613281 1185.960938 614.199219 1182.082031 618.152344 C 1106.511719 695.234375 1109.0625 819.007812 1200.238281 883.214844 C 1249.378906 917.8125 1295.453125 921.324219 1353.074219 911.226562 C 1348.132812 918.042969 1340.136719 925.410156 1333.703125 930.800781 C 1327.257812 936.230469 1320.496094 941.234375 1313.421875 945.816406 C 1306.347656 950.394531 1299.015625 954.511719 1291.425781 958.167969 C 1283.832031 961.828125 1276.042969 964.996094 1268.050781 967.671875 C 1260.0625 970.351562 1251.933594 972.519531 1243.671875 974.175781 C 1237.433594 975.148438 1231.148438 975.863281 1224.847656 976.289062 C 1218.34375 976.785156 1211.832031 976.953125 1205.3125 976.804688 C 1198.789062 976.652344 1192.292969 976.183594 1185.820312 975.390625 C 1179.347656 974.59375 1172.925781 973.484375 1166.5625 972.058594 C 1160.199219 970.628906 1153.921875 968.890625 1147.726562 966.839844 C 1141.535156 964.792969 1135.460938 962.441406 1129.5 959.792969 C 1123.539062 957.144531 1117.726562 954.207031 1112.058594 950.980469 C 1106.386719 947.757812 1100.890625 944.257812 1095.566406 940.492188 C 1090.246094 936.722656 1085.121094 932.699219 1080.195312 928.425781 C 1041.066406 894.449219 1017.945312 849.824219 1014.1875 797.910156 C 1010.859375 751.914062 1027.785156 699.761719 1058.191406 665.113281 C 1082.746094 637.128906 1117.171875 615.621094 1153.890625 608.453125 C 1167.546875 605.785156 1179.742188 604.917969 1193.574219 604.054688 " fill-opacity="1" fill-rule="nonzero"/><path fill="#fff1c4" d="M 966 1202.953125 C 968.886719 1203.503906 969.171875 1203.980469 969.300781 1206.578125 C 965.144531 1215.40625 938.691406 1230.742188 929.910156 1236.164062 C 928.738281 1236.578125 929.054688 1236.414062 927.691406 1236.277344 C 927.78125 1233.359375 930.300781 1230.113281 931.785156 1227.585938 C 939.503906 1214.480469 952.246094 1208.371094 966 1202.953125 " fill-opacity="1" fill-rule="nonzero"/><path fill="#fcc25e" d="M 1292.84375 760.132812 C 1293.792969 759.855469 1294.757812 759.703125 1295.75 759.683594 C 1296.738281 759.664062 1297.710938 759.773438 1298.667969 760.015625 C 1299.628906 760.253906 1300.539062 760.617188 1301.402344 761.097656 C 1302.265625 761.582031 1303.050781 762.171875 1303.753906 762.863281 C 1306.628906 765.683594 1307.753906 769.835938 1306.6875 773.714844 C 1306.425781 774.667969 1306.042969 775.570312 1305.542969 776.421875 C 1305.039062 777.273438 1304.4375 778.046875 1303.726562 778.734375 C 1303.019531 779.425781 1302.234375 780.011719 1301.367188 780.492188 C 1300.503906 780.972656 1299.59375 781.332031 1298.632812 781.566406 C 1292.765625 783.007812 1286.835938 779.503906 1285.261719 773.675781 C 1283.683594 767.855469 1287.050781 761.84375 1292.84375 760.132812 M 993.113281 616.6875 C 998.910156 615.457031 1004.640625 619.066406 1006.035156 624.832031 C 1007.429688 630.59375 1003.988281 636.421875 998.273438 637.984375 C 997.328125 638.242188 996.363281 638.371094 995.382812 638.371094 C 994.402344 638.375 993.441406 638.246094 992.496094 637.988281 C 991.550781 637.726562 990.652344 637.351562 989.808594 636.851562 C 988.964844 636.355469 988.203125 635.753906 987.519531 635.050781 C 986.835938 634.347656 986.257812 633.566406 985.78125 632.707031 C 985.308594 631.851562 984.957031 630.945312 984.726562 629.992188 C 984.496094 629.039062 984.394531 628.074219 984.421875 627.09375 C 984.449219 626.113281 984.605469 625.15625 984.894531 624.214844 C 985.179688 623.277344 985.582031 622.394531 986.105469 621.566406 C 986.628906 620.738281 987.25 619.992188 987.972656 619.328125 C 988.695312 618.667969 989.496094 618.109375 990.367188 617.664062 C 991.238281 617.214844 992.152344 616.890625 993.113281 616.6875 M 1394.210938 870.308594 C 1400.070312 869.480469 1405.5 873.496094 1406.421875 879.328125 C 1407.351562 885.164062 1403.429688 890.667969 1397.609375 891.699219 C 1393.753906 892.378906 1389.832031 890.925781 1387.351562 887.894531 C 1386.742188 887.152344 1386.238281 886.34375 1385.847656 885.464844 C 1385.453125 884.589844 1385.179688 883.675781 1385.027344 882.726562 C 1384.878906 881.777344 1384.855469 880.828125 1384.957031 879.871094 C 1385.058594 878.914062 1385.285156 877.992188 1385.632812 877.09375 C 1385.980469 876.199219 1386.441406 875.363281 1387.011719 874.589844 C 1387.585938 873.820312 1388.246094 873.132812 1389 872.539062 C 1389.753906 871.941406 1390.574219 871.453125 1391.457031 871.074219 C 1392.34375 870.695312 1393.261719 870.441406 1394.210938 870.308594 M 1222.035156 523.84375 C 1227.78125 522.394531 1233.613281 525.863281 1235.101562 531.601562 C 1236.578125 537.339844 1233.148438 543.199219 1227.421875 544.71875 C 1221.636719 546.25 1215.71875 542.78125 1214.21875 536.988281 C 1212.726562 531.199219 1216.230469 525.300781 1222.035156 523.84375 M 889.175781 833.511719 C 892.824219 832.183594 896.902344 832.949219 899.820312 835.507812 C 900.539062 836.136719 901.160156 836.847656 901.683594 837.640625 C 902.210938 838.4375 902.621094 839.289062 902.917969 840.195312 C 903.214844 841.101562 903.386719 842.027344 903.429688 842.980469 C 903.476562 843.933594 903.394531 844.875 903.1875 845.804688 C 902.980469 846.734375 902.65625 847.621094 902.210938 848.464844 C 901.765625 849.308594 901.214844 850.074219 900.5625 850.769531 C 899.910156 851.464844 899.175781 852.058594 898.363281 852.554688 C 897.550781 853.050781 896.6875 853.433594 895.769531 853.695312 C 890.273438 855.292969 884.496094 852.238281 882.71875 846.796875 C 880.941406 841.351562 883.800781 835.476562 889.175781 833.511719 M 991.726562 981.34375 C 997.394531 980.550781 1002.644531 984.464844 1003.507812 990.128906 C 1004.363281 995.78125 1000.507812 1001.078125 994.859375 1002 C 991.148438 1002.609375 987.398438 1001.175781 985.042969 998.242188 C 982.679688 995.316406 982.082031 991.351562 983.460938 987.847656 C 984.847656 984.351562 987.996094 981.871094 991.726562 981.34375 M 1377.472656 253.8125 C 1378.28125 253.507812 1379.117188 253.3125 1379.980469 253.226562 C 1380.839844 253.144531 1381.699219 253.171875 1382.554688 253.316406 C 1383.40625 253.460938 1384.226562 253.714844 1385.015625 254.074219 C 1385.800781 254.4375 1386.527344 254.894531 1387.191406 255.449219 C 1387.855469 256.003906 1388.4375 256.636719 1388.933594 257.34375 C 1389.429688 258.054688 1389.828125 258.816406 1390.121094 259.628906 C 1390.417969 260.445312 1390.601562 261.28125 1390.671875 262.144531 C 1390.742188 263.007812 1390.699219 263.867188 1390.546875 264.71875 C 1390.390625 265.570312 1390.125 266.386719 1389.75 267.167969 C 1389.375 267.949219 1388.90625 268.667969 1388.34375 269.324219 C 1387.777344 269.980469 1387.136719 270.550781 1386.421875 271.035156 C 1385.703125 271.523438 1384.9375 271.90625 1384.117188 272.1875 C 1379.070312 273.929688 1373.558594 271.292969 1371.742188 266.273438 C 1369.925781 261.25 1372.484375 255.703125 1377.472656 253.8125 M 1313.488281 349.367188 C 1318.304688 347.65625 1323.609375 350.105469 1325.421875 354.882812 C 1327.246094 359.65625 1324.921875 365.011719 1320.1875 366.941406 C 1319.410156 367.257812 1318.609375 367.464844 1317.777344 367.566406 C 1316.945312 367.667969 1316.113281 367.660156 1315.285156 367.539062 C 1314.453125 367.417969 1313.65625 367.191406 1312.886719 366.855469 C 1312.117188 366.523438 1311.40625 366.09375 1310.753906 365.570312 C 1310.097656 365.046875 1309.523438 364.445312 1309.03125 363.769531 C 1308.539062 363.09375 1308.144531 362.363281 1307.84375 361.578125 C 1307.546875 360.796875 1307.355469 359.988281 1307.277344 359.15625 C 1307.195312 358.320312 1307.222656 357.492188 1307.363281 356.664062 C 1307.5 355.839844 1307.746094 355.046875 1308.097656 354.285156 C 1308.449219 353.523438 1308.894531 352.824219 1309.433594 352.179688 C 1309.96875 351.539062 1310.585938 350.980469 1311.273438 350.503906 C 1311.960938 350.023438 1312.699219 349.648438 1313.488281 349.367188 M 1336.28125 583.226562 C 1339.492188 582.628906 1342.785156 583.8125 1344.878906 586.324219 C 1345.394531 586.9375 1345.820312 587.613281 1346.15625 588.339844 C 1346.492188 589.070312 1346.722656 589.832031 1346.855469 590.625 C 1346.988281 591.417969 1347.015625 592.210938 1346.9375 593.011719 C 1346.855469 593.8125 1346.671875 594.585938 1346.386719 595.335938 C 1346.101562 596.085938 1345.722656 596.785156 1345.25 597.4375 C 1344.777344 598.085938 1344.230469 598.664062 1343.601562 599.164062 C 1342.976562 599.667969 1342.296875 600.082031 1341.5625 600.402344 C 1340.828125 600.726562 1340.0625 600.945312 1339.269531 601.0625 C 1334.394531 601.789062 1329.832031 598.476562 1329.015625 593.613281 C 1328.207031 588.75 1331.429688 584.128906 1336.28125 583.226562 " fill-opacity="1" fill-rule="nonzero"/><path fill="#fff1c4" d="M 1415.4375 1033.777344 C 1418.558594 1033.425781 1421.398438 1035.613281 1421.84375 1038.71875 C 1422.292969 1041.832031 1420.191406 1044.734375 1417.09375 1045.28125 C 1415.011719 1045.648438 1412.886719 1044.847656 1411.558594 1043.199219 C 1411.234375 1042.792969 1410.964844 1042.351562 1410.757812 1041.875 C 1410.550781 1041.394531 1410.410156 1040.898438 1410.335938 1040.382812 C 1410.261719 1039.871094 1410.253906 1039.351562 1410.320312 1038.835938 C 1410.382812 1038.320312 1410.515625 1037.820312 1410.710938 1037.339844 C 1410.910156 1036.859375 1411.167969 1036.410156 1411.484375 1036 C 1411.804688 1035.585938 1412.171875 1035.222656 1412.585938 1034.910156 C 1413 1034.597656 1413.453125 1034.34375 1413.933594 1034.152344 C 1414.417969 1033.960938 1414.921875 1033.835938 1415.4375 1033.777344 " fill-opacity="1" fill-rule="nonzero"/><path fill="#fcc25e" d="M 1416.058594 446.464844 C 1416.363281 446.296875 1416.679688 446.15625 1417.011719 446.046875 C 1417.339844 445.941406 1417.679688 445.867188 1418.023438 445.824219 C 1418.371094 445.78125 1418.714844 445.773438 1419.0625 445.796875 C 1419.410156 445.824219 1419.75 445.878906 1420.085938 445.972656 C 1420.421875 446.0625 1420.746094 446.183594 1421.054688 446.339844 C 1421.367188 446.492188 1421.660156 446.675781 1421.9375 446.886719 C 1422.214844 447.097656 1422.46875 447.332031 1422.699219 447.59375 C 1422.929688 447.851562 1423.132812 448.132812 1423.308594 448.433594 C 1423.484375 448.734375 1423.628906 449.046875 1423.746094 449.375 C 1423.859375 449.703125 1423.945312 450.039062 1423.992188 450.382812 C 1424.042969 450.726562 1424.0625 451.070312 1424.042969 451.417969 C 1424.027344 451.765625 1423.976562 452.109375 1423.894531 452.445312 C 1423.808594 452.785156 1423.695312 453.109375 1423.546875 453.425781 C 1423.402344 453.738281 1423.226562 454.039062 1423.019531 454.320312 C 1422.816406 454.601562 1422.585938 454.859375 1422.332031 455.09375 C 1422.074219 455.332031 1421.800781 455.542969 1421.503906 455.722656 C 1420.679688 456.234375 1419.777344 456.5 1418.804688 456.523438 C 1417.835938 456.542969 1416.925781 456.316406 1416.074219 455.84375 C 1415.222656 455.371094 1414.550781 454.714844 1414.058594 453.875 C 1413.5625 453.039062 1413.316406 452.132812 1413.3125 451.160156 C 1413.3125 450.183594 1413.558594 449.277344 1414.046875 448.4375 C 1414.539062 447.597656 1415.210938 446.941406 1416.058594 446.464844 " fill-opacity="1" fill-rule="nonzero"/><path fill="#fff1c4" d="M 909.097656 713.644531 C 909.410156 713.523438 909.730469 713.429688 910.0625 713.371094 C 910.394531 713.308594 910.726562 713.28125 911.0625 713.285156 C 911.398438 713.289062 911.730469 713.324219 912.058594 713.390625 C 912.390625 713.457031 912.707031 713.554688 913.019531 713.683594 C 913.328125 713.8125 913.625 713.96875 913.90625 714.152344 C 914.1875 714.339844 914.445312 714.546875 914.6875 714.78125 C 914.925781 715.015625 915.144531 715.273438 915.335938 715.546875 C 915.527344 715.824219 915.6875 716.117188 915.824219 716.425781 C 916.058594 716.949219 916.199219 717.5 916.25 718.074219 C 916.304688 718.648438 916.261719 719.214844 916.128906 719.773438 C 915.992188 720.335938 915.773438 720.859375 915.464844 721.34375 C 915.160156 721.832031 914.78125 722.257812 914.335938 722.621094 C 913.890625 722.984375 913.398438 723.269531 912.859375 723.472656 C 912.320312 723.671875 911.761719 723.785156 911.1875 723.800781 C 910.609375 723.820312 910.046875 723.746094 909.496094 723.582031 C 908.945312 723.414062 908.433594 723.164062 907.964844 722.832031 C 907.578125 722.554688 907.234375 722.234375 906.933594 721.867188 C 906.632812 721.5 906.390625 721.097656 906.199219 720.664062 C 906.007812 720.230469 905.875 719.777344 905.804688 719.308594 C 905.738281 718.839844 905.730469 718.371094 905.789062 717.898438 C 905.847656 717.429688 905.96875 716.972656 906.148438 716.535156 C 906.332031 716.097656 906.566406 715.691406 906.859375 715.316406 C 907.148438 714.941406 907.484375 714.613281 907.863281 714.328125 C 908.246094 714.046875 908.65625 713.816406 909.097656 713.644531 " fill-opacity="1" fill-rule="nonzero"/><path fill="#fcc25e" d="M 1075.09375 541.171875 C 1075.402344 541.03125 1075.722656 540.921875 1076.054688 540.839844 C 1076.386719 540.761719 1076.71875 540.714844 1077.058594 540.703125 C 1077.398438 540.6875 1077.738281 540.707031 1078.074219 540.761719 C 1078.410156 540.8125 1078.738281 540.894531 1079.058594 541.011719 C 1079.375 541.128906 1079.683594 541.273438 1079.972656 541.449219 C 1080.265625 541.625 1080.535156 541.828125 1080.789062 542.054688 C 1081.039062 542.285156 1081.265625 542.535156 1081.46875 542.804688 C 1081.671875 543.078125 1081.847656 543.367188 1081.996094 543.675781 C 1082.140625 543.980469 1082.257812 544.300781 1082.34375 544.628906 C 1082.429688 544.957031 1082.480469 545.292969 1082.5 545.632812 C 1082.519531 545.972656 1082.507812 546.3125 1082.460938 546.648438 C 1082.417969 546.984375 1082.339844 547.3125 1082.226562 547.636719 C 1082.117188 547.957031 1081.976562 548.265625 1081.808594 548.5625 C 1081.636719 548.855469 1081.441406 549.128906 1081.214844 549.386719 C 1080.992188 549.640625 1080.746094 549.875 1080.476562 550.082031 C 1080.207031 550.289062 1079.921875 550.472656 1079.617188 550.621094 C 1078.769531 551.046875 1077.875 551.230469 1076.929688 551.167969 C 1075.984375 551.105469 1075.121094 550.8125 1074.335938 550.28125 C 1073.550781 549.75 1072.953125 549.058594 1072.542969 548.203125 C 1072.132812 547.347656 1071.96875 546.449219 1072.050781 545.503906 C 1072.128906 544.558594 1072.4375 543.699219 1072.984375 542.925781 C 1073.527344 542.148438 1074.234375 541.566406 1075.09375 541.171875 " fill-opacity="1" fill-rule="nonzero"/><path fill="#fff1c4" d="M 1193.765625 698.820312 C 1194.085938 698.710938 1194.414062 698.632812 1194.746094 698.585938 C 1195.082031 698.539062 1195.414062 698.523438 1195.753906 698.542969 C 1196.089844 698.5625 1196.421875 698.613281 1196.746094 698.695312 C 1197.074219 698.78125 1197.390625 698.894531 1197.695312 699.039062 C 1198 699.183594 1198.289062 699.355469 1198.558594 699.558594 C 1198.828125 699.757812 1199.078125 699.984375 1199.304688 700.230469 C 1199.53125 700.480469 1199.734375 700.75 1199.910156 701.039062 C 1200.082031 701.328125 1200.230469 701.628906 1200.34375 701.945312 C 1200.460938 702.261719 1200.542969 702.585938 1200.597656 702.921875 C 1200.648438 703.253906 1200.667969 703.589844 1200.65625 703.925781 C 1200.644531 704.261719 1200.597656 704.597656 1200.519531 704.925781 C 1200.441406 705.253906 1200.335938 705.570312 1200.195312 705.878906 C 1200.054688 706.183594 1199.886719 706.476562 1199.691406 706.75 C 1199.496094 707.023438 1199.273438 707.277344 1199.027344 707.507812 C 1198.78125 707.738281 1198.515625 707.945312 1198.230469 708.125 C 1197.945312 708.300781 1197.644531 708.453125 1197.328125 708.574219 C 1196.453125 708.910156 1195.554688 709.003906 1194.628906 708.851562 C 1193.703125 708.703125 1192.878906 708.328125 1192.15625 707.726562 C 1191.433594 707.128906 1190.914062 706.390625 1190.589844 705.507812 C 1190.269531 704.628906 1190.191406 703.726562 1190.355469 702.804688 C 1190.523438 701.878906 1190.914062 701.0625 1191.523438 700.351562 C 1192.132812 699.636719 1192.882812 699.128906 1193.765625 698.820312 " fill-opacity="1" fill-rule="nonzero"/><path fill="#fcc25e" d="M 1215.609375 400.105469 C 1216.035156 399.910156 1216.480469 399.777344 1216.945312 399.707031 C 1217.414062 399.636719 1217.878906 399.628906 1218.34375 399.683594 C 1218.8125 399.742188 1219.261719 399.859375 1219.695312 400.039062 C 1220.132812 400.222656 1220.53125 400.457031 1220.902344 400.75 C 1221.269531 401.042969 1221.59375 401.378906 1221.867188 401.757812 C 1222.144531 402.140625 1222.363281 402.550781 1222.527344 402.992188 C 1222.6875 403.433594 1222.789062 403.886719 1222.828125 404.355469 C 1222.863281 404.824219 1222.835938 405.289062 1222.746094 405.75 C 1222.65625 406.210938 1222.503906 406.652344 1222.292969 407.070312 C 1222.078125 407.492188 1221.8125 407.875 1221.496094 408.21875 C 1221.175781 408.566406 1220.816406 408.863281 1220.417969 409.109375 C 1220.019531 409.359375 1219.59375 409.546875 1219.140625 409.675781 C 1218.832031 409.765625 1218.519531 409.824219 1218.199219 409.851562 C 1217.882812 409.882812 1217.566406 409.882812 1217.246094 409.851562 C 1216.929688 409.820312 1216.617188 409.761719 1216.308594 409.671875 C 1216 409.582031 1215.707031 409.464844 1215.421875 409.320312 C 1215.136719 409.175781 1214.867188 409.007812 1214.613281 408.8125 C 1214.359375 408.617188 1214.125 408.398438 1213.914062 408.160156 C 1213.699219 407.921875 1213.511719 407.664062 1213.347656 407.390625 C 1213.183594 407.117188 1213.046875 406.832031 1212.933594 406.53125 C 1212.824219 406.230469 1212.742188 405.921875 1212.6875 405.605469 C 1212.636719 405.292969 1212.613281 404.972656 1212.621094 404.65625 C 1212.625 404.335938 1212.664062 404.019531 1212.726562 403.707031 C 1212.792969 403.394531 1212.886719 403.089844 1213.011719 402.792969 C 1213.132812 402.5 1213.28125 402.21875 1213.457031 401.949219 C 1213.632812 401.683594 1213.832031 401.433594 1214.054688 401.203125 C 1214.277344 400.972656 1214.519531 400.765625 1214.78125 400.582031 C 1215.039062 400.398438 1215.316406 400.238281 1215.609375 400.105469 " fill-opacity="1" fill-rule="nonzero"/><path fill="#fff1c4" d="M 1428.832031 687.269531 C 1435.988281 689.554688 1436.640625 694.054688 1431.792969 699.398438 C 1430.683594 699.070312 1428.789062 698.5 1427.863281 697.8125 C 1427.167969 697.304688 1426.625 696.667969 1426.238281 695.894531 C 1425.851562 695.121094 1425.664062 694.304688 1425.675781 693.441406 C 1425.71875 690.933594 1427.332031 689.085938 1428.832031 687.269531 M 1284.90625 1090.214844 C 1285.1875 1090.078125 1285.480469 1089.96875 1285.78125 1089.886719 C 1286.085938 1089.804688 1286.390625 1089.753906 1286.703125 1089.730469 C 1287.015625 1089.710938 1287.328125 1089.714844 1287.636719 1089.753906 C 1287.949219 1089.789062 1288.253906 1089.855469 1288.550781 1089.949219 C 1288.847656 1090.042969 1289.136719 1090.167969 1289.410156 1090.316406 C 1289.683594 1090.464844 1289.941406 1090.640625 1290.183594 1090.839844 C 1290.425781 1091.039062 1290.648438 1091.257812 1290.847656 1091.496094 C 1291.046875 1091.738281 1291.222656 1091.996094 1291.371094 1092.269531 C 1292.632812 1094.574219 1291.867188 1097.460938 1289.632812 1098.824219 C 1288.859375 1099.300781 1288.019531 1099.542969 1287.113281 1099.550781 C 1286.203125 1099.5625 1285.359375 1099.335938 1284.578125 1098.878906 C 1283.792969 1098.417969 1283.183594 1097.792969 1282.75 1096.996094 C 1282.3125 1096.203125 1282.113281 1095.351562 1282.148438 1094.445312 C 1282.183594 1093.539062 1282.449219 1092.707031 1282.941406 1091.949219 C 1283.4375 1091.191406 1284.09375 1090.613281 1284.90625 1090.214844 " fill-opacity="1" fill-rule="nonzero"/><path fill="#fbf8f1" d="M 831.03125 1007.003906 C 832.746094 1006.648438 834.523438 1007.257812 835.679688 1008.585938 C 836.253906 1009.25 836.621094 1010.011719 836.785156 1010.875 C 836.945312 1011.734375 836.878906 1012.582031 836.585938 1013.40625 C 836.289062 1014.234375 835.804688 1014.933594 835.132812 1015.5 C 834.460938 1016.066406 833.6875 1016.421875 832.824219 1016.574219 C 830.203125 1017.023438 827.699219 1015.289062 827.210938 1012.671875 C 827.152344 1012.359375 827.125 1012.046875 827.128906 1011.730469 C 827.128906 1011.414062 827.164062 1011.101562 827.226562 1010.789062 C 827.289062 1010.480469 827.382812 1010.179688 827.507812 1009.886719 C 827.628906 1009.59375 827.777344 1009.316406 827.957031 1009.054688 C 828.132812 1008.789062 828.332031 1008.546875 828.558594 1008.324219 C 828.78125 1008.101562 829.027344 1007.898438 829.289062 1007.722656 C 829.554688 1007.546875 829.832031 1007.398438 830.125 1007.277344 C 830.417969 1007.15625 830.71875 1007.066406 831.03125 1007.003906 M 1108.917969 1088.609375 C 1110.546875 1087.941406 1112.421875 1088.234375 1113.765625 1089.382812 C 1114.433594 1089.957031 1114.90625 1090.660156 1115.179688 1091.496094 C 1115.453125 1092.335938 1115.488281 1093.183594 1115.289062 1094.039062 C 1115.082031 1094.898438 1114.667969 1095.640625 1114.046875 1096.269531 C 1113.425781 1096.894531 1112.6875 1097.316406 1111.828125 1097.527344 C 1111.253906 1097.667969 1110.671875 1097.699219 1110.085938 1097.621094 C 1109.496094 1097.539062 1108.945312 1097.355469 1108.425781 1097.066406 C 1107.90625 1096.777344 1107.460938 1096.40625 1107.082031 1095.949219 C 1106.707031 1095.488281 1106.425781 1094.980469 1106.242188 1094.414062 C 1106.058594 1093.851562 1105.984375 1093.273438 1106.019531 1092.683594 C 1106.054688 1092.089844 1106.195312 1091.527344 1106.441406 1090.988281 C 1106.691406 1090.449219 1107.027344 1089.976562 1107.457031 1089.5625 C 1107.882812 1089.152344 1108.371094 1088.835938 1108.917969 1088.609375 " fill-opacity="1" fill-rule="nonzero"/><path fill="#fcc25e" d="M 760.011719 783.398438 L 760.949219 1098.691406 L 760.484375 1236.78125 C 760.523438 1259.386719 760.183594 1283.011719 761.175781 1305.496094 C 761.144531 1309.972656 761.308594 1316.484375 760.613281 1320.726562 C 760.621094 1324.011719 760.433594 1333.261719 761.085938 1335.9375 C 761.136719 1341.816406 761.289062 1347.953125 761.128906 1353.808594 C 760.996094 1402.371094 759.945312 1452.488281 760.492188 1500.75 L 432.164062 1500.652344 L 331.660156 1500.734375 C 311.53125 1500.75 285.652344 1501.425781 266.027344 1499.414062 C 252.679688 1497.925781 239.511719 1495.46875 226.523438 1492.046875 C 213.539062 1488.628906 200.867188 1484.277344 188.519531 1479 C 185.585938 1477.761719 178.679688 1475.023438 176.625 1473.351562 C 168.574219 1469.191406 162.441406 1466.796875 154.414062 1461.914062 C 141.070312 1453.71875 119.617188 1434.808594 108.414062 1423.523438 L 114.363281 1419.539062 C 125.300781 1409.390625 143.4375 1389.675781 154.601562 1381.328125 C 158.410156 1375.183594 181.484375 1353.96875 187.859375 1347.488281 C 230.363281 1304.230469 273.367188 1261.472656 316.871094 1219.214844 L 567.648438 973.078125 L 692.160156 850.410156 C 714.628906 828.203125 738.089844 806.0625 760.011719 783.398438 " fill-opacity="1" fill-rule="nonzero"/><path fill="#fcc25e" d="M 760.011719 783.398438 L 760.949219 1098.691406 L 760.484375 1236.78125 C 760.523438 1259.386719 760.183594 1283.011719 761.175781 1305.496094 C 742.351562 1295.96875 720.851562 1286.761719 701.496094 1277.925781 L 624.113281 1242.34375 C 606.839844 1234.484375 589.496094 1226.777344 572.085938 1219.222656 C 536.757812 1203.78125 509.539062 1190.023438 470.214844 1203.78125 C 432.726562 1216.890625 401.703125 1241.226562 367.710938 1261.15625 C 317.621094 1292.085938 268.347656 1324.117188 216.03125 1351.273438 C 198.496094 1360.378906 172.859375 1374.03125 154.601562 1381.328125 C 158.410156 1375.183594 181.484375 1353.96875 187.859375 1347.488281 C 230.363281 1304.230469 273.367188 1261.472656 316.871094 1219.214844 L 567.648438 973.078125 L 692.160156 850.410156 C 714.628906 828.203125 738.089844 806.0625 760.011719 783.398438 M 176.625 1473.351562 C 194.152344 1467.136719 206.386719 1461.847656 224.769531 1456.199219 C 290.792969 1435.90625 350.558594 1437.316406 418.632812 1438.011719 C 444.484375 1438.351562 470.273438 1437.265625 496.003906 1434.746094 C 521.734375 1432.230469 547.246094 1428.296875 572.539062 1422.953125 C 597.832031 1417.609375 622.753906 1410.882812 647.304688 1402.777344 C 671.851562 1394.671875 695.878906 1385.234375 719.382812 1374.464844 C 726.828125 1371.113281 756.464844 1358.371094 761.128906 1353.808594 C 760.996094 1402.371094 759.945312 1452.488281 760.492188 1500.75 L 432.164062 1500.652344 L 331.660156 1500.734375 C 311.53125 1500.75 285.652344 1501.425781 266.027344 1499.414062 C 252.679688 1497.925781 239.511719 1495.46875 226.523438 1492.046875 C 213.539062 1488.628906 200.867188 1484.277344 188.519531 1479 C 185.585938 1477.761719 178.679688 1475.023438 176.625 1473.351562 " fill-opacity="1" fill-rule="nonzero"/><path fill="#20253b" d="M 154.601562 1381.328125 C 172.859375 1374.03125 198.496094 1360.378906 216.03125 1351.273438 C 268.347656 1324.117188 317.621094 1292.085938 367.710938 1261.15625 C 401.703125 1241.226562 432.726562 1216.890625 470.214844 1203.78125 C 509.539062 1190.023438 536.757812 1203.78125 572.085938 1219.222656 C 589.496094 1226.777344 606.839844 1234.484375 624.113281 1242.34375 L 701.496094 1277.925781 C 720.851562 1286.761719 742.351562 1295.96875 761.175781 1305.496094 C 761.144531 1309.972656 761.308594 1316.480469 760.613281 1320.726562 C 757.964844 1322.136719 757.304688 1323.050781 754.15625 1321.988281 C 740.175781 1317.269531 726.429688 1310.0625 712.96875 1304.011719 L 586.835938 1246.816406 C 568.238281 1238.566406 549.878906 1229.804688 530.875 1222.613281 C 502.71875 1211.953125 478.320312 1218.441406 452.710938 1232.121094 C 426.953125 1245.886719 403.109375 1261.394531 378.585938 1277.0625 L 300.695312 1326.082031 C 252.496094 1355.449219 202.644531 1381.671875 151.140625 1404.75 C 145.734375 1407.148438 118.503906 1419.234375 114.363281 1419.539062 C 125.300781 1409.390625 143.4375 1389.675781 154.601562 1381.328125 M 154.414062 1461.914062 C 162.796875 1457.0625 186.550781 1448.25 196.070312 1444.84375 C 216.003906 1437.695312 236.34375 1432.011719 257.09375 1427.789062 C 277.847656 1423.566406 298.792969 1420.847656 319.933594 1419.636719 C 364.199219 1417.109375 409.863281 1419.71875 454.082031 1418.136719 C 484.003906 1417.066406 520.246094 1413.089844 549.691406 1407.816406 C 598.746094 1398.851562 646.304688 1384.808594 692.359375 1365.683594 C 711.460938 1357.785156 741.757812 1342.449219 760.050781 1336.273438 L 761.085938 1335.9375 C 761.136719 1341.816406 761.289062 1347.953125 761.128906 1353.808594 C 756.464844 1358.371094 726.828125 1371.113281 719.382812 1374.464844 C 695.878906 1385.234375 671.851562 1394.671875 647.304688 1402.777344 C 622.753906 1410.882812 597.832031 1417.609375 572.539062 1422.953125 C 547.246094 1428.296875 521.734375 1432.230469 496.003906 1434.746094 C 470.273438 1437.265625 444.484375 1438.351562 418.632812 1438.011719 C 350.558594 1437.316406 290.792969 1435.90625 224.769531 1456.199219 C 206.386719 1461.847656 194.152344 1467.136719 176.625 1473.351562 C 168.574219 1469.191406 162.441406 1466.796875 154.414062 1461.914062 M 776.242188 36.082031 L 1124.226562 36.386719 L 1206.105469 36.503906 C 1242 36.296875 1265.796875 34.324219 1301.648438 41.707031 C 1342.140625 50.046875 1392.058594 75.265625 1421.355469 104.746094 C 1423.085938 106.488281 1424.78125 108.257812 1426.460938 110.054688 C 1273.125 258.035156 1120.636719 406.878906 968.992188 556.589844 C 905.902344 618.851562 837.96875 680.613281 776.257812 743.699219 L 775.898438 675.539062 L 776.160156 663.710938 C 775.589844 631.664062 776.011719 599.46875 775.695312 567.410156 C 775.621094 559.847656 775.523438 551.730469 775.964844 544.222656 C 775.957031 539.847656 776.152344 535.183594 776.265625 530.785156 C 775.925781 524.726562 775.867188 518.464844 775.921875 512.394531 C 776.160156 484.0625 774.945312 455.300781 775.988281 427.027344 C 775.816406 423.226562 776.128906 418.125 776.257812 414.226562 L 776.175781 256.140625 L 776.203125 251.175781 Z M 776.242188 36.082031 " fill-opacity="1" fill-rule="nonzero"/><path fill="#fcc25e" d="M 776.160156 663.710938 C 784.265625 654.347656 793.703125 645.609375 802.628906 636.96875 L 844.117188 597.03125 L 959.773438 484.273438 L 1213.425781 235.964844 C 1225.566406 224.035156 1316.902344 131.660156 1325.960938 127.445312 C 1328.902344 127.773438 1327.640625 127.199219 1329.824219 129.351562 C 1330.246094 130.851562 1330.964844 132.636719 1329.789062 133.941406 C 1307.257812 158.910156 1273.175781 190.964844 1250.015625 213.515625 L 1125.269531 335.398438 L 924.855469 532.300781 C 887.953125 569.085938 850.828125 605.640625 813.480469 641.964844 C 804.164062 650.851562 786.039062 668.867188 775.898438 675.539062 Z M 776.265625 530.785156 C 863.960938 446.0625 951 360.667969 1037.378906 274.605469 C 1070.183594 241.484375 1103.3125 208.691406 1136.761719 176.222656 C 1156.710938 156.46875 1176.824219 136.710938 1196.96875 117.121094 C 1198.679688 115.457031 1200.140625 114.328125 1202.527344 114.121094 C 1205.488281 115.035156 1204.5 114.152344 1205.917969 116.472656 C 1205.609375 120.480469 1202.796875 124.046875 1200.046875 126.859375 C 1179.683594 147.667969 1158.59375 168.128906 1137.878906 188.566406 L 1014.691406 310.507812 L 861.148438 462.371094 C 849.929688 473.417969 785.363281 539.53125 775.964844 544.222656 C 775.957031 539.847656 776.152344 535.183594 776.265625 530.785156 M 776.257812 414.226562 L 964.957031 227.65625 C 994.738281 198.363281 1023.953125 168.515625 1054.15625 139.632812 C 1057.085938 136.824219 1060.253906 136.488281 1062.425781 140.296875 C 1062.148438 143.625 1060.507812 145.613281 1058.191406 147.988281 C 1039.46875 167.148438 1020.261719 185.925781 1001.152344 204.683594 L 915.15625 290.105469 L 831.164062 373.699219 C 817.140625 387.757812 795.609375 410.835938 781.371094 423.023438 C 779.671875 424.484375 777.878906 425.820312 775.988281 427.027344 C 775.816406 423.226562 776.128906 418.125 776.257812 414.226562 M 776.207031 251.175781 C 799.003906 226.675781 827.46875 199.59375 851.386719 175.617188 C 859.636719 167.300781 867.824219 158.917969 875.941406 150.46875 C 881.46875 144.699219 891.9375 131.660156 899.65625 130.703125 C 902.65625 132.027344 902.789062 136.5625 901.238281 138.128906 C 861.960938 177.726562 822.773438 217.605469 782.699219 256.429688 C 781.550781 257.542969 781.011719 257.757812 779.550781 258.210938 C 777.511719 257.769531 777.660156 257.675781 776.175781 256.140625 Z M 776.207031 251.175781 " fill-opacity="1" fill-rule="nonzero"/><path fill="#20253b" d="M 957.53125 1278.328125 C 1028.609375 1273.980469 1097.003906 1302.660156 1162.28125 1326.121094 C 1254.675781 1359.324219 1348.191406 1390.019531 1445.933594 1402.84375 C 1441.503906 1409.40625 1436.660156 1415.640625 1431.398438 1421.550781 C 1388.390625 1469.886719 1327.378906 1496.675781 1263.1875 1500.390625 C 1252.199219 1501.003906 1237.386719 1500.15625 1225.808594 1500.113281 L 1145.355469 1500.007812 L 911.601562 1500.023438 C 867.863281 1500.039062 819.351562 1499.039062 776.070312 1500.683594 L 776.308594 1329.023438 C 834.855469 1301.265625 892.175781 1281.515625 957.53125 1278.328125 M 1413.21875 1198.050781 C 1439.953125 1193.460938 1475.488281 1209.90625 1499.308594 1221.226562 C 1499.445312 1234.378906 1499.820312 1251.007812 1498.972656 1263.996094 C 1498.253906 1275.015625 1496.820312 1285.941406 1494.671875 1296.773438 C 1492.519531 1307.605469 1489.667969 1318.246094 1486.121094 1328.703125 C 1482.574219 1339.160156 1478.355469 1349.339844 1473.46875 1359.242188 C 1468.585938 1369.148438 1463.074219 1378.6875 1456.933594 1387.867188 C 1438.035156 1384.15625 1418.25 1381.972656 1398.824219 1378.042969 C 1355.917969 1369.019531 1313.515625 1358.050781 1271.617188 1345.132812 C 1226.976562 1331.003906 1183.664062 1314.921875 1139.503906 1299.660156 C 1157.648438 1295.144531 1177.125 1285.492188 1194.734375 1278.300781 L 1285.917969 1241.730469 L 1335.945312 1221.488281 C 1362.636719 1210.730469 1384.066406 1200.9375 1413.21875 1198.050781 " fill-opacity="1" fill-rule="nonzero"/><g clip-path="url(#8e062310be)"><path fill="#1b9b48" d="M 1380.601562 668.601562 C 1380.601562 678.644531 1380.355469 688.679688 1379.859375 698.707031 C 1379.367188 708.734375 1378.628906 718.746094 1377.644531 728.738281 C 1376.660156 738.730469 1375.433594 748.691406 1373.960938 758.621094 C 1372.488281 768.554688 1370.769531 778.445312 1368.8125 788.292969 C 1366.851562 798.140625 1364.652344 807.933594 1362.214844 817.671875 C 1359.773438 827.410156 1357.097656 837.085938 1354.183594 846.691406 C 1351.269531 856.300781 1348.121094 865.832031 1344.738281 875.285156 C 1341.355469 884.738281 1337.742188 894.101562 1333.898438 903.378906 C 1330.058594 912.65625 1325.988281 921.832031 1321.695312 930.910156 C 1317.40625 939.984375 1312.890625 948.949219 1308.160156 957.804688 C 1303.425781 966.660156 1298.476562 975.394531 1293.316406 984.003906 C 1288.15625 992.617188 1282.785156 1001.097656 1277.207031 1009.445312 C 1271.628906 1017.792969 1265.847656 1026 1259.867188 1034.066406 C 1253.886719 1042.128906 1247.710938 1050.042969 1241.339844 1057.804688 C 1234.972656 1065.566406 1228.417969 1073.164062 1221.671875 1080.605469 C 1214.929688 1088.042969 1208.007812 1095.3125 1200.910156 1102.414062 C 1193.808594 1109.511719 1186.539062 1116.433594 1179.101562 1123.175781 C 1171.660156 1129.917969 1164.0625 1136.476562 1156.300781 1142.84375 C 1148.539062 1149.214844 1140.625 1155.390625 1132.5625 1161.371094 C 1124.496094 1167.351562 1116.289062 1173.132812 1107.941406 1178.710938 C 1099.59375 1184.289062 1091.113281 1189.65625 1082.5 1194.820312 C 1073.890625 1199.980469 1065.15625 1204.929688 1056.300781 1209.660156 C 1047.445312 1214.394531 1038.480469 1218.90625 1029.40625 1223.199219 C 1020.328125 1227.492188 1011.152344 1231.5625 1001.875 1235.402344 C 992.601562 1239.246094 983.234375 1242.859375 973.78125 1246.242188 C 964.328125 1249.621094 954.796875 1252.773438 945.191406 1255.6875 C 935.582031 1258.601562 925.90625 1261.277344 916.167969 1263.71875 C 906.429688 1266.15625 896.636719 1268.355469 886.789062 1270.316406 C 876.941406 1272.273438 867.050781 1273.988281 857.117188 1275.464844 C 847.1875 1276.9375 837.226562 1278.164062 827.234375 1279.148438 C 817.242188 1280.132812 807.230469 1280.871094 797.203125 1281.363281 C 787.175781 1281.855469 777.140625 1282.101562 767.101562 1282.101562 C 757.058594 1282.101562 747.023438 1281.855469 736.996094 1281.363281 C 726.96875 1280.871094 716.957031 1280.132812 706.964844 1279.148438 C 696.972656 1278.164062 687.011719 1276.9375 677.082031 1275.464844 C 667.148438 1273.988281 657.257812 1272.273438 647.410156 1270.316406 C 637.566406 1268.355469 627.769531 1266.15625 618.03125 1263.71875 C 608.292969 1261.277344 598.617188 1258.601562 589.011719 1255.6875 C 579.402344 1252.773438 569.871094 1249.621094 560.417969 1246.242188 C 550.964844 1242.859375 541.601562 1239.246094 532.324219 1235.402344 C 523.046875 1231.5625 513.871094 1227.492188 504.792969 1223.199219 C 495.71875 1218.90625 486.753906 1214.394531 477.898438 1209.660156 C 469.042969 1204.929688 460.308594 1199.980469 451.699219 1194.820312 C 443.085938 1189.65625 434.605469 1184.289062 426.257812 1178.710938 C 417.910156 1173.132812 409.703125 1167.351562 401.636719 1161.371094 C 393.574219 1155.390625 385.660156 1149.214844 377.898438 1142.84375 C 370.136719 1136.476562 362.539062 1129.917969 355.097656 1123.175781 C 347.660156 1116.433594 340.390625 1109.511719 333.289062 1102.414062 C 326.191406 1095.3125 319.269531 1088.042969 312.527344 1080.605469 C 305.785156 1073.164062 299.226562 1065.566406 292.859375 1057.804688 C 286.488281 1050.042969 280.3125 1042.128906 274.332031 1034.066406 C 268.351562 1026 262.570312 1017.792969 256.992188 1009.445312 C 251.414062 1001.097656 246.046875 992.617188 240.882812 984.003906 C 235.722656 975.394531 230.773438 966.660156 226.042969 957.804688 C 221.308594 948.949219 216.796875 939.984375 212.503906 930.910156 C 208.210938 921.832031 204.140625 912.65625 200.300781 903.378906 C 196.457031 894.101562 192.84375 884.738281 189.460938 875.285156 C 186.082031 865.832031 182.933594 856.300781 180.015625 846.691406 C 177.101562 837.085938 174.425781 827.410156 171.984375 817.671875 C 169.546875 807.933594 167.347656 798.140625 165.386719 788.292969 C 163.429688 778.445312 161.714844 768.554688 160.238281 758.621094 C 158.765625 748.691406 157.539062 738.730469 156.554688 728.738281 C 155.570312 718.746094 154.832031 708.734375 154.339844 698.707031 C 153.847656 688.679688 153.601562 678.644531 153.601562 668.601562 C 153.601562 658.5625 153.847656 648.527344 154.339844 638.5 C 154.832031 628.472656 155.570312 618.460938 156.554688 608.46875 C 157.539062 598.476562 158.765625 588.515625 160.238281 578.585938 C 161.714844 568.652344 163.429688 558.761719 165.386719 548.914062 C 167.347656 539.066406 169.546875 529.273438 171.984375 519.535156 C 174.425781 509.796875 177.101562 500.121094 180.015625 490.515625 C 182.933594 480.90625 186.082031 471.375 189.460938 461.921875 C 192.84375 452.46875 196.457031 443.101562 200.300781 433.828125 C 204.140625 424.550781 208.210938 415.375 212.503906 406.296875 C 216.796875 397.222656 221.308594 388.257812 226.042969 379.402344 C 230.773438 370.546875 235.722656 361.8125 240.882812 353.203125 C 246.046875 344.589844 251.414062 336.109375 256.992188 327.761719 C 262.570312 319.414062 268.351562 311.207031 274.332031 303.140625 C 280.3125 295.078125 286.488281 287.164062 292.859375 279.402344 C 299.226562 271.640625 305.785156 264.042969 312.527344 256.601562 C 319.269531 249.164062 326.191406 241.894531 333.289062 234.792969 C 340.390625 227.695312 347.660156 220.773438 355.097656 214.03125 C 362.539062 207.289062 370.136719 200.730469 377.898438 194.363281 C 385.660156 187.992188 393.574219 181.816406 401.636719 175.835938 C 409.703125 169.855469 417.910156 164.074219 426.257812 158.496094 C 434.605469 152.917969 443.085938 147.546875 451.699219 142.386719 C 460.308594 137.226562 469.042969 132.277344 477.898438 127.542969 C 486.753906 122.8125 495.71875 118.300781 504.792969 114.007812 C 513.871094 109.714844 523.046875 105.644531 532.324219 101.804688 C 541.601562 97.960938 550.964844 94.347656 560.417969 90.964844 C 569.871094 87.582031 579.402344 84.433594 589.011719 81.519531 C 598.617188 78.605469 608.292969 75.929688 618.03125 73.488281 C 627.769531 71.050781 637.566406 68.851562 647.410156 66.890625 C 657.257812 64.933594 667.148438 63.21875 677.082031 61.742188 C 687.011719 60.269531 696.972656 59.042969 706.964844 58.058594 C 716.957031 57.074219 726.96875 56.335938 736.996094 55.84375 C 747.023438 55.351562 757.058594 55.105469 767.101562 55.105469 C 777.140625 55.105469 787.175781 55.351562 797.203125 55.84375 C 807.230469 56.335938 817.242188 57.074219 827.234375 58.058594 C 837.226562 59.042969 847.1875 60.269531 857.117188 61.742188 C 867.050781 63.21875 876.941406 64.933594 886.789062 66.890625 C 896.636719 68.851562 906.429688 71.050781 916.167969 73.488281 C 925.90625 75.929688 935.582031 78.605469 945.191406 81.519531 C 954.796875 84.433594 964.328125 87.582031 973.78125 90.964844 C 983.234375 94.347656 992.601562 97.960938 1001.875 101.804688 C 1011.152344 105.644531 1020.328125 109.714844 1029.40625 114.007812 C 1038.480469 118.300781 1047.445312 122.8125 1056.300781 127.542969 C 1065.15625 132.277344 1073.890625 137.226562 1082.5 142.386719 C 1091.113281 147.546875 1099.59375 152.917969 1107.941406 158.496094 C 1116.289062 164.074219 1124.496094 169.855469 1132.5625 175.835938 C 1140.625 181.816406 1148.539062 187.992188 1156.300781 194.363281 C 1164.0625 200.730469 1171.660156 207.289062 1179.101562 214.03125 C 1186.539062 220.773438 1193.808594 227.695312 1200.910156 234.792969 C 1208.007812 241.894531 1214.929688 249.164062 1221.671875 256.601562 C 1228.417969 264.042969 1234.972656 271.640625 1241.339844 279.402344 C 1247.710938 287.164062 1253.886719 295.078125 1259.867188 303.140625 C 1265.847656 311.207031 1271.628906 319.414062 1277.207031 327.761719 C 1282.785156 336.109375 1288.15625 344.589844 1293.316406 353.203125 C 1298.476562 361.8125 1303.425781 370.546875 1308.160156 379.402344 C 1312.890625 388.257812 1317.40625 397.222656 1321.699219 406.296875 C 1325.988281 415.375 1330.058594 424.550781 1333.898438 433.828125 C 1337.742188 443.101562 1341.355469 452.46875 1344.738281 461.921875 C 1348.121094 471.375 1351.269531 480.90625 1354.183594 490.515625 C 1357.097656 500.121094 1359.773438 509.796875 1362.214844 519.535156 C 1364.652344 529.273438 1366.851562 539.066406 1368.8125 548.914062 C 1370.769531 558.761719 1372.488281 568.652344 1373.960938 578.585938 C 1375.433594 588.515625 1376.660156 598.476562 1377.644531 608.46875 C 1378.628906 618.460938 1379.367188 628.472656 1379.859375 638.5 C 1380.355469 648.527344 1380.601562 658.5625 1380.601562 668.601562 Z M 1380.601562 668.601562 " fill-opacity="1" fill-rule="nonzero"/></g><path fill="#ffffff" d="M 624.316406 804.066406 C 706.953125 667.035156 811.554688 554.0625 927.667969 451.550781 C 971.84375 413.839844 1018.042969 378.796875 1066.265625 346.425781 C 1096.601562 324.980469 1124.320312 329.164062 1139.488281 351.132812 C 1154.65625 373.097656 1146.8125 401.863281 1120.660156 421.214844 C 937.082031 556.675781 815.21875 740.78125 712.183594 939.003906 C 706.953125 948.417969 702.246094 957.832031 696.492188 966.722656 C 658.835938 1021.117188 592.933594 1016.933594 560.507812 958.878906 C 528.082031 900.824219 498.269531 846.429688 464.796875 791.511719 C 449.105469 765.363281 428.707031 742.347656 409.355469 718.8125 C 390.003906 695.277344 381.113281 663.375 398.371094 645.066406 C 415.632812 626.761719 462.703125 642.453125 475.777344 646.636719 C 555.800781 675.402344 601.304688 753.332031 624.316406 804.066406 Z M 624.316406 804.066406 " fill-opacity="1" fill-rule="nonzero"/><g fill="#000000" fill-opacity="1"><g transform="translate(395.054296, 1444.649856)"><g><path d="M 102.605469 -113.082031 L 8.382812 -113.082031 L 8.382812 -119.371094 L 14.671875 -119.371094 L 14.671875 0 L 8.382812 0 L 8.382812 -6.289062 L 102.605469 -6.289062 L 102.605469 0 L 96.316406 0 L 96.316406 -29.84375 L 102.605469 -29.84375 L 102.605469 -23.554688 L 35.625 -23.554688 L 35.625 -52.058594 L 97.238281 -52.058594 L 97.238281 -45.769531 L 90.953125 -45.769531 L 90.953125 -73.9375 L 97.238281 -73.9375 L 97.238281 -67.648438 L 35.625 -67.648438 L 35.625 -95.816406 L 102.605469 -95.816406 L 102.605469 -89.527344 L 96.316406 -89.527344 L 96.316406 -119.371094 L 102.605469 -119.371094 Z M 108.890625 -125.65625 L 108.890625 -83.242188 L 41.914062 -83.242188 L 41.914062 -89.527344 L 48.199219 -89.527344 L 48.199219 -73.9375 L 41.914062 -73.9375 L 41.914062 -80.222656 L 103.527344 -80.222656 L 103.527344 -39.484375 L 41.914062 -39.484375 L 41.914062 -45.769531 L 48.199219 -45.769531 L 48.199219 -29.84375 L 41.914062 -29.84375 L 41.914062 -36.128906 L 108.890625 -36.128906 L 108.890625 6.289062 L 2.09375 6.289062 L 2.09375 -125.65625 Z M 108.890625 -125.65625 "/></g></g></g><g fill="#000000" fill-opacity="1"><g transform="translate(490.110231, 1444.649856)"><g><path d="M 90 3.730469 C 86.835938 -0.566406 85.253906 -7.003906 85.253906 -15.59375 L 85.253906 -61.363281 C 85.253906 -67.941406 82.878906 -72.886719 78.132812 -76.199219 C 72.371094 -80.222656 63.257812 -82.234375 50.800781 -82.234375 C 37.851562 -82.234375 28.34375 -80.058594 22.277344 -75.703125 C 16.917969 -71.859375 13.929688 -65.804688 13.3125 -57.539062 L 7.042969 -58.007812 L 7.042969 -64.296875 L 37.554688 -64.296875 L 37.554688 -58.007812 L 31.308594 -58.71875 C 31.933594 -64.234375 34.035156 -68.195312 37.605469 -70.601562 C 39.316406 -71.753906 41.382812 -72.554688 43.804688 -73.007812 C 45.628906 -73.347656 47.847656 -73.515625 50.464844 -73.515625 C 56.007812 -73.515625 60.207031 -72.421875 63.070312 -70.230469 C 66.121094 -67.890625 67.648438 -64.597656 67.648438 -60.355469 C 67.648438 -52.398438 62.285156 -47.910156 51.5625 -46.886719 L 37.582031 -45.707031 C 26.625 -44.765625 18.867188 -42.398438 14.308594 -38.609375 C 12.4375 -37.050781 11.058594 -35.191406 10.171875 -33.019531 C 9.257812 -30.785156 8.800781 -28.105469 8.800781 -24.980469 C 8.800781 -18.480469 11.078125 -13.421875 15.628906 -9.804688 C 17.839844 -8.046875 20.511719 -6.695312 23.640625 -5.75 C 26.894531 -4.765625 30.472656 -4.273438 34.371094 -4.273438 C 39.832031 -4.273438 44.5625 -5.097656 48.554688 -6.738281 C 52.070312 -8.179688 54.871094 -10.207031 56.957031 -12.8125 L 67.316406 -25.765625 L 68.144531 -9.199219 C 68.257812 -6.898438 68.796875 -4.707031 69.753906 -2.632812 L 64.042969 0 L 64.042969 -6.289062 L 95.058594 -6.289062 L 95.058594 0 Z M 107.503906 6.289062 L 60.019531 6.289062 L 58.335938 2.632812 C 56.699219 -0.914062 55.78125 -4.648438 55.585938 -8.570312 L 61.863281 -8.886719 L 66.773438 -4.957031 C 63.335938 -0.660156 58.855469 2.625 53.335938 4.894531 C 47.8125 7.164062 41.488281 8.300781 34.371094 8.300781 C 29.234375 8.300781 24.445312 7.628906 20.007812 6.289062 C 15.339844 4.878906 11.273438 2.796875 7.800781 0.0390625 C 4.097656 -2.90625 1.261719 -6.46875 -0.714844 -10.652344 C -2.753906 -14.964844 -3.773438 -19.742188 -3.773438 -24.980469 C -3.773438 -34.945312 -0.425781 -42.710938 6.269531 -48.277344 C 12.847656 -53.75 22.933594 -57.066406 36.523438 -58.238281 L 50.371094 -59.40625 C 52.960938 -59.652344 54.621094 -60.015625 55.347656 -60.492188 C 55.273438 -60.445312 55.195312 -60.335938 55.109375 -60.167969 C 55.078125 -60.105469 55.058594 -60.054688 55.050781 -60.019531 C 55.066406 -60.09375 55.074219 -60.207031 55.074219 -60.355469 C 55.074219 -60.523438 55.066406 -60.660156 55.050781 -60.761719 L 55.066406 -60.738281 C 55.148438 -60.53125 55.265625 -60.367188 55.421875 -60.25 C 55.289062 -60.347656 54.96875 -60.460938 54.457031 -60.582031 C 53.449219 -60.824219 52.121094 -60.941406 50.464844 -60.941406 C 47.339844 -60.941406 45.394531 -60.683594 44.628906 -60.171875 C 44.550781 -60.117188 44.472656 -60.007812 44.390625 -59.839844 C 44.128906 -59.292969 43.933594 -58.449219 43.800781 -57.296875 L 43.167969 -51.722656 L 0.265625 -51.722656 L 0.773438 -58.480469 C 2.589844 -82.699219 19.265625 -94.808594 50.800781 -94.808594 C 65.894531 -94.808594 77.40625 -92.042969 85.332031 -86.511719 C 89.523438 -83.582031 92.679688 -79.929688 94.796875 -75.558594 C 96.816406 -71.378906 97.828125 -66.644531 97.828125 -61.363281 L 97.828125 -15.59375 C 97.828125 -12.632812 98.070312 -10.046875 98.558594 -7.828125 C 98.976562 -5.945312 99.496094 -4.578125 100.121094 -3.730469 Z M 44.929688 -11.484375 C 40.085938 -11.484375 36.117188 -12.65625 33.023438 -15.003906 C 31.261719 -16.339844 29.914062 -17.972656 28.972656 -19.902344 C 28.042969 -21.816406 27.578125 -23.898438 27.578125 -26.152344 C 27.578125 -30.667969 29.152344 -34.257812 32.292969 -36.921875 C 34.910156 -39.140625 38.519531 -40.488281 43.117188 -40.957031 L 53.011719 -41.964844 L 53.648438 -35.710938 L 52.835938 -41.945312 C 54.292969 -42.132812 55.335938 -42.363281 55.96875 -42.625 C 56.167969 -42.707031 56.289062 -42.777344 56.332031 -42.835938 L 67.648438 -57.925781 L 67.648438 -34.035156 C 67.648438 -26.355469 65.304688 -20.519531 60.621094 -16.527344 C 56.671875 -13.164062 51.445312 -11.484375 44.929688 -11.484375 Z M 44.929688 -24.058594 C 48.355469 -24.058594 50.867188 -24.738281 52.464844 -26.097656 C 54.203125 -27.582031 55.074219 -30.226562 55.074219 -34.035156 L 55.074219 -39.0625 L 61.363281 -39.0625 L 66.390625 -35.292969 C 64.976562 -33.40625 63.113281 -31.980469 60.804688 -31.019531 C 59.140625 -30.324219 57.027344 -29.808594 54.460938 -29.476562 L 54.375 -29.464844 L 44.398438 -28.449219 C 42.386719 -28.242188 41.0625 -27.871094 40.425781 -27.332031 C 40.246094 -27.175781 40.152344 -26.785156 40.152344 -26.152344 C 40.152344 -24.757812 41.746094 -24.058594 44.929688 -24.058594 Z M 44.929688 -24.058594 "/></g></g></g><g fill="#000000" fill-opacity="1"><g transform="translate(576.783804, 1444.649856)"><g><path d="M 45.265625 -3.605469 C 57.835938 -3.605469 67.394531 -5.738281 73.941406 -10.003906 C 79.691406 -13.753906 82.570312 -19.082031 82.570312 -25.988281 C 82.570312 -32.0625 80.726562 -36.730469 77.042969 -39.992188 C 73 -43.570312 66.472656 -45.992188 57.46875 -47.257812 L 42.742188 -49.265625 C 38.0625 -49.902344 34.546875 -50.933594 32.195312 -52.363281 C 30.375 -53.46875 28.984375 -54.875 28.023438 -56.578125 C 27.054688 -58.292969 26.574219 -60.222656 26.574219 -62.367188 C 26.574219 -64.367188 26.992188 -66.195312 27.828125 -67.851562 C 28.753906 -69.683594 30.125 -71.1875 31.9375 -72.363281 C 34.855469 -74.25 38.964844 -75.195312 44.261719 -75.195312 C 49.804688 -75.195312 54.207031 -74.125 57.472656 -71.984375 C 61.894531 -69.085938 64.167969 -64.640625 64.292969 -58.640625 L 58.007812 -58.511719 L 58.007812 -64.796875 L 86.34375 -64.796875 L 86.34375 -58.511719 L 80.066406 -58.125 C 79.613281 -65.464844 77.152344 -71.03125 72.679688 -74.820312 C 66.84375 -79.761719 57.371094 -82.234375 44.261719 -82.234375 C 31.996094 -82.234375 22.84375 -80.148438 16.796875 -75.972656 C 11.578125 -72.367188 8.96875 -67.105469 8.96875 -60.1875 C 8.96875 -54.3125 10.9375 -49.71875 14.875 -46.414062 C 18.96875 -42.980469 25.210938 -40.648438 33.605469 -39.417969 L 46.023438 -37.570312 C 51.941406 -36.710938 56.238281 -35.425781 58.917969 -33.71875 C 62.613281 -31.359375 64.464844 -27.941406 64.464844 -23.472656 C 64.464844 -21.359375 63.992188 -19.445312 63.046875 -17.726562 C 62.042969 -15.894531 60.570312 -14.40625 58.632812 -13.269531 C 55.652344 -11.519531 51.421875 -10.644531 45.9375 -10.644531 C 43.089844 -10.644531 40.632812 -10.863281 38.566406 -11.300781 C 35.988281 -11.84375 33.78125 -12.765625 31.949219 -14.066406 C 28.226562 -16.707031 26.003906 -20.921875 25.28125 -26.714844 L 31.519531 -27.496094 L 31.519531 -21.207031 L 1.675781 -21.207031 L 1.675781 -27.496094 L 7.945312 -27.972656 C 8.300781 -23.3125 9.261719 -19.4375 10.820312 -16.351562 C 12.265625 -13.5 14.316406 -11.179688 16.980469 -9.390625 C 22.722656 -5.53125 32.152344 -3.605469 45.265625 -3.605469 Z M 45.265625 8.96875 C 37.625 8.96875 31.015625 8.382812 25.441406 7.207031 C 19.320312 5.917969 14.164062 3.863281 9.96875 1.050781 C 1.242188 -4.8125 -3.613281 -14.167969 -4.59375 -27.015625 L -5.109375 -33.78125 L 37.070312 -33.78125 L 37.757812 -28.273438 C 38.023438 -26.144531 38.511719 -24.828125 39.222656 -24.324219 C 40.261719 -23.589844 42.5 -23.21875 45.9375 -23.21875 C 49.140625 -23.21875 51.253906 -23.519531 52.269531 -24.117188 L 52.257812 -24.09375 C 52.171875 -24.007812 52.09375 -23.902344 52.027344 -23.777344 C 51.964844 -23.664062 51.921875 -23.554688 51.894531 -23.449219 L 51.890625 -23.472656 C 51.890625 -23.59375 51.886719 -23.671875 51.878906 -23.707031 C 51.894531 -23.625 51.929688 -23.527344 51.984375 -23.417969 C 52.050781 -23.289062 52.128906 -23.175781 52.214844 -23.085938 C 52.230469 -23.066406 52.246094 -23.054688 52.25 -23.050781 C 52.230469 -23.066406 52.195312 -23.089844 52.152344 -23.117188 C 50.996094 -23.855469 48.335938 -24.527344 44.175781 -25.132812 L 31.78125 -26.976562 C 21.03125 -28.550781 12.703125 -31.820312 6.792969 -36.785156 C -0.140625 -42.601562 -3.605469 -50.402344 -3.605469 -60.1875 C -3.605469 -65.710938 -2.496094 -70.671875 -0.28125 -75.078125 C 1.96875 -79.554688 5.28125 -83.300781 9.652344 -86.316406 C 17.847656 -91.980469 29.382812 -94.808594 44.261719 -94.808594 C 60.445312 -94.808594 72.628906 -91.34375 80.808594 -84.410156 C 88.007812 -78.3125 91.941406 -69.808594 92.617188 -58.898438 L 93.03125 -52.222656 L 51.851562 -52.222656 L 51.722656 -58.378906 C 51.691406 -59.960938 51.308594 -60.992188 50.582031 -61.46875 C 49.410156 -62.234375 47.304688 -62.617188 44.261719 -62.617188 C 42.613281 -62.617188 41.253906 -62.503906 40.175781 -62.277344 C 39.503906 -62.132812 39.035156 -61.976562 38.769531 -61.804688 C 38.859375 -61.863281 38.953125 -61.988281 39.050781 -62.183594 C 39.097656 -62.277344 39.128906 -62.363281 39.148438 -62.441406 C 39.148438 -62.441406 39.148438 -62.417969 39.148438 -62.367188 L 39.136719 -62.355469 C 39.105469 -62.484375 39.054688 -62.617188 38.976562 -62.753906 C 38.898438 -62.890625 38.8125 -63.003906 38.71875 -63.101562 L 38.722656 -63.109375 C 39.582031 -62.589844 41.488281 -62.125 44.441406 -61.722656 L 59.21875 -59.707031 C 70.722656 -58.089844 79.441406 -54.660156 85.375 -49.410156 C 91.886719 -43.648438 95.144531 -35.839844 95.144531 -25.988281 C 95.144531 -20.339844 93.90625 -15.25 91.429688 -10.714844 C 88.992188 -6.246094 85.449219 -2.496094 80.804688 0.53125 C 72.171875 6.15625 60.328125 8.96875 45.265625 8.96875 Z M 45.265625 8.96875 "/></g></g></g><g fill="#000000" fill-opacity="1"><g transform="translate(653.063018, 1444.649856)"><g><path d="M 70.453125 -81.191406 C 70.28125 -80.554688 70.027344 -79.613281 69.695312 -78.371094 C 66.5625 -66.714844 64.203125 -57.773438 62.621094 -51.554688 C 59.96875 -41.132812 57.628906 -31.269531 55.601562 -21.964844 L 43.328125 -21.910156 C 39.472656 -38.871094 34.359375 -58.660156 27.984375 -81.285156 L 26.984375 -84.78125 L 33.027344 -86.511719 L 33.027344 -80.222656 L 0 -80.222656 L 0 -86.511719 L 5.929688 -88.597656 L 30.410156 -19.019531 C 31.796875 -15.085938 32.761719 -12.140625 33.304688 -10.1875 C 34.292969 -6.609375 34.789062 -3.496094 34.789062 -0.839844 C 34.789062 4.121094 33.296875 8.058594 30.320312 10.972656 C 27.109375 14.109375 22.480469 15.675781 16.429688 15.675781 L 7.878906 15.675781 L 7.878906 9.390625 L 14.167969 9.390625 L 14.167969 32.859375 L 7.878906 32.859375 L 8.296875 26.585938 C 11.511719 26.800781 15.003906 26.910156 18.777344 26.910156 C 25.828125 26.910156 31.710938 26.359375 36.425781 25.257812 C 40.832031 24.226562 44.523438 22.640625 47.492188 20.492188 C 50.34375 18.433594 52.859375 15.613281 55.046875 12.027344 C 57.203125 8.492188 59.28125 3.804688 61.28125 -2.039062 L 90.957031 -88.550781 L 96.90625 -86.511719 L 96.90625 -80.222656 L 65.386719 -80.222656 L 65.386719 -86.511719 L 71.449219 -84.855469 L 70.445312 -81.167969 Z M 58.3125 -84.476562 L 60.582031 -92.796875 L 105.707031 -92.796875 L 73.175781 2.039062 C 70.878906 8.746094 68.414062 14.257812 65.78125 18.574219 C 62.71875 23.597656 59.078125 27.636719 54.859375 30.683594 C 50.523438 33.816406 45.332031 36.089844 39.28125 37.503906 C 33.628906 38.824219 26.792969 39.484375 18.777344 39.484375 C 14.726562 39.484375 10.953125 39.367188 7.460938 39.132812 L 1.59375 38.742188 L 1.59375 3.101562 L 16.429688 3.101562 C 19.0625 3.101562 20.765625 2.726562 21.527344 1.980469 C 21.984375 1.53125 22.214844 0.59375 22.214844 -0.839844 C 22.214844 -2.355469 21.871094 -4.351562 21.183594 -6.832031 C 20.71875 -8.507812 19.839844 -11.179688 18.546875 -14.847656 L -8.875 -92.796875 L 37.769531 -92.796875 L 40.085938 -84.695312 C 46.519531 -61.863281 51.6875 -41.867188 55.589844 -24.699219 L 49.457031 -23.304688 L 43.316406 -24.644531 C 45.375 -34.089844 47.75 -44.09375 50.433594 -54.65625 C 52.03125 -60.929688 54.402344 -69.921875 57.550781 -81.632812 C 57.886719 -82.890625 58.140625 -83.828125 58.308594 -84.453125 Z M 58.3125 -84.476562 "/></g></g></g><g fill="#000000" fill-opacity="1"><g transform="translate(738.237865, 1444.649856)"><g/></g></g><g fill="#000000" fill-opacity="1"><g transform="translate(768.246216, 1444.649856)"><g/></g></g><g fill="#000000" fill-opacity="1"><g transform="translate(798.261297, 1444.649856)"><g><path d="M 82.988281 -69.492188 L 35.625 -69.492188 L 35.625 -119.371094 L 41.914062 -119.371094 L 41.914062 -113.082031 L 8.382812 -113.082031 L 8.382812 -119.371094 L 14.671875 -119.371094 L 14.671875 0 L 8.382812 0 L 8.382812 -6.289062 L 41.914062 -6.289062 L 41.914062 0 L 35.625 0 L 35.625 -52.226562 L 89.277344 -52.226562 L 89.277344 0 L 82.988281 0 L 82.988281 -6.289062 L 116.519531 -6.289062 L 116.519531 0 L 110.234375 0 L 110.234375 -119.371094 L 116.519531 -119.371094 L 116.519531 -113.082031 L 82.988281 -113.082031 L 82.988281 -119.371094 L 89.277344 -119.371094 L 89.277344 -69.492188 Z M 82.988281 -82.066406 L 82.988281 -75.78125 L 76.703125 -75.78125 L 76.703125 -125.65625 L 122.808594 -125.65625 L 122.808594 6.289062 L 76.703125 6.289062 L 76.703125 -45.9375 L 82.988281 -45.9375 L 82.988281 -39.648438 L 41.914062 -39.648438 L 41.914062 -45.9375 L 48.199219 -45.9375 L 48.199219 6.289062 L 2.09375 6.289062 L 2.09375 -125.65625 L 48.199219 -125.65625 L 48.199219 -75.78125 L 41.914062 -75.78125 L 41.914062 -82.066406 Z M 82.988281 -82.066406 "/></g></g></g><g fill="#000000" fill-opacity="1"><g transform="translate(911.423259, 1444.649856)"><g><path d="M 60.523438 -113.082031 L 8.382812 -113.082031 L 8.382812 -119.371094 L 14.671875 -119.371094 L 14.671875 0 L 8.382812 0 L 8.382812 -6.289062 L 60.523438 -6.289062 C 79.375 -6.289062 93.519531 -11.191406 102.957031 -21 C 111.71875 -30.105469 116.101562 -43 116.101562 -59.683594 C 116.101562 -76.367188 111.71875 -89.265625 102.957031 -98.371094 C 93.519531 -108.179688 79.375 -113.082031 60.523438 -113.082031 Z M 60.523438 -125.65625 C 71.730469 -125.65625 81.683594 -124.074219 90.378906 -120.902344 C 98.953125 -117.777344 106.164062 -113.171875 112.019531 -107.089844 C 117.652344 -101.234375 121.875 -94.164062 124.6875 -85.886719 C 127.347656 -78.054688 128.675781 -69.320312 128.675781 -59.683594 C 128.675781 -50.050781 127.347656 -41.316406 124.6875 -33.484375 C 121.875 -25.207031 117.652344 -18.136719 112.019531 -12.28125 C 106.164062 -6.199219 98.953125 -1.59375 90.378906 1.53125 C 81.683594 4.703125 71.730469 6.289062 60.523438 6.289062 L 2.09375 6.289062 L 2.09375 -125.65625 Z M 35.625 -28.167969 L 35.625 -97.492188 L 59.851562 -97.492188 C 70.160156 -97.492188 78.25 -94.53125 84.121094 -88.609375 C 90.574219 -82.101562 93.804688 -72.460938 93.804688 -59.683594 C 93.804688 -46.910156 90.574219 -37.269531 84.121094 -30.757812 C 78.25 -24.839844 70.160156 -21.878906 59.851562 -21.878906 L 35.625 -21.878906 Z M 48.199219 -28.167969 L 41.914062 -28.167969 L 41.914062 -34.453125 L 59.851562 -34.453125 C 66.667969 -34.453125 71.78125 -36.171875 75.191406 -39.613281 C 79.214844 -43.671875 81.230469 -50.363281 81.230469 -59.683594 C 81.230469 -69.007812 79.214844 -75.699219 75.191406 -79.757812 C 71.78125 -83.195312 66.667969 -84.917969 59.851562 -84.917969 L 41.914062 -84.917969 L 41.914062 -91.203125 L 48.199219 -91.203125 Z M 48.199219 -28.167969 "/></g></g></g><g fill="#000000" fill-opacity="1"><g transform="translate(1025.423478, 1444.649856)"><g><path d="M 103.027344 -27.75 C 102.898438 -31.097656 102.648438 -33.839844 102.289062 -35.96875 C 101.878906 -38.382812 101.273438 -40.421875 100.46875 -42.085938 C 99.640625 -43.792969 98.523438 -45.257812 97.121094 -46.476562 C 95.476562 -47.90625 93.332031 -49.117188 90.679688 -50.105469 L 76.3125 -55.472656 L 90.3125 -61.734375 C 95.316406 -63.972656 99.09375 -67.113281 101.648438 -71.15625 C 104.019531 -74.902344 105.203125 -79.183594 105.203125 -83.996094 C 105.203125 -92.425781 102.535156 -99.109375 97.203125 -104.046875 C 90.695312 -110.070312 80.648438 -113.082031 67.0625 -113.082031 L 8.382812 -113.082031 L 8.382812 -119.371094 L 14.671875 -119.371094 L 14.671875 0 L 8.382812 0 L 8.382812 -6.289062 L 41.914062 -6.289062 L 41.914062 0 L 35.625 0 L 35.625 -47.53125 L 59.351562 -47.53125 C 62.382812 -47.53125 64.953125 -47.3125 67.0625 -46.871094 C 70.046875 -46.25 72.585938 -45.128906 74.671875 -43.503906 C 79.183594 -39.996094 81.589844 -34.121094 81.894531 -25.882812 L 82.398438 -12.304688 C 82.535156 -8.066406 83.117188 -4.859375 84.144531 -2.691406 L 78.460938 0 L 78.460938 -6.289062 L 113 -6.289062 L 113 0 L 107.582031 3.1875 C 105.191406 -0.875 103.898438 -5.890625 103.699219 -11.863281 L 103.03125 -27.734375 Z M 115.59375 -28.261719 L 116.265625 -12.28125 C 116.394531 -8.441406 117.109375 -5.410156 118.417969 -3.1875 L 123.992188 6.289062 L 74.484375 6.289062 L 72.78125 2.691406 C 71.007812 -1.054688 70.023438 -5.894531 69.832031 -11.839844 L 69.328125 -25.417969 C 69.167969 -29.75 68.378906 -32.46875 66.953125 -33.578125 C 65.769531 -34.496094 63.238281 -34.957031 59.351562 -34.957031 L 41.914062 -34.957031 L 41.914062 -41.242188 L 48.199219 -41.242188 L 48.199219 6.289062 L 2.09375 6.289062 L 2.09375 -125.65625 L 67.0625 -125.65625 C 83.933594 -125.65625 96.824219 -121.53125 105.742188 -113.277344 C 109.859375 -109.46875 112.9375 -104.925781 114.984375 -99.644531 C 116.847656 -94.84375 117.777344 -89.625 117.777344 -83.996094 C 117.777344 -76.757812 115.945312 -70.238281 112.277344 -64.4375 C 108.371094 -58.257812 102.761719 -53.53125 95.449219 -50.257812 L 92.882812 -55.996094 L 95.082031 -61.886719 C 103.027344 -58.917969 108.597656 -54.144531 111.785156 -47.570312 C 113.109375 -44.828125 114.078125 -41.664062 114.6875 -38.066406 C 115.136719 -35.40625 115.441406 -32.132812 115.59375 -28.246094 Z M 41.914062 -99.503906 L 62.03125 -99.503906 C 68.578125 -99.503906 73.742188 -97.703125 77.53125 -94.109375 C 81.335938 -90.492188 83.242188 -85.613281 83.242188 -79.46875 C 83.242188 -73.25 81.332031 -68.34375 77.511719 -64.746094 C 73.746094 -61.203125 68.589844 -59.433594 62.03125 -59.433594 L 35.625 -59.433594 L 35.625 -99.503906 Z M 41.914062 -86.929688 L 41.914062 -93.214844 L 48.199219 -93.214844 L 48.199219 -65.722656 L 41.914062 -65.722656 L 41.914062 -72.007812 L 62.03125 -72.007812 C 65.261719 -72.007812 67.550781 -72.640625 68.894531 -73.902344 C 70.074219 -75.015625 70.667969 -76.871094 70.667969 -79.46875 C 70.667969 -82.015625 70.070312 -83.855469 68.875 -84.988281 C 67.511719 -86.28125 65.230469 -86.929688 62.03125 -86.929688 Z M 41.914062 -86.929688 "/></g></g></g><g fill="#ffffff" fill-opacity="1"><g transform="translate(395.054296, 1444.649856)"><g><path d="M 102.605469 -119.371094 L 8.382812 -119.371094 L 8.382812 0 L 102.605469 0 L 102.605469 -29.84375 L 41.914062 -29.84375 L 41.914062 -45.769531 L 97.238281 -45.769531 L 97.238281 -73.9375 L 41.914062 -73.9375 L 41.914062 -89.527344 L 102.605469 -89.527344 Z M 102.605469 -119.371094 "/></g></g></g><g fill="#ffffff" fill-opacity="1"><g transform="translate(490.110231, 1444.649856)"><g><path d="M 95.058594 0 C 92.714844 -3.183594 91.539062 -8.886719 91.539062 -15.59375 L 91.539062 -61.363281 C 91.539062 -78.460938 78.964844 -88.523438 50.800781 -88.523438 C 21.796875 -88.523438 8.550781 -78.128906 7.042969 -58.007812 L 37.554688 -58.007812 C 38.394531 -65.386719 41.914062 -67.230469 50.464844 -67.230469 C 59.351562 -67.230469 61.363281 -64.210938 61.363281 -60.355469 C 61.363281 -55.660156 58.007812 -53.816406 50.96875 -53.148438 L 37.050781 -51.972656 C 11.734375 -49.792969 2.515625 -40.40625 2.515625 -24.980469 C 2.515625 -7.375 16.429688 2.011719 34.371094 2.011719 C 47.277344 2.011719 56.5 -2.179688 61.863281 -8.886719 C 62.03125 -5.53125 63.039062 -2.179688 64.042969 0 Z M 44.929688 -17.769531 C 38.058594 -17.769531 33.867188 -20.957031 33.867188 -26.152344 C 33.867188 -31.351562 37.21875 -34.035156 43.757812 -34.703125 L 53.648438 -35.710938 C 57.503906 -36.214844 59.851562 -37.050781 61.363281 -39.0625 L 61.363281 -34.035156 C 61.363281 -21.796875 53.984375 -17.769531 44.929688 -17.769531 Z M 44.929688 -17.769531 "/></g></g></g><g fill="#ffffff" fill-opacity="1"><g transform="translate(576.783804, 1444.649856)"><g><path d="M 45.265625 2.683594 C 72.761719 2.683594 88.855469 -7.542969 88.855469 -25.988281 C 88.855469 -42.082031 78.628906 -50.632812 58.34375 -53.480469 L 43.589844 -55.492188 C 36.214844 -56.5 32.859375 -58.175781 32.859375 -62.367188 C 32.859375 -66.222656 35.710938 -68.90625 44.261719 -68.90625 C 52.140625 -68.90625 57.839844 -66.558594 58.007812 -58.511719 L 86.34375 -58.511719 C 85.335938 -74.773438 75.78125 -88.523438 44.261719 -88.523438 C 16.933594 -88.523438 2.683594 -78.292969 2.683594 -60.1875 C 2.683594 -43.925781 14.417969 -35.878906 32.691406 -33.195312 L 45.097656 -31.351562 C 55.492188 -29.84375 58.175781 -27.664062 58.175781 -23.472656 C 58.175781 -19.449219 54.992188 -16.933594 45.9375 -16.933594 C 36.546875 -16.933594 32.523438 -19.449219 31.519531 -27.496094 L 1.675781 -27.496094 C 3.351562 -5.53125 16.933594 2.683594 45.265625 2.683594 Z M 45.265625 2.683594 "/></g></g></g><g fill="#ffffff" fill-opacity="1"><g transform="translate(653.063018, 1444.649856)"><g><path d="M 64.378906 -82.820312 C 59.515625 -64.714844 54.320312 -45.601562 49.457031 -23.304688 C 44.429688 -45.433594 39.230469 -64.546875 34.035156 -82.988281 L 33.027344 -86.511719 L 0 -86.511719 L 24.476562 -16.933594 C 26.488281 -11.234375 28.5 -5.53125 28.5 -0.839844 C 28.5 5.03125 25.652344 9.390625 16.429688 9.390625 L 7.878906 9.390625 L 7.878906 32.859375 C 10.394531 33.027344 12.910156 33.195312 18.777344 33.195312 C 48.789062 33.195312 59.015625 23.976562 67.230469 0 L 96.90625 -86.511719 L 65.386719 -86.511719 Z M 64.378906 -82.820312 "/></g></g></g><g fill="#b9b9c3" fill-opacity="1"><g transform="translate(738.237865, 1444.649856)"><g/></g></g><g fill="#b9b9c3" fill-opacity="1"><g transform="translate(768.246216, 1444.649856)"><g/></g></g><g clip-path="url(#5349e77c92)"><g transform="matrix(1, 0, 0, 1, 57, 972)"><g clip-path="url(#b7d9eb90b9)"><g clip-path="url(#fb5cb316e2)"><g mask="url(#5a554de575)"><g transform="matrix(1, 0, 0, 1, 0, -0.000000000000113687)"><g clip-path="url(#2958aec9b9)"><g clip-path="url(#2bbbd24d0c)"><path fill="url(#a35e2d9d43)" d="M 405.671875 0.898438 L 405.671875 564 L 1406.921875 564 L 1406.921875 0.898438 Z M 405.671875 0.898438 " fill-rule="nonzero"/></g></g></g></g></g></g></g></g></svg>