<svg xmlns="http://www.w3.org/2000/svg" width="2048" viewBox="0 0 1536 1536" height="2048" version="1.0"><defs><clipPath id="e"><path d="M57.672 972.898h1409.25V1536H57.672Zm0 0"/></clipPath><clipPath id="g"><path d="M.672.898h1409.25V564H.672Zm0 0"/></clipPath><clipPath id="c"><path d="M.672.898h1409.25V564H.672Zm0 0"/></clipPath><clipPath id="d"><path d="M0 0h1410v564H0z"/></clipPath><clipPath id="b"><path d="M0 0h1410v564H0z"/></clipPath><clipPath id="j"><path d="M405.672.898h1001.25V564H405.672Zm0 0"/></clipPath><clipPath id="h"><path d="M0 0h1410v564H0z"/></clipPath><clipPath id="f"><path d="M0 0h1410v564H0z"/></clipPath><linearGradient x1="93.363" gradientTransform="matrix(.74976 0 0 .74989 335.672 336.16)" y1="99" x2="1428.793" gradientUnits="userSpaceOnUse" y2="99" id="l"><stop stop-color="#FFDE59" offset="0"/><stop stop-color="#FFDE59" offset=".25"/><stop stop-color="#FFDE59" offset=".313"/><stop stop-color="#FFDE59" offset=".328"/><stop stop-color="#FFDE59" offset=".336"/><stop stop-color="#FFDD59" offset=".34"/><stop stop-color="#FFDC59" offset=".344"/><stop stop-color="#FFDB59" offset=".348"/><stop stop-color="#FFDA58" offset=".352"/><stop stop-color="#FFD958" offset=".355"/><stop stop-color="#FFD858" offset=".359"/><stop stop-color="#FFD758" offset=".363"/><stop stop-color="#FFD658" offset=".367"/><stop stop-color="#FFD658" offset=".371"/><stop stop-color="#FFD558" offset=".375"/><stop stop-color="#FFD457" offset=".379"/><stop stop-color="#FFD357" offset=".383"/><stop stop-color="#FFD257" offset=".387"/><stop stop-color="#FFD157" offset=".391"/><stop stop-color="#FFD057" offset=".395"/><stop stop-color="#FFCF57" offset=".398"/><stop stop-color="#FFCE57" offset=".402"/><stop stop-color="#FFCD56" offset=".406"/><stop stop-color="#FFCC56" offset=".41"/><stop stop-color="#FFCC56" offset=".414"/><stop stop-color="#FFCB56" offset=".418"/><stop stop-color="#FFCA56" offset=".422"/><stop stop-color="#FFC956" offset=".426"/><stop stop-color="#FFC856" offset=".43"/><stop stop-color="#FFC755" offset=".434"/><stop stop-color="#FFC655" offset=".438"/><stop stop-color="#FFC555" offset=".441"/><stop stop-color="#FFC455" offset=".445"/><stop stop-color="#FFC355" offset=".449"/><stop stop-color="#FFC255" offset=".453"/><stop stop-color="#FFC255" offset=".457"/><stop stop-color="#FFC154" offset=".461"/><stop stop-color="#FFC054" offset=".465"/><stop stop-color="#FFBF54" offset=".469"/><stop stop-color="#FFBE54" offset=".473"/><stop stop-color="#FFBD54" offset=".477"/><stop stop-color="#FFBC54" offset=".48"/><stop stop-color="#FFBB54" offset=".484"/><stop stop-color="#FFBA53" offset=".488"/><stop stop-color="#FFB953" offset=".492"/><stop stop-color="#FFB853" offset=".496"/><stop stop-color="#FFB753" offset=".5"/><stop stop-color="#FFB753" offset=".504"/><stop stop-color="#FFB653" offset=".508"/><stop stop-color="#FFB553" offset=".512"/><stop stop-color="#FFB452" offset=".516"/><stop stop-color="#FFB352" offset=".52"/><stop stop-color="#FFB252" offset=".523"/><stop stop-color="#FFB152" offset=".527"/><stop stop-color="#FFB052" offset=".531"/><stop stop-color="#FFAF52" offset=".535"/><stop stop-color="#FFAE52" offset=".539"/><stop stop-color="#FFAD51" offset=".543"/><stop stop-color="#FFAD51" offset=".547"/><stop stop-color="#FFAC51" offset=".551"/><stop stop-color="#FFAB51" offset=".555"/><stop stop-color="#FFAA51" offset=".559"/><stop stop-color="#FFA951" offset=".563"/><stop stop-color="#FFA851" offset=".566"/><stop stop-color="#FFA750" offset=".57"/><stop stop-color="#FFA650" offset=".574"/><stop stop-color="#FFA550" offset=".578"/><stop stop-color="#FFA450" offset=".582"/><stop stop-color="#FFA350" offset=".586"/><stop stop-color="#FFA350" offset=".59"/><stop stop-color="#FFA250" offset=".594"/><stop stop-color="#FFA14F" offset=".598"/><stop stop-color="#FFA04F" offset=".602"/><stop stop-color="#FF9F4F" offset=".605"/><stop stop-color="#FF9E4F" offset=".609"/><stop stop-color="#FF9D4F" offset=".613"/><stop stop-color="#FF9C4F" offset=".617"/><stop stop-color="#FF9B4F" offset=".621"/><stop stop-color="#FF9A4E" offset=".625"/><stop stop-color="#FF994E" offset=".629"/><stop stop-color="#FF994E" offset=".633"/><stop stop-color="#FF984E" offset=".637"/><stop stop-color="#FF974E" offset=".641"/><stop stop-color="#FF964E" offset=".645"/><stop stop-color="#FF954E" offset=".648"/><stop stop-color="#FF944D" offset=".652"/><stop stop-color="#FF934D" offset=".656"/><stop stop-color="#FF924D" offset=".66"/><stop stop-color="#FF914D" offset=".664"/><stop stop-color="#FF914D" offset=".672"/><stop stop-color="#FF914D" offset=".688"/><stop stop-color="#FF914D" offset=".75"/><stop stop-color="#FF914D" offset="1"/></linearGradient><filter x="0%" y="0%" width="100%" height="100%" id="a"><feColorMatrix values="0 0 0 0 1 0 0 0 0 1 0 0 0 0 1 0 0 0 1 0" color-interpolation-filters="sRGB"/></filter><mask id="i"><g filter="url(#a)"><g clip-path="url(#b)"><g clip-path="url(#c)"><g clip-path="url(#d)"><path d="M824.249 396.869h-41.074v-43.59h-33.531V472.65h33.531v-45.937h41.074v45.937h33.532V353.279h-33.532Zm90.697-43.59h-52.14V472.65h52.14c42.754 0 61.864-24.477 61.864-59.684 0-35.21-19.11-59.687-61.864-59.687m-18.609 91.203v-63.035h17.938c15.93 0 27.664 8.215 27.664 31.52 0 23.3-11.735 31.515-27.664 31.515Zm0 0"/><path d="M1077.736 444.65c-.504-12.738-2.516-22.8-16.43-27.996 12.738-5.7 18.61-16.43 18.61-28 0-18.61-11.907-35.375-44.43-35.375h-58.68V472.65h33.531v-41.242h17.438c9.386 0 15.757 2.012 16.261 15.59l.504 13.582c.164 5.195.836 8.886 2.344 12.07h34.539c-1.676-2.852-2.852-7.043-3.02-12.07Zm-67.399-65.215h20.117c9.895 0 14.922 5.195 14.922 13.746 0 8.719-5.027 13.746-14.922 13.746h-20.117Zm0 0"/></g></g></g></g></mask></defs><path fill="#fcc25e" d="M39.516 324.66c-.141-1.078-.36-2.578-.368-3.656-.105-24.957-1.007-48.473 2.567-73.192a251.6 251.6 0 0 1 8.613-37.55 250 250 0 0 1 6.445-18.168 248 248 0 0 1 7.82-17.617 251 251 0 0 1 9.15-16.97 251 251 0 0 1 10.429-16.21 250 250 0 0 1 24.43-29.79 244 244 0 0 1 25.496-23.316 243.5 243.5 0 0 1 28.527-19.488 244 244 0 0 1 30.988-15.273 244 244 0 0 1 32.836-10.75c38.426-9.457 65.672-7.426 104.742-7.305l84.008.094 230.883.172q57.511.385 115.027-.032v141.004l.164 39.36c.024 6.332.305 18.785-.789 24.617l-.222 9.258c.898 10.433.261 30.28.246 41.257l-.13 82.723c.017 4.488-.757 24.93-.105 27.594.063 5.418.286 11.805-.011 17.125-.828 27.18-.063 54.676-.078 81.871 0 4.223.293 8.102-.028 12.363l-.34 2.13-.18 243.796-133.581 129.879c-6.043 5.789-27.2 29-32.075 32.129-3.96 4.273-6.683 6.996-11.02 10.875-11.831 11.738-37.327 38.926-49.71 48.414-4.629 5.062-9.457 9.426-14.05 14.3-18.845 20.13-40.485 40.41-60.153 59.864-6.113 6.047-20.543 20.516-27.14 25.121-5.923 5.617-11.473 12.14-16.966 17.262-9.617 11.37-27.285 27.578-38.222 38.207l-62.922 61.402c-12.922 12.531-25.516 25.836-38.328 38.55a11065 11065 0 0 0-109.621 108.735c-14.73 14.602-30.243 28.657-44.887 43.387-7.691 7.734-16.785 15.938-23.555 24.434-7.039-9.254-15.312-19.813-21.219-29.79-16.874-28.476-30.59-66.765-34.152-99.726-2.2-20.34-1.965-46.125-2.14-66.7a9917 9917 0 0 1-.176-109.94l-.293-81.286c-.047-7.687-.848-31.004-.059-37.386l.266-1.133c.383-39.172-.477-78.465-.371-117.645.02-7.558-.348-15.496.37-23.004l.032-11.64c-.793-7.223-.34-29.375-.309-37.649.094-23.168-.585-47.945.239-70.996l-.157-12.496c-.925-10.953-.019-38.031.043-50.242.07-14.356-1.136-42.207.114-55.27.215-4.367.054-9.082 0-13.476-.844-4.828-.375-26.317-.371-32.254l-.032-70.668.043-98.754c-.023-14.313-.832-39.7.239-53.191Zm0 0"/><path fill="#20253b" d="M39.516 324.66c8.707 4.41 27.504 18.203 36.297 24.344l51.394 35.371a6571 6571 0 0 1 86.059 60.844c15.84 11.222 31.847 22.312 47.336 34 3.734 2.82 7.886 7.422 7.164 12.414-1.57 2.41-1.75 2.324-4.125 3.781-3.907.27-6.832-2.398-9.973-4.695-70.688-51.703-143.52-101.055-214.195-152.7Zm.117 660.645c21.101-13.867 47.5-35.64 68.55-51.489L208.2 860.04l37.86-28.527c6.543-4.899 20.425-18.953 27.726-12.055 1.8 5.664-2.48 10.555-6.77 13.922-14.695 11.543-30.175 22.16-45.245 33.195L142.84 924l-63.082 44.25c-12.086 8.46-27.477 20.176-40.2 26.762l-.19-8.574Zm.031-152.29c14.79-6.792 31.434-13.046 46.602-19.152L153 786.711l45.367-18.383c8.336-3.402 33.047-16.527 39.317-8.562 3.425 10.875-10.332 12.59-18.141 15.605l-31 12.129c-29.617 11.61-59.352 23.086-88.984 34.656-19.477 7.614-40.82 14.223-59.926 22.5Zm720.598-583.167c-19.028 33.882-39.957 65.972-59.965 99.234l-28.43 46.555c-4.383 7.207-16.156 33.3-25.93 29.054-6.761-8.988 12.567-34.84 18.036-43.765a4006 4006 0 0 1 38.511-61.375 5186 5186 0 0 1 34.82-51.778c5.356-7.878 11.114-17.058 17.165-24.308 1.547-1.852 3.734-2.387 6.015-2.875ZM39.438 711.875c22.128-1.91 42.214-5.559 64.128-9.066a3722 3722 0 0 1 66.27-9.918c13.723-1.965 27.52-3.989 41.273-5.696 4-.496 7.278 2.684 8.7 6.153-1.688 9.836-26.375 10.394-35.032 11.46a2051 2051 0 0 0-35.894 4.829l-62.86 8.543c-15.578 2.16-30.753 4.656-46.43 6.191Zm.16-118.988c14.652 3.015 32.125 4.57 47.21 6.324 40.766 4.746 81.266 10.473 121.922 15.867 5.747.762 11.149 9.66 3.141 12.945-14.59 1.57-39.234-4.28-53.094-5.945-40.007-4.808-79.347-11.445-119.183-15.715.215-4.367.054-9.082 0-13.476M414.94 1096.55c.5-7.117 3.008-20.25 4.34-27.68a2586 2586 0 0 0 7.203-41.191l11.051-65.078c1.48-8.325 2.137-33.786 12.434-33.774 10.808.008 3.984 25.383 2.89 32.176a1267 1267 0 0 1-8.214 46.86c-4.461 23.753-8.118 47.679-12.739 71.425-5.922 5.617-11.472 12.14-16.965 17.262m345.32-678.004c-8.093 7.969-50.683 47.695-58.82 48.086-1.722-.656-2.71-1.238-3.718-2.848-1.16-1.863-1.426-4.84-.684-6.941 1.84-5.211 55.547-50.707 63.234-55.422.063 5.418.286 11.805-.011 17.125M519.199 994.305c-1.02-10.133-7.742-52.336-4.476-59.364.82-1.761 2.343-3.27 4.238-3.84 1.719-.515 3.309-.328 4.789.7 6.559 4.55 8.172 39.21 9.5 48.203-4.629 5.062-9.457 9.426-14.05 14.3M759.815 514.91c-4.925 4.074-10.921 9.137-17.515 4.535-4.989-8.445 12.183-16.039 17.777-18.937-.094 4.12 0 8.156.078 12.273ZM582.961 931.59c-1.211-10.867 1.11-12.149 11.02-10.875-3.961 4.273-6.684 6.996-11.02 10.875m-91.055-520.324c135.754-4.75 249.645 101.476 254.352 237.234 4.703 135.754-101.555 249.61-237.317 254.273-135.695 4.66-249.488-101.539-254.191-237.238-4.703-135.695 101.46-249.523 237.156-254.27"/><path fill="#fcc25e" d="M490.063 425.29c127.726-5.587 235.859 93.292 241.699 221.007 5.836 127.71-92.828 236.039-220.532 242.129-128.058 6.105-236.753-92.895-242.605-220.961-5.855-128.07 93.355-236.574 221.438-242.176"/><path fill="#20253b" d="M484.512 455.555c11.574-1.36 32.71-.059 44.355.93-39.523 5.41-73.64 11.796-108.883 32.992-54.05 32.511-89.504 90.546-104.03 151.168-2.5 11.12-4.99 24.796-6.72 36.074-1.906-6.938-2.847-13.09-3.683-20.223-12.68-108.11 77.246-190.484 178.96-200.941m-167.16 418.097c9.598-.734 13.528 5.461 7.34 12.368-18.207 20.332-36.433 40.746-54.148 61.515L134.625 1107.84c-2.754 2.078-3.363 2.527-6.434 1.305-1.59-2.829-1.46-5.422.496-8.168 4.934-6.915 10.356-13.582 15.614-20.266a3105 3105 0 0 1 35.066-44.188 4410 4410 0 0 1 91.082-110.55c12.45-14.692 33.317-40.72 46.903-52.32m62.656 34.53c8 .106 10.629 4.68 7.656 11.922-8.875 21.657-19.23 42.399-29.453 63.415l-32.844 68.664a7046 7046 0 0 1-37.12 77.52c-8.263 17.37-19.188 41.51-28.97 57.874-2.078 1.277-3.214 1.524-5.562.902-3.766-5.046 1.41-13.261 3.695-18.52 18.754-43.144 39.313-85.42 59.059-128.097l41.297-89.101c4.046-8.739 16.652-39.696 22.242-44.578M123.816 211.848c6.68.703 13.793 11.613 18.485 16.87l39.34 44.532a4457 4457 0 0 1 98.394 114.297c11.785 13.945 24.578 27.152 35.996 41.414 4.262 5.324 6.692 9.691 1.567 15.117-3.754.031-6.414.078-9.106-2.836-5.46-5.914-10.586-12.144-15.765-18.308l-39.27-46.883-69.031-81.492c-19.88-23.04-39.551-46.227-59.403-69.293-4.652-5.407-5.738-7.844-1.207-13.418M244.563 131c1.5-.016 5.171-.172 5.789.746 8.558 12.754 23.27 45.766 29.226 57.992 27.613 56.715 56.164 110.856 83.957 167.25 6.137 12.45 13.664 26.551 19.246 39.364 1.203 2.765-.554 5.488-1.996 7.863-2.625.84-2.601.746-5.219.644-3.816-2.132-8.046-10.312-10-14.254-32.425-65.464-64.902-131.382-96.058-197.425a3743 3743 0 0 1-17.903-38.52c-3.136-6.855-9.37-16.656-7.042-23.66m428.34-19.715c2.476.25 2.765.063 4.765 1.59 2.016 4.266-.32 10.297-1.668 14.61-11.66 37.222-24.387 74.35-36.187 111.492l-32.2 101.12c-5.015 15.47-10.031 31.075-15.27 46.477-1.421 4.192-3.69 5.305-7.53 7.024-4.239-.895-5.118-.825-6.93-4.84.422-4.594 1.762-9.363 3.172-13.75 26.695-83.016 58.449-164.34 85.133-247.356 1.785-5.55 3.246-11.64 6.714-16.367M529.36 82.95l3.918.442c.891.668 1.836 1.12 2.297 2.18 1.7 3.91-10.761 285.624-13.5 291.577-1.281 2.786-3.457 3.727-6.105 4.88-2.434-.848-5.356-1.696-6.297-4.423-2.492-7.199 11.754-189.093 13.258-211.644 1.691-25.395 2.355-51.164 4.758-76.473.218-2.34.796-4.363 1.671-6.539M384.195 86.7c1.407.176 3.918.094 4.985 1.004 3.18 2.711 10.742 49.188 12.445 57.883 9.773 49.875 20.453 99.617 31.023 149.324a3603 3603 0 0 1 11.047 52.918c1.825 9.086 3.746 18.328 5.16 27.492.66 4.305.086 5.297-2.53 8.707-7.915 2.266-10.188-3.43-11.579-10.062-3.465-16.531-6.363-33.219-9.437-49.828l-18.024-96.14a6027 6027 0 0 1-17.68-94.634c-2.464-13.636-5.097-27.984-7.226-41.742-.262-1.715.95-3.492 1.816-4.922M39.63 473.637c9.394 3.867 20.695 7.117 30.453 10.605 53.535 19.133 106.422 40.09 159.543 60.309 6.734 2.562 6.832 7.316 4.879 13.156-1.856.86-4.613 1.547-6.602.809-62.898-23.364-124.91-49.977-188.293-72.082Zm1396.539-350.903c3.727 1.754 13.672 15.793 16.477 19.684a255 255 0 0 1 15.753 24.605 255 255 0 0 1 12.848 26.243 256 256 0 0 1 9.77 27.535 255 255 0 0 1 6.562 28.469c4.973 30.59 2.856 73.363 2.7 105.394l-.196 157.75-.695 688.188c-23.813-9.676-57-23.243-82.434-21.579-38.379 2.52-85.125 26.168-121.539 40.762l-124.469 50.496c-16.851 6.871-34.922 14.895-51.765 21.293-23.032-5.812-41.79-13.89-66.825-19.25a548 548 0 0 1-.953-30.383c4.914-3.21 18.922-11.738 21.504-15.93.434-3.382.856-2.019-.472-4.464-6.13-2.055-15.422 6.066-21.121 5.437l-.75-1.386c2.593-13.426 32.257-22.508 29.015-32.602-7.297-5.117-22.348 8.383-28.055 12.86-.007-4.422-.332-8.407-.668-12.817 6.114-3.637 18.872-12.457 17.348-20.52-5.086-4.648-14.371 5.04-17.984 8.493.172-5.793 1.98-25.293-4.434-27.098-4.844 3.328-4.5 19.512-4.746 25.363-3.73-3.007-16.367-14.632-20.656-10.117-.113 6.164 15.695 20.387 20.676 25.777-.215 3.766-.68 7.817-1.043 11.602-5.407-4.875-22.274-20.219-29.743-16.336-1.84 4.05.622 6.625 3.57 9.465 7.528 7.254 16.778 13.781 25.095 20.043l-.024 13.215c-7.695-4-33.008-15.813-40.918-14.61l-.594 1.102c3.555 8.121 32.317 22.613 41.641 27.773.023 7.297.059 13.895-.39 21.2-39.344-9.375-85.907-10.993-125.673-3.368-.734-16.785-.082-38.171.09-55.289 9.782-8.168 58.696-47.625 56.942-56.918-.93-.734-1.453-1.507-2.309-1.191-10.66 3.914-49.23 29.95-55.117 36.18a628 628 0 0 1-.106-22.364c12.426-13.515 24.41-28.285 35.454-43 2.968-3.964 8.984-10.77 5.546-15.293l-2.195-.171c-8.73 6.652-34.816 32.925-42.27 41.843-.25-12.52 1.364-71.61-2.917-79.613l-1.18.008c-6.883 7.785-7.582 44.805-8.715 57.12-8.015-8.46-20.562-26.378-30.605-33.593-.684-.496-1.516.242-2.528.758-3.136 7.836 26.52 44.527 32.47 52.516.05 12.464-.747 26.445-.845 39.32-7.46-6.11-49.633-39.441-56.699-32.774.137 8.731 47.942 49.102 56.422 58.477l.738.824a625 625 0 0 0-.273 23.117c-11.93-12.375-31.422-35.59-43.895-48.066-.586-.586-1.027-.121-2.047.426-1.765 6.023 12.809 28.14 16.575 34.191-6.91-2.691-34.957-14.683-40.72-13.633-2.25 2.57-1.792 1.207-2.292 4.012 5.683 7.363 59.832 29.926 72.215 35.88l.008 20.476c-40.485 8.976-81.72 22.859-118.258 42.546-1.508-22.636-.692-59.152-.66-82.785l.05-144.886c-.05-79.504-.523-159.133.075-238.618.187-24.472-.239-51.3.757-75.543 4.239-5.449 15.66-16.296 20.918-21.488l39.016-38.5A18747 18747 0 0 1 975.45 573.066l301.207-294.261c52.996-51.907 107.282-103.457 159.512-156.07"/><path fill="#fbf8f1" d="m1193.574 604.055 1.102.293.195.996c-3.16 4.27-8.91 8.855-12.789 12.808-75.57 77.082-73.02 200.856 18.156 265.063 49.14 34.597 95.215 38.11 152.836 28.012-4.941 6.816-12.937 14.183-19.37 19.574a201 201 0 0 1-42.277 27.367 200 200 0 0 1-23.376 9.504 201 201 0 0 1-24.38 6.504 217 217 0 0 1-18.823 2.113 198 198 0 0 1-19.535.516 198 198 0 0 1-19.493-1.414 200 200 0 0 1-19.257-3.332 198 198 0 0 1-70.997-31.567 199 199 0 0 1-15.37-12.066c-39.13-33.977-62.25-78.602-66.008-130.516-3.329-45.996 13.597-98.148 44.003-132.797 24.555-27.984 58.98-49.492 95.7-56.66 13.656-2.668 25.851-3.535 39.683-4.398"/><path fill="#fff1c4" d="M966 1202.953c2.887.55 3.172 1.027 3.3 3.625-4.155 8.828-30.609 24.164-39.39 29.586-1.172.414-.855.25-2.219.113.09-2.918 2.61-6.164 4.094-8.691 7.719-13.106 20.461-19.215 34.215-24.633"/><path fill="#fcc25e" d="M1292.844 760.133a11.1 11.1 0 0 1 5.824-.117q1.44.359 2.734 1.082a11 11 0 0 1 2.352 1.765 11.086 11.086 0 0 1 1.789 13.559 11 11 0 0 1-1.816 2.312 11 11 0 0 1-2.36 1.758q-1.293.721-2.734 1.074a11.1 11.1 0 0 1-13.371-7.89c-1.578-5.82 1.789-11.832 7.582-13.543m-299.73-143.446c5.796-1.23 11.527 2.38 12.921 8.145 1.395 5.762-2.047 11.59-7.762 13.152q-1.419.387-2.89.387-1.47.005-2.887-.383a11 11 0 0 1-4.976-2.937 11 11 0 0 1-1.739-2.344 10.97 10.97 0 0 1-.887-8.492q.428-1.406 1.211-2.649a10.9 10.9 0 0 1 4.262-3.902q1.305-.673 2.746-.976m401.098 253.62c5.86-.828 11.289 3.188 12.21 9.02.93 5.836-2.991 11.34-8.812 12.371a10.82 10.82 0 0 1-10.257-3.804 10.6 10.6 0 0 1-1.504-2.43 10.8 10.8 0 0 1-.82-2.738 11 11 0 0 1-.071-2.856 10.81 10.81 0 0 1 9.254-9.562m-172.176-346.465c5.746-1.45 11.578 2.02 13.067 7.758 1.476 5.738-1.954 11.597-7.68 13.117-5.785 1.531-11.703-1.938-13.203-7.73-1.492-5.79 2.011-11.688 7.816-13.145m-332.86 309.668a10.63 10.63 0 0 1 10.645 1.996q1.079.944 1.864 2.133.79 1.195 1.234 2.554a10.4 10.4 0 0 1 .512 2.785q.07 1.43-.242 2.825-.31 1.394-.977 2.66-.669 1.264-1.649 2.305a10.5 10.5 0 0 1-2.199 1.785c-.812.496-1.676.879-2.593 1.14-5.497 1.598-11.274-1.457-13.051-6.898-1.778-5.445 1.082-11.32 6.457-13.285m102.55 147.832c5.669-.793 10.919 3.12 11.782 8.785.855 5.652-3 10.95-8.649 11.871a10.42 10.42 0 0 1-9.816-3.758 10.442 10.442 0 0 1 6.684-16.898m385.746-727.531a9.8 9.8 0 0 1 7.543.262 9.8 9.8 0 0 1 5.105 5.554c.297.816.48 1.652.55 2.516q.105 1.295-.124 2.574a9.7 9.7 0 0 1-.797 2.449 10 10 0 0 1-1.406 2.156 9.76 9.76 0 0 1-4.227 2.863c-5.047 1.743-10.558-.894-12.375-5.914-1.816-5.023.742-10.57 5.73-12.46m-63.984 95.554c4.817-1.71 10.121.738 11.934 5.516a9.398 9.398 0 0 1-10.137 12.656 9.3 9.3 0 0 1-2.398-.684 9.3 9.3 0 0 1-2.133-1.285 9.3 9.3 0 0 1-1.723-1.8 9.4 9.4 0 0 1-1.187-2.192 9.2 9.2 0 0 1-.567-2.422 9.4 9.4 0 0 1 .086-2.492 9.4 9.4 0 0 1 2.07-4.484 9.3 9.3 0 0 1 1.84-1.676 9.3 9.3 0 0 1 2.215-1.137m22.793 233.86a9.05 9.05 0 0 1 8.598 3.097c.516.614.941 1.29 1.277 2.016q.502 1.095.7 2.285.198 1.188.082 2.387a9.1 9.1 0 0 1-1.688 4.426 9 9 0 0 1-1.648 1.726 9 9 0 0 1-2.04 1.238 9.046 9.046 0 0 1-12.547-6.79c-.808-4.862 2.415-9.483 7.266-10.385"/><path fill="#fff1c4" d="M1415.438 1033.777a5.81 5.81 0 0 1 6.406 4.942 5.82 5.82 0 0 1-4.75 6.562 5.82 5.82 0 0 1-6.336-3.406 5.86 5.86 0 0 1-.047-4.535 5.82 5.82 0 0 1 3.223-3.187 6 6 0 0 1 1.504-.376"/><path fill="#fcc25e" d="M1416.059 446.465q.455-.253.953-.418a5.4 5.4 0 0 1 2.05-.25 5.3 5.3 0 0 1 1.024.176q.505.133.969.367.467.23.882.547.417.314.762.707.346.388.61.84.262.45.437.941c.113.328.2.664.246 1.008q.078.515.051 1.035a5.34 5.34 0 0 1-2.54 4.305 5.27 5.27 0 0 1-2.698.8 5.3 5.3 0 0 1-2.73-.68 5.25 5.25 0 0 1-2.016-1.968 5.27 5.27 0 0 1-.746-2.715q.001-1.464.734-2.723a5.3 5.3 0 0 1 2.012-1.972"/><path fill="#fff1c4" d="M909.098 713.645q.467-.184.965-.274.497-.093 1-.086a5.3 5.3 0 0 1 1.957.399q.463.193.886.468c.282.188.54.395.782.63.238.234.457.491.648.765q.285.416.488.879.351.786.426 1.648.08.86-.121 1.7a5.2 5.2 0 0 1-.664 1.57 5.2 5.2 0 0 1-1.13 1.277 5.2 5.2 0 0 1-3.148 1.18 5.26 5.26 0 0 1-3.222-.969 5.2 5.2 0 0 1-1.766-2.168 5.3 5.3 0 0 1-.394-1.355 5.3 5.3 0 0 1-.016-1.41q.09-.706.36-1.364.272-.656.71-1.219a5.23 5.23 0 0 1 2.239-1.671"/><path fill="#fcc25e" d="M1075.094 541.172q.463-.21.96-.332a5 5 0 0 1 1.005-.137q.511-.023 1.015.059.504.075.985.25a5.3 5.3 0 0 1 1.73 1.043q.375.345.68.75.305.409.527.87c.145.305.262.626.348.954q.128.493.156 1.004.031.511-.04 1.015a5 5 0 0 1-.233.989q-.165.48-.418.926a5.3 5.3 0 0 1-1.332 1.519c-.27.207-.555.39-.86.54a5.13 5.13 0 0 1-2.687.546 5.15 5.15 0 0 1-2.594-.887 5.16 5.16 0 0 1-1.793-2.078 5.1 5.1 0 0 1-.492-2.7 5.1 5.1 0 0 1 .933-2.577 5.14 5.14 0 0 1 2.11-1.754"/><path fill="#fff1c4" d="M1193.766 698.82q.481-.164.98-.234a5.1 5.1 0 0 1 2 .11q.492.127.95.343t.863.52q.406.3.746.671.34.375.605.81a5.22 5.22 0 0 1 .285 4.839c-.14.305-.308.598-.504.871a5.3 5.3 0 0 1-1.46 1.375 5.4 5.4 0 0 1-.903.45 5.1 5.1 0 0 1-2.7.277 5.05 5.05 0 0 1-2.472-1.125 5.1 5.1 0 0 1-1.566-2.22 5.14 5.14 0 0 1-.235-2.702 5.1 5.1 0 0 1 1.168-2.453 5.1 5.1 0 0 1 2.243-1.532"/><path fill="#fcc25e" d="M1215.61 400.105a5 5 0 0 1 1.335-.398q.703-.105 1.399-.023.702.086 1.351.355a5.13 5.13 0 0 1 3.05 5.71 5.1 5.1 0 0 1-1.249 2.47q-.48.52-1.078.89-.597.374-1.277.567a5 5 0 0 1-.942.176 5 5 0 0 1-.953 0 5.1 5.1 0 0 1-1.824-.531 5 5 0 0 1-1.508-1.16 5 5 0 0 1-.566-.77 5.3 5.3 0 0 1-.414-.86 5.4 5.4 0 0 1-.246-.926 5 5 0 0 1-.067-.949 5.1 5.1 0 0 1 .39-1.863q.182-.44.446-.844.264-.398.598-.746.334-.345.726-.621.388-.277.828-.477"/><path fill="#fff1c4" d="M1428.832 687.27c7.156 2.285 7.809 6.785 2.961 12.128-1.11-.328-3.004-.898-3.93-1.586a5.25 5.25 0 0 1-1.625-1.917 5.25 5.25 0 0 1-.562-2.454c.043-2.507 1.656-4.355 3.156-6.171m-143.926 402.945q.423-.205.875-.328.456-.122.922-.157c.313-.02.625-.015.934.024a4.8 4.8 0 0 1 1.773.562q.41.225.774.524.363.3.664.656.3.363.523.774a4.91 4.91 0 0 1-1.738 6.554 4.8 4.8 0 0 1-2.52.727 4.8 4.8 0 0 1-2.535-.672 4.8 4.8 0 0 1-1.828-1.883 4.8 4.8 0 0 1-.602-2.55q.054-1.36.793-2.497a4.87 4.87 0 0 1 1.965-1.734"/><path fill="#fbf8f1" d="M831.031 1007.004a4.86 4.86 0 0 1 4.649 1.582 4.8 4.8 0 0 1 1.105 2.289c.16.86.094 1.707-.2 2.531a4.8 4.8 0 0 1-1.452 2.094 4.871 4.871 0 1 1-5.008-8.223 5 5 0 0 1 .906-.273m277.887 81.605a4.71 4.71 0 0 1 4.848.774 4.64 4.64 0 0 1 1.414 2.113q.408 1.26.11 2.543a4.67 4.67 0 0 1-1.243 2.23 4.63 4.63 0 0 1-2.219 1.258 4.67 4.67 0 0 1-3.402-.46 4.69 4.69 0 0 1-2.406-4.383 4.71 4.71 0 0 1 2.898-4.074"/><path fill="#fcc25e" d="m760.012 783.398.937 315.293-.465 138.09c.04 22.606-.3 46.23.692 68.715-.031 4.477.133 10.988-.563 15.23.008 3.286-.18 12.536.473 15.211.05 5.88.203 12.016.043 17.872-.133 48.562-1.184 98.68-.637 146.941l-328.328-.098-100.504.082c-20.129.016-46.008.692-65.633-1.32a274 274 0 0 1-39.504-7.367A274 274 0 0 1 188.52 1479c-2.934-1.238-9.84-3.977-11.895-5.648-8.05-4.16-14.184-6.555-22.21-11.438-13.345-8.195-34.798-27.105-46-38.39l5.948-3.985c10.938-10.148 29.075-29.863 40.239-38.21 3.808-6.145 26.882-27.36 33.257-33.84a7802 7802 0 0 1 129.012-128.274l250.777-246.137L692.16 850.41c22.469-22.207 45.93-44.347 67.852-67.012"/><path fill="#fcc25e" d="m760.012 783.398.937 315.293-.465 138.09c.04 22.606-.3 46.23.692 68.715-18.824-9.527-40.324-18.734-59.68-27.57l-77.383-35.582a3236 3236 0 0 0-52.027-23.121c-35.328-15.442-62.547-29.2-101.871-15.442-37.488 13.11-68.512 37.446-102.504 57.375-50.09 30.93-99.363 62.961-151.68 90.117-17.535 9.106-43.172 22.758-61.43 30.055 3.81-6.144 26.883-27.36 33.258-33.84a7802 7802 0 0 1 129.012-128.273l250.777-246.137L692.16 850.41c22.469-22.207 45.93-44.347 67.852-67.012m-583.387 689.954c17.527-6.215 29.762-11.504 48.145-17.153 66.023-20.293 125.789-18.883 193.863-18.187q38.776.512 77.37-3.266a699 699 0 0 0 76.536-11.793 700 700 0 0 0 74.766-20.176 699 699 0 0 0 72.078-28.312c7.445-3.352 37.082-16.094 41.746-20.656-.133 48.562-1.184 98.68-.637 146.941l-328.328-.098-100.504.082c-20.129.016-46.008.692-65.633-1.32a274 274 0 0 1-39.504-7.367A274 274 0 0 1 188.52 1479c-2.934-1.238-9.84-3.977-11.895-5.648"/><path fill="#20253b" d="M154.602 1381.328c18.257-7.297 43.894-20.95 61.43-30.055 52.316-27.156 101.59-59.187 151.679-90.117 33.992-19.93 65.016-44.265 102.504-57.375 39.324-13.758 66.543 0 101.87 15.442a3236 3236 0 0 1 52.028 23.12l77.383 35.583c19.356 8.836 40.856 18.043 59.68 27.57-.031 4.477.133 10.984-.563 15.23-2.648 1.41-3.308 2.325-6.457 1.262-13.98-4.718-27.726-11.926-41.187-17.976l-126.133-57.196c-18.598-8.25-36.957-17.011-55.961-24.203-28.156-10.66-52.555-4.172-78.164 9.508-25.758 13.766-49.602 29.274-74.125 44.941l-77.89 49.02a1341 1341 0 0 1-149.555 78.668c-5.407 2.398-32.637 14.484-36.778 14.79 10.938-10.15 29.075-29.864 40.239-38.212m-.188 80.586c8.383-4.851 32.137-13.664 41.656-17.07a441 441 0 0 1 61.024-17.055 441 441 0 0 1 62.84-8.152c44.265-2.528 89.93.082 134.148-1.5 29.922-1.07 66.164-5.047 95.61-10.32a698.3 698.3 0 0 0 142.667-42.133c19.102-7.899 49.399-23.235 67.692-29.41l1.035-.336c.05 5.878.203 12.015.043 17.87-4.664 4.563-34.3 17.305-41.746 20.657a699 699 0 0 1-72.078 28.312 700 700 0 0 1-74.766 20.176 699 699 0 0 1-76.535 11.793 699 699 0 0 1-77.371 3.266c-68.074-.696-127.84-2.106-193.863 18.187-18.383 5.649-30.618 10.938-48.145 17.153-8.05-4.16-14.184-6.555-22.21-11.438M776.241 36.082l347.985.305 81.878.117c35.895-.207 59.692-2.18 95.543 5.203 40.493 8.34 90.41 33.559 119.707 63.04a243 243 0 0 1 5.106 5.308A56296 56296 0 0 0 968.992 556.59c-63.09 62.262-131.023 124.023-192.734 187.11l-.36-68.16.262-11.83c-.57-32.046-.148-64.241-.465-96.3-.074-7.562-.172-15.68.27-23.187-.008-4.375.187-9.04.3-13.438-.34-6.058-.398-12.32-.343-18.39.238-28.332-.977-57.094.066-85.368-.172-3.8.14-8.902.27-12.8l-.082-158.086.027-4.965Zm0 0"/><path fill="#fcc25e" d="M776.16 663.71c8.106-9.362 17.543-18.1 26.469-26.741l41.488-39.938 115.656-112.758 253.653-248.308c12.14-11.93 103.476-104.305 112.535-108.52 2.941.328 1.68-.246 3.863 1.907.422 1.5 1.14 3.285-.035 4.59-22.531 24.968-56.613 57.023-79.773 79.574L1125.27 335.398 924.855 532.301A12707 12707 0 0 1 813.48 641.965c-9.316 8.887-27.44 26.902-37.582 33.574Zm.106-132.925a23746 23746 0 0 0 261.113-256.18 7109 7109 0 0 1 99.383-98.382 9345 9345 0 0 1 60.207-59.102c1.71-1.664 3.172-2.793 5.558-3 2.961.914 1.973.031 3.391 2.352-.309 4.007-3.121 7.574-5.871 10.386-20.363 20.809-41.453 41.27-62.168 61.707L1014.69 310.508 861.148 462.37c-11.218 11.047-75.785 77.16-85.183 81.852-.008-4.375.187-9.04.3-13.438m-.007-116.558 188.699-186.57c29.781-29.294 58.996-59.141 89.2-88.024 2.929-2.809 6.097-3.145 8.269.664-.278 3.328-1.918 5.316-4.235 7.691-18.722 19.16-37.93 37.938-57.039 56.696l-85.996 85.421-83.992 83.594c-14.023 14.059-35.555 37.137-49.793 49.324a47 47 0 0 1-5.383 4.004c-.172-3.8.14-8.902.27-12.8m-.051-163.051c22.797-24.5 51.262-51.582 75.18-75.559q12.377-12.474 24.554-25.148c5.528-5.77 15.996-18.809 23.715-19.766 3 1.324 3.133 5.86 1.582 7.426-39.277 39.598-78.465 79.476-118.539 118.3-1.148 1.114-1.687 1.329-3.148 1.782-2.04-.441-1.89-.535-3.375-2.07Zm0 0"/><path fill="#20253b" d="M957.531 1278.328c71.078-4.348 139.473 24.332 204.75 47.793 92.395 33.203 185.91 63.899 283.653 76.723a177 177 0 0 1-14.536 18.707c-43.007 48.336-104.02 75.125-168.21 78.84-10.989.613-25.801-.235-37.38-.278l-80.453-.105-233.753.015c-43.739.016-92.25-.984-135.532.66l.239-171.66c58.546-27.757 115.867-47.507 181.222-50.695m455.688-80.277c26.734-4.59 62.27 11.855 86.09 23.176.136 13.152.511 29.78-.336 42.77a253 253 0 0 1-4.301 32.776 252.5 252.5 0 0 1-8.55 31.93 251.5 251.5 0 0 1-12.653 30.54 251 251 0 0 1-16.535 28.624c-18.899-3.71-38.684-5.894-58.11-9.824a1431 1431 0 0 1-127.207-32.91c-44.64-14.13-87.953-30.211-132.113-45.473 18.144-4.515 37.621-14.168 55.23-21.36l91.184-36.57 50.027-20.242c26.692-10.758 48.121-20.55 77.274-23.437"/><path d="M497.659 1331.568h-94.222v-6.29h6.289v119.372h-6.29v-6.29h94.223v6.29h-6.289v-29.844h6.29v6.29h-66.982v-28.506h61.613v6.29h-6.285v-28.168h6.285v6.289h-61.612v-28.168h66.98v6.289h-6.289v-29.844h6.29Zm6.286-12.574v42.414h-66.977v-6.285h6.286v15.59h-6.285v-6.286h61.613v40.739h-61.614v-6.286h6.286v15.926h-6.285v-6.285h66.977v42.419H397.148v-131.945Zm0 0"/><path d="M580.11 1448.38c-3.164-4.296-4.746-10.734-4.746-19.324v-45.77q-.001-9.866-7.121-14.835-8.645-6.035-27.332-6.035-19.424-.001-28.524 6.53-8.038 5.768-8.965 18.165l-6.269-.469v-6.289h30.512v6.29l-6.246-.712q.94-8.273 6.296-11.883 2.567-1.727 6.2-2.406 2.735-.509 6.66-.508 8.313-.001 12.605 3.286 4.577 3.51 4.578 9.875-.001 11.935-16.085 13.468l-13.981 1.18q-16.436 1.413-23.273 7.098c-1.871 1.558-3.25 3.418-4.137 5.59q-1.372 3.35-1.372 8.039 0 9.75 6.828 15.175 3.317 2.637 8.012 4.055 4.882 1.476 10.73 1.477c5.461 0 10.191-.825 14.184-2.465q5.273-2.165 8.402-6.074l10.36-12.954.828 16.567c.113 2.3.652 4.492 1.609 6.566l-5.71 2.633v-6.29h31.016v6.29Zm17.504 2.56H550.13l-1.684-3.657a30.1 30.1 0 0 1-2.75-11.203l6.277-.317 4.91 3.93q-5.157 6.446-13.437 9.852c-5.523 2.27-11.848 3.405-18.966 3.405q-7.706 0-14.362-2.011-7-2.114-12.208-6.249-5.552-4.418-8.515-10.692-3.058-6.47-3.058-14.328 0-14.947 10.043-23.297c6.578-5.473 16.664-8.79 30.253-9.961l13.848-1.168q3.886-.37 4.977-1.086-.111.071-.239.324a.7.7 0 0 0-.058.148q.023-.112.023-.335 0-.253-.023-.407l.015.024q.123.31.356.488-.198-.148-.965-.332-1.51-.362-3.992-.36-4.687.001-5.836.77-.116.081-.238.332c-.262.547-.457 1.39-.59 2.543l-.633 5.574h-42.902l.507-6.757q2.725-36.33 50.028-36.33 22.642 0 34.531 8.297 6.288 4.396 9.465 10.953 3.03 6.272 3.031 14.196v45.77q-.001 4.438.73 7.765.627 2.825 1.563 4.098Zm-62.574-17.775q-7.266.001-11.907-3.52-2.64-2.004-4.05-4.898-1.395-2.87-1.395-6.25.002-6.774 4.715-10.77 3.927-3.33 10.824-4.035l9.895-1.008.636 6.254-.812-6.234c1.457-.188 2.5-.418 3.133-.68q.298-.123.363-.21l11.316-15.09v23.89q0 11.52-7.027 17.508c-3.95 3.363-9.176 5.043-15.691 5.043m0-12.575q5.138 0 7.535-2.039 2.609-2.226 2.61-7.937v-5.028h6.288l5.028 3.77q-2.123 2.832-5.586 4.273-2.496 1.044-6.344 1.543l-.086.012-9.977 1.016q-3.017.31-3.972 1.117c-.18.156-.274.547-.274 1.18q.001 2.092 4.778 2.093m0 0"/><path d="M622.05 1441.045q18.856 0 28.675-6.399c5.75-3.75 8.63-9.078 8.63-15.984q-.001-9.111-5.528-14.004-6.066-5.367-19.574-7.266l-14.727-2.008q-7.02-.954-10.547-3.097-2.73-1.66-4.172-4.215-1.45-2.573-1.449-5.79 0-3 1.254-5.484 1.39-2.748 4.11-4.511 4.377-2.831 12.324-2.832 8.313 0 13.21 3.21c4.423 2.9 6.696 7.344 6.821 13.344l-6.285.13v-6.286h28.336v6.285l-6.278.387q-.679-11.01-7.386-16.695-8.754-7.414-28.418-7.414c-12.266 0-21.418 2.086-27.465 6.261q-7.828 5.41-7.828 15.785 0 8.816 5.906 13.774 6.14 5.151 18.73 6.996l12.418 1.848q8.876 1.29 12.895 3.851c3.695 2.36 5.547 5.778 5.547 10.246q0 3.17-1.418 5.746-1.507 2.75-4.414 4.457-4.47 2.625-12.696 2.625-4.27 0-7.37-.656-3.87-.815-6.618-2.765-5.583-3.96-6.668-12.649l6.239-.781v6.289H578.46v-6.29l6.27-.476c.355 4.66 1.316 8.535 2.874 11.621a18.1 18.1 0 0 0 6.16 6.961q8.615 5.788 28.286 5.786m0 12.574q-11.462.001-19.826-1.762c-6.119-1.289-11.276-3.344-15.47-6.156q-13.092-8.795-14.564-28.067l-.515-6.765h42.18l.687 5.508q.398 3.193 1.465 3.949 1.558 1.103 6.715 1.105 4.806 0 6.332-.898l-.012.023a1.3 1.3 0 0 0-.23.317 1.4 1.4 0 0 0-.133.328l-.004-.024q0-.18-.012-.234.023.124.105.289.102.195.23.332c.016.02.032.031.036.035a1 1 0 0 0-.098-.066q-1.735-1.107-7.976-2.016l-12.396-1.844q-16.124-2.36-24.988-9.808-10.4-8.725-10.398-23.403 0-8.283 3.324-14.89 3.376-6.715 9.933-11.238 12.292-8.495 34.61-8.493 24.276-.001 36.547 10.399c7.199 6.097 11.132 14.601 11.808 25.512l.414 6.675h-41.18l-.128-6.156q-.05-2.374-1.141-3.09-1.757-1.148-6.32-1.148c-1.649 0-3.008.113-4.086.34q-1.008.215-1.406.472.135-.086.28-.379.07-.14.098-.257v.074l-.011.012a1.5 1.5 0 0 0-.16-.399 1.8 1.8 0 0 0-.258-.348l.004-.007q1.288.782 5.718 1.386l14.778 2.016q17.256 2.424 26.156 10.297 9.769 8.644 9.77 23.422 0 8.471-3.715 15.273-3.656 6.705-10.624 11.246-12.948 8.439-35.54 8.439m0 0"/><path d="M723.516 1363.459q-.259.956-.758 2.82c-3.132 11.656-5.492 20.598-7.074 26.816q-3.978 15.633-7.02 29.59l-12.273.055q-5.782-25.44-15.344-59.375l-1-3.496 6.043-1.73v6.288h-33.027v-6.289l5.93-2.086 24.48 69.578q2.08 5.902 2.895 8.833c.988 3.578 1.484 6.69 1.484 9.347q-.002 7.442-4.469 11.813-4.815 4.703-13.89 4.703h-8.551v-6.286h6.289v23.468h-6.29l.419-6.273q4.822.323 10.48.324 10.577 0 17.649-1.652 6.61-1.544 11.066-4.766c2.852-2.058 5.367-4.879 7.555-8.465q3.233-5.3 6.233-14.065l29.676-86.512 5.95 2.04v6.288h-31.52v-6.289l6.062 1.657-1.004 3.687Zm-12.14-3.286 2.269-8.32h45.125l-32.531 94.837q-3.446 10.06-7.396 16.534-4.593 7.538-10.922 12.11-6.503 4.698-15.578 6.82-8.479 1.98-20.504 1.98-6.077 0-11.316-.351l-5.867-.39v-35.642h14.837c2.633 0 4.336-.375 5.097-1.122.457-.449.688-1.386.688-2.82q0-2.272-1.031-5.992-.697-2.514-2.637-8.016l-27.422-77.948h46.645l2.316 8.102q9.651 34.246 15.504 59.995l-6.133 1.394-6.14-1.34c2.058-9.445 4.433-19.449 7.117-30.011q2.395-9.41 7.117-26.977c.336-1.258.59-2.195.758-2.82Zm0 0"/><g transform="translate(738.238 1444.65)"/><g transform="translate(768.246 1444.65)"/><path d="M881.249 1375.158h-47.363v-49.88h6.29v6.29h-33.533v-6.29h6.289v119.372h-6.29v-6.29h33.532v6.29h-6.289v-52.227h53.652v52.227h-6.289v-6.29h33.532v6.29h-6.286v-119.371h6.286v6.289h-33.531v-6.29h6.29v49.88Zm0-12.574v6.285h-6.285v-49.875h46.106v131.945h-46.106v-52.226h6.285v6.289h-41.074v-6.29h6.286v52.228h-46.106v-131.945h46.105v49.875h-6.285v-6.285Zm0 0"/><path d="M971.946 1331.568h-52.14v-6.29h6.289v119.372h-6.29v-6.29h52.141q28.278.002 42.434-14.71 13.144-13.658 13.145-38.684c0-16.683-4.383-29.582-13.145-38.687q-14.156-14.712-42.434-14.711m0-12.574q16.811-.002 29.856 4.754 12.86 4.688 21.64 13.812 8.45 8.786 12.668 21.203 3.99 11.749 3.989 26.203.001 14.45-3.988 26.2-4.22 12.417-12.668 21.203-8.782 9.124-21.641 13.812-13.044 4.759-29.856 4.759h-58.43v-131.945Zm-24.898 97.488v-69.324h24.227q15.462 0 24.27 8.883c6.452 6.507 9.683 16.148 9.683 28.925q-.001 19.16-9.684 28.926-8.806 8.879-24.27 8.88h-24.225Zm12.574 0h-6.285v-6.285h17.938q10.225 0 15.34-5.16 6.036-6.09 6.038-20.07-.001-13.987-6.039-20.075c-3.41-3.437-8.523-5.16-15.34-5.16h-17.936v-6.285h6.285Zm0 0"/><path d="M1128.45 1416.9c-.129-3.348-.379-6.09-.738-8.219q-.614-3.621-1.82-6.117a13.6 13.6 0 0 0-3.348-4.39q-2.464-2.146-6.441-3.63l-14.368-5.367 14-6.261q7.505-3.359 11.336-9.422 3.557-5.62 3.555-12.84-.001-12.645-8-20.05-9.762-9.036-30.14-9.036h-58.68v-6.29h6.289v119.372h-6.29v-6.29h33.532v6.29h-6.289v-47.531h23.727q4.546-.002 7.71.66 4.48.93 7.61 3.367 6.767 5.263 7.223 17.621l.503 13.578q.206 6.36 1.747 9.614l-5.685 2.691v-6.29h34.54v6.29l-5.418 3.188q-3.585-6.094-3.883-15.051l-.668-15.871Zm12.567-.512.672 15.98c.129 3.84.843 6.872 2.152 9.095l5.574 9.476h-49.508l-1.703-3.598c-1.773-3.746-2.758-8.586-2.949-14.53l-.504-13.579q-.239-6.497-2.375-8.16-1.773-1.378-7.601-1.379h-17.438v-6.285h6.286v47.531h-46.106v-131.945h64.969q25.303-.001 38.68 12.379 6.173 5.711 9.241 13.632 2.794 7.203 2.793 15.649.001 10.857-5.5 19.558-5.859 9.27-16.828 14.18l-2.566-5.738 2.199-5.89c7.945 2.968 13.516 7.741 16.703 14.316 1.324 2.742 2.293 5.906 2.903 9.504q.675 3.99.906 9.82Zm-73.68-71.242h20.117q9.819.001 15.5 5.395 5.71 5.425 5.711 14.64 0 9.327-5.73 14.723c-3.766 3.543-8.922 5.312-15.48 5.312h-26.408v-40.07Zm0 12.574v-6.285h6.286v27.492h-6.285v-6.285h20.117q4.846-.001 6.864-1.894 1.772-1.671 1.773-5.567 0-3.82-1.793-5.52-2.045-1.939-6.844-1.94Zm0 0"/><path d="M497.659 1325.279h-94.222v119.371h94.222v-29.844h-60.69v-15.926h55.323v-28.167h-55.324v-15.59h60.691Zm0 0" fill="#fff"/><path d="M585.169 1444.65c-2.344-3.184-3.52-8.887-3.52-15.594v-45.77c0-17.097-12.574-27.16-40.738-27.16-29.004 0-42.25 10.395-43.758 30.516h30.512c.84-7.379 4.36-9.222 12.91-9.222 8.887 0 10.898 3.02 10.898 6.875 0 4.695-3.355 6.539-10.394 7.207l-13.919 1.175c-25.316 2.18-34.534 11.567-34.534 26.993 0 17.605 13.914 26.992 31.854 26.992 12.906 0 22.129-4.192 27.492-10.899.169 3.357 1.178 6.707 2.181 8.887Zm-50.13-17.77c-6.87 0-11.062-3.187-11.062-8.382 0-5.2 3.352-7.883 9.89-8.551l9.891-1.008c3.856-.504 6.204-1.34 7.715-3.352v5.028c0 12.238-7.379 16.265-16.433 16.265m0 0" fill="#fff"/><path d="M622.05 1447.334c27.496 0 43.59-10.227 43.59-28.672 0-16.094-10.227-24.645-30.512-27.492l-14.754-2.012c-7.375-1.008-10.73-2.684-10.73-6.875 0-3.856 2.85-6.54 11.402-6.54 7.879 0 13.578 2.348 13.746 10.395h28.336c-1.008-16.261-10.564-30.011-42.082-30.011-27.328 0-41.578 10.23-41.578 28.335 0 16.262 11.734 24.31 30.007 26.993l12.407 1.843c10.394 1.508 13.078 3.688 13.078 7.88 0 4.023-3.184 6.538-12.239 6.538-9.39 0-13.414-2.515-14.417-10.562H578.46c1.676 21.965 15.258 30.18 43.59 30.18m0 0" fill="#fff"/><path d="M717.442 1361.83c-4.863 18.105-10.059 37.218-14.922 59.515-5.027-22.129-10.227-41.242-15.422-59.683l-1.008-3.524h-33.027l24.477 69.578c2.011 5.7 4.023 11.404 4.023 16.094 0 5.871-2.848 10.23-12.07 10.23h-8.551v23.47c2.516.167 5.031.335 10.898.335 30.013 0 40.239-9.218 48.453-33.195l29.676-86.512h-31.52Zm0 0" fill="#fff"/><g transform="translate(738.238 1444.65)" fill="#b9b9c3"/><g transform="translate(768.246 1444.65)" fill="#b9b9c3"/><g clip-path="url(#e)"><g clip-path="url(#f)" transform="translate(57 972)"><g clip-path="url(#g)"><g clip-path="url(#h)" mask="url(#i)"><g clip-path="url(#j)"><path fill="url(#l)" d="M405.672.898V564h1001.25V.898Zm0 0"/></g></g></g></g></g></svg>